Regular.ufo
<glyph name="uni0023" format="2">
  <advance width="749"/>
  <unicode hex="0023"/>
  <outline>
    <contour>
      <point x="226" y="0" type="line"/>
      <point x="263" y="217" type="line"/>
      <point x="428" y="217" type="line"/>
      <point x="391" y="0" type="line"/>
      <point x="455" y="0" type="line"/>
      <point x="492" y="217" type="line"/>
      <point x="638" y="217" type="line"/>
      <point x="638" y="277" type="line"/>
      <point x="503" y="277" type="line"/>
      <point x="533" y="456" type="line"/>
      <point x="679" y="456" type="line"/>
      <point x="679" y="516" type="line"/>
      <point x="544" y="516" type="line"/>
      <point x="581" y="733" type="line"/>
      <point x="517" y="733" type="line"/>
      <point x="480" y="516" type="line"/>
      <point x="315" y="516" type="line"/>
      <point x="352" y="733" type="line"/>
      <point x="288" y="733" type="line"/>
      <point x="251" y="516" type="line"/>
      <point x="105" y="516" type="line"/>
      <point x="105" y="456" type="line"/>
      <point x="240" y="456" type="line"/>
      <point x="209" y="277" type="line"/>
      <point x="64" y="277" type="line"/>
      <point x="64" y="217" type="line"/>
      <point x="199" y="217" type="line"/>
      <point x="162" y="0" type="line"/>
    </contour>
    <contour>
      <point x="304" y="456" type="line"/>
      <point x="469" y="456" type="line"/>
      <point x="439" y="277" type="line"/>
      <point x="274" y="277" type="line"/>
    </contour>
  </outline>
</glyph>
<glyph name="uni0024" format="2">
  <advance width="628"/>
  <unicode hex="0024"/>
  <outline>
    <contour>
      <point x="326" y="-1" type="line"/>
      <point x="477" y="5"/>
      <point x="565" y="86"/>
      <point x="565" y="209" type="curve" smooth="yes"/>
      <point x="565" y="319"/>
      <point x="502" y="379"/>
      <point x="357" y="410" type="curve" smooth="yes"/>
      <point x="315" y="419" type="line" smooth="yes"/>
      <point x="209" y="442"/>
      <point x="157" y="471"/>
      <point x="157" y="550" type="curve" smooth="yes"/>
      <point x="157" y="619"/>
      <point x="220" y="661"/>
      <point x="309" y="661" type="curve" smooth="yes"/>
      <point x="329" y="661" type="line"/>
      <point x="405" y="661"/>
      <point x="462" y="623"/>
      <point x="500" y="570" type="curve"/>
      <point x="561" y="616" type="line"/>
      <point x="503" y="696"/>
      <point x="428" y="729"/>
      <point x="329" y="733" type="curve"/>
      <point x="309" y="733" type="line" smooth="yes"/>
      <point x="174" y="733"/>
      <point x="78" y="660"/>
      <point x="78" y="545" type="curve" smooth="yes"/>
      <point x="78" y="428"/>
      <point x="153" y="381"/>
      <point x="309" y="342" type="curve" smooth="yes"/>
      <point x="325" y="338" type="line" smooth="yes"/>
      <point x="439" y="309"/>
      <point x="486" y="282"/>
      <point x="486" y="204" type="curve" smooth="yes"/>
      <point x="486" y="125"/>
      <point x="425" y="71"/>
      <point x="326" y="71" type="curve" smooth="yes"/>
      <point x="306" y="71" type="line" smooth="yes"/>
      <point x="222" y="71"/>
      <point x="163" y="112"/>
      <point x="115" y="178" type="curve"/>
      <point x="56" y="125" type="line"/>
      <point x="108" y="55"/>
      <point x="181" y="-1"/>
      <point x="306" y="-1" type="curve" smooth="yes"/>
    </contour>
    <contour>
      <point x="348" y="-86" type="line"/>
      <point x="348" y="17" type="line"/>
      <point x="286" y="16" type="line"/>
      <point x="286" y="-86" type="line"/>
    </contour>
    <contour>
      <point x="348" y="57" type="line"/>
      <point x="348" y="361" type="line"/>
      <point x="288" y="361" type="line"/>
      <point x="288" y="57" type="line"/>
    </contour>
    <contour>
      <point x="348" y="397" type="line"/>
      <point x="348" y="675" type="line"/>
      <point x="288" y="675" type="line"/>
      <point x="288" y="397" type="line"/>
    </contour>
    <contour>
      <point x="348" y="717" type="line"/>
      <point x="348" y="819" type="line"/>
      <point x="286" y="819" type="line"/>
      <point x="286" y="717" type="line"/>
    </contour>
  </outline>
</glyph>
<glyph name="uni0026" format="2">
  <advance width="728"/>
  <unicode hex="0026"/>
  <outline>
    <contour>
      <point x="300" y="-13" type="curve" smooth="yes"/>
      <point x="419" y="-13"/>
      <point x="485" y="49"/>
      <point x="514" y="88" type="curve"/>
      <point x="596" y="0" type="line"/>
      <point x="700" y="0" type="line"/>
      <point x="558" y="152" type="line"/>
      <point x="581" y="199"/>
      <point x="599" y="254"/>
      <point x="608" y="316" type="curve"/>
      <point x="682" y="316" type="line"/>
      <point x="682" y="384" type="line"/>
      <point x="543" y="384" type="line"/>
      <point x="540" y="321"/>
      <point x="529" y="258"/>
      <point x="508" y="205" type="curve"/>
      <point x="339" y="385" type="line"/>
      <point x="433" y="438"/>
      <point x="508" y="491"/>
      <point x="508" y="589" type="curve" smooth="yes"/>
      <point x="508" y="681"/>
      <point x="437" y="746"/>
      <point x="334" y="746" type="curve" smooth="yes"/>
      <point x="220" y="746"/>
      <point x="145" y="669"/>
      <point x="145" y="570" type="curve" smooth="yes"/>
      <point x="145" y="504"/>
      <point x="178" y="450"/>
      <point x="228" y="397" type="curve"/>
      <point x="152" y="355"/>
      <point x="78" y="299"/>
      <point x="78" y="189" type="curve" smooth="yes"/>
      <point x="78" y="77"/>
      <point x="157" y="-13"/>
    </contour>
    <contour>
      <point x="308" y="57" type="curve" smooth="yes"/>
      <point x="218" y="57"/>
      <point x="161" y="106"/>
      <point x="161" y="185" type="curve" smooth="yes"/>
      <point x="161" y="201" type="line" smooth="yes"/>
      <point x="161" y="284"/>
      <point x="212" y="319"/>
      <point x="271" y="350" type="curve"/>
      <point x="469" y="137" type="line"/>
      <point x="432" y="88"/>
      <point x="380" y="57"/>
    </contour>
    <contour>
      <point x="296" y="431" type="curve"/>
      <point x="253" y="479"/>
      <point x="224" y="522"/>
      <point x="224" y="564" type="curve" smooth="yes"/>
      <point x="224" y="577" type="line" smooth="yes"/>
      <point x="224" y="635"/>
      <point x="268" y="679"/>
      <point x="330" y="679" type="curve" smooth="yes"/>
      <point x="384" y="679"/>
      <point x="431" y="646"/>
      <point x="431" y="587" type="curve" smooth="yes"/>
      <point x="431" y="574" type="line" smooth="yes"/>
      <point x="431" y="516"/>
      <point x="364" y="467"/>
    </contour>
  </outline>
</glyph>
<glyph name="uni0027" format="2">
  <advance width="254"/>
  <unicode hex="0027"/>
  <outline>
    <contour>
      <point x="163" y="485" type="line"/>
      <point x="163" y="777" type="line"/>
      <point x="91" y="777" type="line"/>
      <point x="91" y="485" type="line"/>
    </contour>
  </outline>
</glyph>
<glyph name="uni0028" format="2">
  <advance width="352"/>
  <unicode hex="0028"/>
  <outline>
    <contour>
      <point x="87" y="327" type="curve" smooth="yes"/>
      <point x="87" y="121"/>
      <point x="174" y="-56"/>
      <point x="277" y="-144" type="curve"/>
      <point x="353" y="-144" type="line"/>
      <point x="241" y="-46"/>
      <point x="162" y="133"/>
      <point x="162" y="282" type="curve" smooth="yes"/>
      <point x="162" y="373" type="line" smooth="yes"/>
      <point x="162" y="522"/>
      <point x="241" y="701"/>
      <point x="353" y="799" type="curve"/>
      <point x="277" y="799" type="line"/>
      <point x="174" y="711"/>
      <point x="87" y="533"/>
    </contour>
  </outline>
</glyph>
<glyph name="uni0029" format="2">
  <advance width="352"/>
  <unicode hex="0029"/>
  <outline>
    <contour>
      <point x="265" y="327" type="curve" smooth="yes"/>
      <point x="265" y="533"/>
      <point x="178" y="711"/>
      <point x="75" y="799" type="curve"/>
      <point x="-1" y="799" type="line"/>
      <point x="111" y="701"/>
      <point x="190" y="522"/>
      <point x="190" y="373" type="curve" smooth="yes"/>
      <point x="190" y="282" type="line" smooth="yes"/>
      <point x="190" y="133"/>
      <point x="111" y="-46"/>
      <point x="-1" y="-144" type="curve"/>
      <point x="75" y="-144" type="line"/>
      <point x="178" y="-56"/>
      <point x="265" y="121"/>
    </contour>
  </outline>
</glyph>
<glyph name="uni002E" format="2">
  <advance width="284"/>
  <unicode hex="002E"/>
  <outline>
    <contour>
      <point x="142" y="-13" type="curve" smooth="yes"/>
      <point x="184" y="-13"/>
      <point x="203" y="11"/>
      <point x="203" y="45" type="curve" smooth="yes"/>
      <point x="203" y="58" type="line" smooth="yes"/>
      <point x="203" y="92"/>
      <point x="184" y="116"/>
      <point x="142" y="116" type="curve" smooth="yes"/>
      <point x="100" y="116"/>
      <point x="81" y="92"/>
      <point x="81" y="58" type="curve" smooth="yes"/>
      <point x="81" y="45" type="line" smooth="yes"/>
      <point x="81" y="11"/>
      <point x="100" y="-13"/>
    </contour>
  </outline>
</glyph>
<glyph name="uni002F" format="2">
  <advance width="402"/>
  <unicode hex="002F"/>
  <outline>
    <contour>
      <point x="84" y="-159" type="line"/>
      <point x="358" y="777" type="line"/>
      <point x="286" y="777" type="line"/>
      <point x="12" y="-159" type="line"/>
    </contour>
  </outline>
</glyph>
<glyph name="uni0032" format="2">
  <advance width="630"/>
  <unicode hex="0032"/>
  <outline>
    <contour>
      <point x="559" y="0" type="line"/>
      <point x="559" y="74" type="line"/>
      <point x="171" y="74" type="line"/>
      <point x="373" y="258" type="line" smooth="yes"/>
      <point x="465" y="342"/>
      <point x="531" y="421"/>
      <point x="531" y="533" type="curve" smooth="yes"/>
      <point x="531" y="658"/>
      <point x="449" y="746"/>
      <point x="308" y="746" type="curve" smooth="yes"/>
      <point x="167" y="746"/>
      <point x="102" y="660"/>
      <point x="73" y="574" type="curve"/>
      <point x="148" y="545" type="line"/>
      <point x="168" y="616"/>
      <point x="211" y="671"/>
      <point x="303" y="671" type="curve" smooth="yes"/>
      <point x="397" y="671"/>
      <point x="442" y="614"/>
      <point x="442" y="532" type="curve" smooth="yes"/>
      <point x="442" y="518" type="line" smooth="yes"/>
      <point x="442" y="447"/>
      <point x="390" y="375"/>
      <point x="322" y="311" type="curve" smooth="yes"/>
      <point x="80" y="86" type="line"/>
      <point x="80" y="0" type="line"/>
    </contour>
  </outline>
</glyph>
<glyph name="uni0033" format="2">
  <advance width="630"/>
  <unicode hex="0033"/>
  <outline>
    <contour>
      <point x="195" y="348" type="line"/>
      <point x="282" y="348" type="line" smooth="yes"/>
      <point x="387" y="348"/>
      <point x="442" y="298"/>
      <point x="442" y="210" type="curve" smooth="yes"/>
      <point x="442" y="201" type="line" smooth="yes"/>
      <point x="442" y="113"/>
      <point x="386" y="62"/>
      <point x="282" y="62" type="curve" smooth="yes"/>
      <point x="192" y="62"/>
      <point x="147" y="101"/>
      <point x="109" y="160" type="curve"/>
      <point x="47" y="111" type="line"/>
      <point x="92" y="48"/>
      <point x="157" y="-13"/>
      <point x="283" y="-13" type="curve" smooth="yes"/>
      <point x="432" y="-13"/>
      <point x="530" y="75"/>
      <point x="530" y="201" type="curve" smooth="yes"/>
      <point x="530" y="311"/>
      <point x="456" y="370"/>
      <point x="376" y="385" type="curve"/>
      <point x="376" y="390" type="line"/>
      <point x="454" y="410"/>
      <point x="517" y="466"/>
      <point x="517" y="561" type="curve" smooth="yes"/>
      <point x="517" y="679"/>
      <point x="419" y="746"/>
      <point x="295" y="746" type="curve" smooth="yes"/>
      <point x="178" y="746"/>
      <point x="114" y="686"/>
      <point x="78" y="626" type="curve"/>
      <point x="140" y="577" type="line"/>
      <point x="170" y="635"/>
      <point x="215" y="671"/>
      <point x="293" y="671" type="curve" smooth="yes"/>
      <point x="374" y="671"/>
      <point x="428" y="631"/>
      <point x="428" y="552" type="curve" smooth="yes"/>
      <point x="428" y="544" type="line" smooth="yes"/>
      <point x="428" y="473"/>
      <point x="376" y="421"/>
      <point x="276" y="421" type="curve" smooth="yes"/>
      <point x="195" y="421" type="line"/>
    </contour>
  </outline>
</glyph>
<glyph name="uni0035" format="2">
  <advance width="630"/>
  <unicode hex="0035"/>
  <outline>
    <contour>
      <point x="132" y="733" type="line"/>
      <point x="106" y="331" type="line"/>
      <point x="177" y="320" type="line"/>
      <point x="208" y="356"/>
      <point x="242" y="384"/>
      <point x="310" y="384" type="curve" smooth="yes"/>
      <point x="413" y="384"/>
      <point x="466" y="328"/>
      <point x="466" y="229" type="curve" smooth="yes"/>
      <point x="466" y="217" type="line" smooth="yes"/>
      <point x="466" y="119"/>
      <point x="412" y="62"/>
      <point x="310" y="62" type="curve" smooth="yes"/>
      <point x="221" y="62"/>
      <point x="182" y="101"/>
      <point x="144" y="159" type="curve"/>
      <point x="81" y="111" type="line"/>
      <point x="126" y="48"/>
      <point x="189" y="-13"/>
      <point x="310" y="-13" type="curve" smooth="yes"/>
      <point x="462" y="-13"/>
      <point x="555" y="86"/>
      <point x="555" y="229" type="curve" smooth="yes"/>
      <point x="555" y="371"/>
      <point x="462" y="456"/>
      <point x="337" y="456" type="curve" smooth="yes"/>
      <point x="260" y="456"/>
      <point x="221" y="424"/>
      <point x="186" y="375" type="curve"/>
      <point x="179" y="375" type="line"/>
      <point x="200" y="659" type="line"/>
      <point x="522" y="659" type="line"/>
      <point x="522" y="733" type="line"/>
    </contour>
  </outline>
</glyph>
<glyph name="uni0036" format="2">
  <advance width="630"/>
  <unicode hex="0036"/>
  <outline>
    <contour>
      <point x="316" y="-13" type="curve" smooth="yes"/>
      <point x="461" y="-13"/>
      <point x="558" y="86"/>
      <point x="558" y="229" type="curve" smooth="yes"/>
      <point x="558" y="368"/>
      <point x="467" y="455"/>
      <point x="341" y="455" type="curve" smooth="yes"/>
      <point x="253" y="455"/>
      <point x="199" y="410"/>
      <point x="164" y="350" type="curve"/>
      <point x="159" y="352" type="line"/>
      <point x="198" y="522"/>
      <point x="285" y="618"/>
      <point x="442" y="733" type="curve"/>
      <point x="334" y="733" type="line"/>
      <point x="214" y="655"/>
      <point x="72" y="485"/>
      <point x="72" y="267" type="curve" smooth="yes"/>
      <point x="72" y="95"/>
      <point x="165" y="-13"/>
    </contour>
    <contour>
      <point x="315" y="60" type="curve" smooth="yes"/>
      <point x="216" y="60"/>
      <point x="159" y="117"/>
      <point x="159" y="217" type="curve" smooth="yes"/>
      <point x="159" y="227" type="line" smooth="yes"/>
      <point x="159" y="327"/>
      <point x="215" y="384"/>
      <point x="315" y="384" type="curve" smooth="yes"/>
      <point x="414" y="384"/>
      <point x="471" y="327"/>
      <point x="471" y="227" type="curve" smooth="yes"/>
      <point x="471" y="217" type="line" smooth="yes"/>
      <point x="471" y="117"/>
      <point x="414" y="60"/>
    </contour>
  </outline>
</glyph>
<glyph name="uni0038" format="2">
  <advance width="630"/>
  <unicode hex="0038"/>
  <outline>
    <contour>
      <point x="315" y="-13" type="curve" smooth="yes"/>
      <point x="481" y="-13"/>
      <point x="568" y="78"/>
      <point x="568" y="199" type="curve" smooth="yes"/>
      <point x="568" y="299"/>
      <point x="508" y="357"/>
      <point x="420" y="381" type="curve"/>
      <point x="420" y="389" type="line"/>
      <point x="497" y="414"/>
      <point x="546" y="477"/>
      <point x="546" y="562" type="curve" smooth="yes"/>
      <point x="546" y="673"/>
      <point x="460" y="746"/>
      <point x="315" y="746" type="curve" smooth="yes"/>
      <point x="170" y="746"/>
      <point x="84" y="673"/>
      <point x="84" y="562" type="curve" smooth="yes"/>
      <point x="84" y="477"/>
      <point x="133" y="414"/>
      <point x="210" y="389" type="curve"/>
      <point x="210" y="381" type="line"/>
      <point x="122" y="357"/>
      <point x="62" y="299"/>
      <point x="62" y="199" type="curve" smooth="yes"/>
      <point x="62" y="78"/>
      <point x="149" y="-13"/>
    </contour>
    <contour>
      <point x="315" y="60" type="curve" smooth="yes"/>
      <point x="212" y="60"/>
      <point x="151" y="109"/>
      <point x="151" y="194" type="curve" smooth="yes"/>
      <point x="151" y="216" type="line" smooth="yes"/>
      <point x="151" y="300"/>
      <point x="212" y="350"/>
      <point x="315" y="350" type="curve" smooth="yes"/>
      <point x="418" y="350"/>
      <point x="479" y="300"/>
      <point x="479" y="216" type="curve" smooth="yes"/>
      <point x="479" y="194" type="line" smooth="yes"/>
      <point x="479" y="109"/>
      <point x="418" y="60"/>
    </contour>
    <contour>
      <point x="315" y="420" type="curve" smooth="yes"/>
      <point x="223" y="420"/>
      <point x="171" y="462"/>
      <point x="171" y="538" type="curve" smooth="yes"/>
      <point x="171" y="554" type="line" smooth="yes"/>
      <point x="171" y="631"/>
      <point x="223" y="673"/>
      <point x="315" y="673" type="curve" smooth="yes"/>
      <point x="407" y="673"/>
      <point x="459" y="631"/>
      <point x="459" y="554" type="curve" smooth="yes"/>
      <point x="459" y="538" type="line" smooth="yes"/>
      <point x="459" y="462"/>
      <point x="407" y="420"/>
    </contour>
  </outline>
</glyph>
<glyph name="uni0039" format="2">
  <advance width="630"/>
  <unicode hex="0039"/>
  <outline>
    <contour>
      <point x="296" y="0" type="line"/>
      <point x="416" y="78"/>
      <point x="558" y="248"/>
      <point x="558" y="466" type="curve" smooth="yes"/>
      <point x="558" y="638"/>
      <point x="465" y="746"/>
      <point x="314" y="746" type="curve" smooth="yes"/>
      <point x="169" y="746"/>
      <point x="72" y="647"/>
      <point x="72" y="504" type="curve" smooth="yes"/>
      <point x="72" y="365"/>
      <point x="163" y="278"/>
      <point x="289" y="278" type="curve" smooth="yes"/>
      <point x="378" y="278"/>
      <point x="431" y="323"/>
      <point x="466" y="383" type="curve"/>
      <point x="471" y="381" type="line"/>
      <point x="432" y="211"/>
      <point x="345" y="115"/>
      <point x="188" y="0" type="curve"/>
    </contour>
    <contour>
      <point x="315" y="349" type="curve" smooth="yes"/>
      <point x="216" y="349"/>
      <point x="159" y="406"/>
      <point x="159" y="506" type="curve" smooth="yes"/>
      <point x="159" y="516" type="line" smooth="yes"/>
      <point x="159" y="616"/>
      <point x="216" y="673"/>
      <point x="315" y="673" type="curve" smooth="yes"/>
      <point x="414" y="673"/>
      <point x="471" y="616"/>
      <point x="471" y="516" type="curve" smooth="yes"/>
      <point x="471" y="506" type="line" smooth="yes"/>
      <point x="471" y="406"/>
      <point x="415" y="349"/>
    </contour>
  </outline>
</glyph>
<glyph name="uni003C" format="2">
  <advance width="630"/>
  <unicode hex="003C"/>
  <outline>
    <contour>
      <point x="535" y="-13" type="line"/>
      <point x="535" y="72" type="line"/>
      <point x="170" y="288" type="line"/>
      <point x="170" y="296" type="line"/>
      <point x="535" y="513" type="line"/>
      <point x="535" y="597" type="line"/>
      <point x="95" y="332" type="line"/>
      <point x="95" y="252" type="line"/>
    </contour>
  </outline>
</glyph>
<glyph name="uni003E" format="2">
  <advance width="630"/>
  <unicode hex="003E"/>
  <outline>
    <contour>
      <point x="535" y="332" type="line"/>
      <point x="95" y="597" type="line"/>
      <point x="95" y="513" type="line"/>
      <point x="460" y="296" type="line"/>
      <point x="460" y="288" type="line"/>
      <point x="95" y="72" type="line"/>
      <point x="95" y="-13" type="line"/>
      <point x="535" y="252" type="line"/>
    </contour>
  </outline>
</glyph>
<glyph name="uni0040" format="2">
  <advance width="935"/>
  <unicode hex="0040"/>
  <outline>
    <contour>
      <point x="713" y="-126" type="line"/>
      <point x="713" y="-65" type="line"/>
      <point x="470" y="-65" type="line" smooth="yes"/>
      <point x="270" y="-65"/>
      <point x="136" y="76"/>
      <point x="136" y="276" type="curve" smooth="yes"/>
      <point x="136" y="337" type="line" smooth="yes"/>
      <point x="136" y="532"/>
      <point x="275" y="683"/>
      <point x="477" y="683" type="curve" smooth="yes"/>
      <point x="659" y="683"/>
      <point x="800" y="560"/>
      <point x="800" y="374" type="curve" smooth="yes"/>
      <point x="800" y="326" type="line" smooth="yes"/>
      <point x="800" y="207"/>
      <point x="764" y="135"/>
      <point x="698" y="135" type="curve" smooth="yes"/>
      <point x="658" y="135"/>
      <point x="639" y="150"/>
      <point x="639" y="204" type="curve" smooth="yes"/>
      <point x="639" y="525" type="line"/>
      <point x="570" y="525" type="line"/>
      <point x="570" y="454" type="line"/>
      <point x="566" y="454" type="line"/>
      <point x="547" y="499"/>
      <point x="509" y="534"/>
      <point x="445" y="534" type="curve" smooth="yes"/>
      <point x="348" y="534"/>
      <point x="263" y="460"/>
      <point x="263" y="303" type="curve" smooth="yes"/>
      <point x="263" y="147"/>
      <point x="348" y="73"/>
      <point x="445" y="73" type="curve" smooth="yes"/>
      <point x="509" y="73"/>
      <point x="549" y="108"/>
      <point x="575" y="163" type="curve"/>
      <point x="580" y="163" type="line"/>
      <point x="586" y="110"/>
      <point x="620" y="73"/>
      <point x="686" y="73" type="curve" smooth="yes"/>
      <point x="816" y="73"/>
      <point x="866" y="195"/>
      <point x="866" y="339" type="curve" smooth="yes"/>
      <point x="866" y="628"/>
      <point x="676" y="743"/>
      <point x="478" y="743" type="curve" smooth="yes"/>
      <point x="233" y="743"/>
      <point x="69" y="564"/>
      <point x="69" y="303" type="curve" smooth="yes"/>
      <point x="69" y="43"/>
      <point x="230" y="-126"/>
      <point x="469" y="-126" type="curve" smooth="yes"/>
    </contour>
    <contour>
      <point x="459" y="139" type="curve" smooth="yes"/>
      <point x="383" y="139"/>
      <point x="347" y="188"/>
      <point x="347" y="262" type="curve" smooth="yes"/>
      <point x="347" y="344" type="line" smooth="yes"/>
      <point x="347" y="419"/>
      <point x="383" y="468"/>
      <point x="459" y="468" type="curve" smooth="yes"/>
      <point x="533" y="468"/>
      <point x="570" y="426"/>
      <point x="570" y="371" type="curve" smooth="yes"/>
      <point x="570" y="242" type="line" smooth="yes"/>
      <point x="570" y="177"/>
      <point x="532" y="139"/>
    </contour>
  </outline>
</glyph>
<glyph name="uni0041" format="2">
  <advance width="671"/>
  <unicode hex="0041"/>
  <outline>
    <contour>
      <point x="110" y="0" type="line"/>
      <point x="186" y="219" type="line"/>
      <point x="482" y="219" type="line"/>
      <point x="558" y="0" type="line"/>
      <point x="646" y="0" type="line"/>
      <point x="390" y="733" type="line"/>
      <point x="281" y="733" type="line"/>
      <point x="25" y="0" type="line"/>
    </contour>
    <contour>
      <point x="332" y="656" type="line"/>
      <point x="337" y="656" type="line"/>
      <point x="462" y="293" type="line"/>
      <point x="205" y="293" type="line"/>
    </contour>
  </outline>
</glyph>
<glyph name="uni0042" format="2">
  <advance width="684"/>
  <unicode hex="0042"/>
  <outline>
    <contour>
      <point x="429" y="0" type="line" smooth="yes"/>
      <point x="538" y="0"/>
      <point x="617" y="90"/>
      <point x="617" y="211" type="curve" smooth="yes"/>
      <point x="617" y="332"/>
      <point x="528" y="379"/>
      <point x="474" y="382" type="curve"/>
      <point x="474" y="389" type="line"/>
      <point x="523" y="397"/>
      <point x="592" y="436"/>
      <point x="592" y="545" type="curve" smooth="yes"/>
      <point x="592" y="659"/>
      <point x="518" y="733"/>
      <point x="398" y="733" type="curve" smooth="yes"/>
      <point x="99" y="733" type="line"/>
      <point x="99" y="0" type="line"/>
    </contour>
    <contour>
      <point x="183" y="342" type="line"/>
      <point x="403" y="342" type="line" smooth="yes"/>
      <point x="481" y="342"/>
      <point x="527" y="300"/>
      <point x="527" y="227" type="curve" smooth="yes"/>
      <point x="527" y="190" type="line" smooth="yes"/>
      <point x="527" y="116"/>
      <point x="481" y="74"/>
      <point x="403" y="74" type="curve" smooth="yes"/>
      <point x="183" y="74" type="line"/>
    </contour>
    <contour>
      <point x="183" y="659" type="line"/>
      <point x="388" y="659" type="line" smooth="yes"/>
      <point x="460" y="659"/>
      <point x="502" y="621"/>
      <point x="502" y="554" type="curve" smooth="yes"/>
      <point x="502" y="519" type="line" smooth="yes"/>
      <point x="502" y="452"/>
      <point x="460" y="414"/>
      <point x="388" y="414" type="curve" smooth="yes"/>
      <point x="183" y="414" type="line"/>
    </contour>
  </outline>
</glyph>
<glyph name="uni0043" format="2">
  <advance width="650"/>
  <unicode hex="0043"/>
  <outline>
    <contour>
      <point x="354" y="-13" type="curve" smooth="yes"/>
      <point x="476" y="-13"/>
      <point x="565" y="51"/>
      <point x="610" y="154" type="curve"/>
      <point x="543" y="196" type="line"/>
      <point x="512" y="115"/>
      <point x="448" y="62"/>
      <point x="354" y="62" type="curve" smooth="yes"/>
      <point x="226" y="62"/>
      <point x="151" y="155"/>
      <point x="151" y="310" type="curve" smooth="yes"/>
      <point x="151" y="416" type="line" smooth="yes"/>
      <point x="151" y="571"/>
      <point x="226" y="671"/>
      <point x="354" y="671" type="curve" smooth="yes"/>
      <point x="445" y="671"/>
      <point x="506" y="621"/>
      <point x="537" y="545" type="curve"/>
      <point x="605" y="586" type="line"/>
      <point x="559" y="687"/>
      <point x="476" y="746"/>
      <point x="354" y="746" type="curve" smooth="yes"/>
      <point x="170" y="746"/>
      <point x="61" y="608"/>
      <point x="61" y="362" type="curve" smooth="yes"/>
      <point x="61" y="118"/>
      <point x="170" y="-13"/>
    </contour>
  </outline>
</glyph>
<glyph name="uni0044" format="2">
  <advance width="703"/>
  <unicode hex="0044"/>
  <outline>
    <contour>
      <point x="342" y="0" type="line" smooth="yes"/>
      <point x="526" y="0"/>
      <point x="642" y="122"/>
      <point x="642" y="366" type="curve" smooth="yes"/>
      <point x="642" y="611"/>
      <point x="526" y="733"/>
      <point x="342" y="733" type="curve" smooth="yes"/>
      <point x="99" y="733" type="line"/>
      <point x="99" y="0" type="line"/>
    </contour>
    <contour>
      <point x="183" y="659" type="line"/>
      <point x="342" y="659" type="line" smooth="yes"/>
      <point x="467" y="659"/>
      <point x="552" y="573"/>
      <point x="552" y="425" type="curve" smooth="yes"/>
      <point x="552" y="308" type="line" smooth="yes"/>
      <point x="552" y="160"/>
      <point x="467" y="74"/>
      <point x="342" y="74" type="curve" smooth="yes"/>
      <point x="183" y="74" type="line"/>
    </contour>
  </outline>
</glyph>
<glyph name="uni0045" format="2">
  <advance width="611"/>
  <unicode hex="0045"/>
  <outline>
    <contour>
      <point x="543" y="74" type="line"/>
      <point x="183" y="74" type="line"/>
      <point x="183" y="335" type="line"/>
      <point x="523" y="335" type="line"/>
      <point x="523" y="409" type="line"/>
      <point x="183" y="409" type="line"/>
      <point x="183" y="659" type="line"/>
      <point x="543" y="659" type="line"/>
      <point x="543" y="733" type="line"/>
      <point x="99" y="733" type="line"/>
      <point x="99" y="0" type="line"/>
      <point x="543" y="0" type="line"/>
    </contour>
  </outline>
</glyph>
<glyph name="uni0047" format="2">
  <advance width="727"/>
  <unicode hex="0047"/>
  <outline>
    <contour>
      <point x="364" y="-13" type="curve" smooth="yes"/>
      <point x="477" y="-13"/>
      <point x="551" y="39"/>
      <point x="570" y="108" type="curve"/>
      <point x="573" y="108" type="line"/>
      <point x="573" y="0" type="line"/>
      <point x="651" y="0" type="line"/>
      <point x="651" y="376" type="line"/>
      <point x="405" y="376" type="line"/>
      <point x="405" y="302" type="line"/>
      <point x="569" y="302" type="line"/>
      <point x="569" y="226" type="line" smooth="yes"/>
      <point x="569" y="116"/>
      <point x="483" y="62"/>
      <point x="379" y="62" type="curve" smooth="yes"/>
      <point x="238" y="62"/>
      <point x="151" y="160"/>
      <point x="151" y="310" type="curve" smooth="yes"/>
      <point x="151" y="424" type="line" smooth="yes"/>
      <point x="151" y="574"/>
      <point x="239" y="671"/>
      <point x="371" y="671" type="curve" smooth="yes"/>
      <point x="464" y="671"/>
      <point x="532" y="622"/>
      <point x="567" y="544" type="curve"/>
      <point x="636" y="586" type="line"/>
      <point x="589" y="680"/>
      <point x="501" y="746"/>
      <point x="371" y="746" type="curve" smooth="yes"/>
      <point x="183" y="746"/>
      <point x="61" y="610"/>
      <point x="61" y="366" type="curve" smooth="yes"/>
      <point x="61" y="121"/>
      <point x="184" y="-13"/>
    </contour>
  </outline>
</glyph>
<glyph name="uni004C" format="2">
  <advance width="525"/>
  <unicode hex="004C"/>
  <outline>
    <contour>
      <point x="497" y="74" type="line"/>
      <point x="183" y="74" type="line"/>
      <point x="183" y="733" type="line"/>
      <point x="99" y="733" type="line"/>
      <point x="99" y="0" type="line"/>
      <point x="497" y="0" type="line"/>
    </contour>
  </outline>
</glyph>
<glyph name="uni0051" format="2">
  <advance width="741"/>
  <unicode hex="0051"/>
  <outline>
    <contour>
      <point x="529" y="-171" type="line"/>
      <point x="529" y="-101" type="line"/>
      <point x="417" y="-101" type="line"/>
      <point x="417" y="-10" type="line"/>
      <point x="579" y="11"/>
      <point x="680" y="142"/>
      <point x="680" y="366" type="curve" smooth="yes"/>
      <point x="680" y="612"/>
      <point x="559" y="746"/>
      <point x="370" y="746" type="curve" smooth="yes"/>
      <point x="182" y="746"/>
      <point x="61" y="612"/>
      <point x="61" y="366" type="curve" smooth="yes"/>
      <point x="61" y="136"/>
      <point x="167" y="3"/>
      <point x="337" y="-12" type="curve"/>
      <point x="337" y="-88" type="line" smooth="yes"/>
      <point x="337" y="-135"/>
      <point x="366" y="-171"/>
      <point x="421" y="-171" type="curve" smooth="yes"/>
    </contour>
    <contour>
      <point x="371" y="62" type="curve" smooth="yes"/>
      <point x="241" y="62"/>
      <point x="151" y="158"/>
      <point x="151" y="308" type="curve" smooth="yes"/>
      <point x="151" y="425" type="line" smooth="yes"/>
      <point x="151" y="575"/>
      <point x="241" y="671"/>
      <point x="371" y="671" type="curve" smooth="yes"/>
      <point x="501" y="671"/>
      <point x="590" y="575"/>
      <point x="590" y="425" type="curve" smooth="yes"/>
      <point x="590" y="308" type="line" smooth="yes"/>
      <point x="590" y="158"/>
      <point x="501" y="62"/>
    </contour>
  </outline>
</glyph>
<glyph name="uni0053" format="2">
  <advance width="608"/>
  <unicode hex="0053"/>
  <outline>
    <contour>
      <point x="302" y="-13" type="curve" smooth="yes"/>
      <point x="459" y="-13"/>
      <point x="553" y="73"/>
      <point x="553" y="207" type="curve" smooth="yes"/>
      <point x="553" y="314"/>
      <point x="493" y="378"/>
      <point x="350" y="410" type="curve" smooth="yes"/>
      <point x="289" y="423" type="line" smooth="yes"/>
      <point x="195" y="444"/>
      <point x="149" y="476"/>
      <point x="149" y="549" type="curve" smooth="yes"/>
      <point x="149" y="630"/>
      <point x="207" y="672"/>
      <point x="304" y="672" type="curve" smooth="yes"/>
      <point x="389" y="672"/>
      <point x="445" y="637"/>
      <point x="485" y="582" type="curve"/>
      <point x="548" y="627" type="line"/>
      <point x="495" y="704"/>
      <point x="418" y="746"/>
      <point x="308" y="746" type="curve" smooth="yes"/>
      <point x="164" y="746"/>
      <point x="66" y="676"/>
      <point x="66" y="546" type="curve" smooth="yes"/>
      <point x="66" y="435"/>
      <point x="138" y="375"/>
      <point x="272" y="345" type="curve" smooth="yes"/>
      <point x="332" y="331" type="line" smooth="yes"/>
      <point x="429" y="310"/>
      <point x="470" y="275"/>
      <point x="470" y="203" type="curve" smooth="yes"/>
      <point x="470" y="116"/>
      <point x="413" y="61"/>
      <point x="306" y="61" type="curve" smooth="yes"/>
      <point x="220" y="61"/>
      <point x="158" y="98"/>
      <point x="107" y="166" type="curve"/>
      <point x="44" y="116" type="line"/>
      <point x="103" y="36"/>
      <point x="185" y="-13"/>
    </contour>
  </outline>
</glyph>
<glyph name="uni0057" format="2">
  <advance width="936"/>
  <unicode hex="0057"/>
  <outline>
    <contour>
      <point x="295" y="0" type="line"/>
      <point x="464" y="639" type="line"/>
      <point x="464" y="639" type="line"/>
      <point x="466" y="639" type="line"/>
      <point x="466" y="639" type="line"/>
      <point x="631" y="0" type="line"/>
      <point x="724" y="0" type="line"/>
      <point x="912" y="733" type="line"/>
      <point x="826" y="733" type="line"/>
      <point x="678" y="102" type="line"/>
      <point x="678" y="102" type="line"/>
      <point x="675" y="102" type="line"/>
      <point x="675" y="102" type="line"/>
      <point x="515" y="733" type="line"/>
      <point x="419" y="733" type="line"/>
      <point x="255" y="101" type="line"/>
      <point x="255" y="101" type="line"/>
      <point x="253" y="101" type="line"/>
      <point x="253" y="101" type="line"/>
      <point x="111" y="733" type="line"/>
      <point x="22" y="733" type="line"/>
      <point x="202" y="0" type="line"/>
    </contour>
  </outline>
</glyph>
<glyph name="uni0058" format="2">
  <advance width="634"/>
  <unicode hex="0058"/>
  <outline>
    <contour>
      <point x="317" y="312" type="line"/>
      <point x="321" y="312" type="line"/>
      <point x="520" y="0" type="line"/>
      <point x="621" y="0" type="line"/>
      <point x="375" y="377" type="line"/>
      <point x="610" y="733" type="line"/>
      <point x="514" y="733" type="line"/>
      <point x="325" y="439" type="line"/>
      <point x="322" y="439" type="line"/>
      <point x="133" y="733" type="line"/>
      <point x="32" y="733" type="line"/>
      <point x="268" y="374" type="line"/>
      <point x="22" y="0" type="line"/>
      <point x="118" y="0" type="line"/>
    </contour>
  </outline>
</glyph>
<glyph name="uni0059" format="2">
  <advance width="620"/>
  <unicode hex="0059"/>
  <outline>
    <contour>
      <point x="350" y="294" type="line"/>
      <point x="605" y="733" type="line"/>
      <point x="509" y="733" type="line"/>
      <point x="312" y="378" type="line"/>
      <point x="309" y="378" type="line"/>
      <point x="110" y="733" type="line"/>
      <point x="14" y="733" type="line"/>
      <point x="266" y="291" type="line"/>
      <point x="266" y="0" type="line"/>
      <point x="350" y="0" type="line"/>
    </contour>
  </outline>
</glyph>
<glyph name="uni005C" format="2">
  <advance width="402"/>
  <unicode hex="005C"/>
  <outline>
    <contour>
      <point x="388" y="-159" type="line"/>
      <point x="114" y="777" type="line"/>
      <point x="42" y="777" type="line"/>
      <point x="316" y="-159" type="line"/>
    </contour>
  </outline>
</glyph>
<glyph name="uni005D" format="2">
  <advance width="333"/>
  <unicode hex="005D"/>
  <outline>
    <contour>
      <point x="234" y="798" type="line"/>
      <point x="66" y="798" type="line"/>
      <point x="66" y="735" type="line"/>
      <point x="165" y="735" type="line"/>
      <point x="165" y="-82" type="line"/>
      <point x="66" y="-82" type="line"/>
      <point x="66" y="-145" type="line"/>
      <point x="234" y="-145" type="line"/>
    </contour>
  </outline>
</glyph>
<glyph name="uni0061" format="2">
  <advance width="561"/>
  <unicode hex="0061"/>
  <outline>
    <contour>
      <point x="228" y="-13" type="curve" smooth="yes"/>
      <point x="304" y="-13"/>
      <point x="363" y="22"/>
      <point x="387" y="90" type="curve"/>
      <point x="392" y="90" type="line"/>
      <point x="392" y="88" type="line"/>
      <point x="392" y="36"/>
      <point x="422" y="0"/>
      <point x="485" y="0" type="curve" smooth="yes"/>
      <point x="528" y="0" type="line"/>
      <point x="528" y="70" type="line"/>
      <point x="466" y="70" type="line"/>
      <point x="466" y="372" type="line" smooth="yes"/>
      <point x="466" y="486"/>
      <point x="390" y="554"/>
      <point x="260" y="554" type="curve" smooth="yes"/>
      <point x="163" y="554"/>
      <point x="98" y="506"/>
      <point x="68" y="448" type="curve"/>
      <point x="116" y="403" type="line"/>
      <point x="146" y="453"/>
      <point x="190" y="485"/>
      <point x="256" y="485" type="curve" smooth="yes"/>
      <point x="343" y="485"/>
      <point x="386" y="442"/>
      <point x="386" y="363" type="curve" smooth="yes"/>
      <point x="386" y="309" type="line"/>
      <point x="277" y="309" type="line" smooth="yes"/>
      <point x="121" y="309"/>
      <point x="48" y="252"/>
      <point x="48" y="151" type="curve" smooth="yes"/>
      <point x="48" y="50"/>
      <point x="114" y="-13"/>
    </contour>
    <contour>
      <point x="242" y="55" type="curve" smooth="yes"/>
      <point x="175" y="55"/>
      <point x="132" y="86"/>
      <point x="132" y="143" type="curve" smooth="yes"/>
      <point x="132" y="165" type="line" smooth="yes"/>
      <point x="132" y="218"/>
      <point x="176" y="249"/>
      <point x="273" y="249" type="curve" smooth="yes"/>
      <point x="386" y="249" type="line"/>
      <point x="386" y="158" type="line" smooth="yes"/>
      <point x="386" y="100"/>
      <point x="325" y="55"/>
    </contour>
  </outline>
</glyph>
<glyph name="uni0062" format="2">
  <advance width="608"/>
  <unicode hex="0062"/>
  <outline>
    <contour>
      <point x="335" y="-13" type="curve" smooth="yes"/>
      <point x="469" y="-13"/>
      <point x="554" y="97"/>
      <point x="554" y="271" type="curve" smooth="yes"/>
      <point x="554" y="444"/>
      <point x="469" y="554"/>
      <point x="335" y="554" type="curve" smooth="yes"/>
      <point x="258" y="554"/>
      <point x="203" y="521"/>
      <point x="175" y="454" type="curve"/>
      <point x="171" y="454" type="line"/>
      <point x="171" y="777" type="line"/>
      <point x="91" y="777" type="line"/>
      <point x="91" y="0" type="line"/>
      <point x="171" y="0" type="line"/>
      <point x="171" y="87" type="line"/>
      <point x="175" y="87" type="line"/>
      <point x="207" y="21"/>
      <point x="258" y="-13"/>
    </contour>
    <contour>
      <point x="313" y="59" type="curve" smooth="yes"/>
      <point x="235" y="59"/>
      <point x="171" y="100"/>
      <point x="171" y="172" type="curve" smooth="yes"/>
      <point x="171" y="375" type="line" smooth="yes"/>
      <point x="171" y="438"/>
      <point x="235" y="482"/>
      <point x="313" y="482" type="curve" smooth="yes"/>
      <point x="408" y="482"/>
      <point x="468" y="416"/>
      <point x="468" y="316" type="curve" smooth="yes"/>
      <point x="468" y="226" type="line" smooth="yes"/>
      <point x="468" y="125"/>
      <point x="408" y="59"/>
    </contour>
  </outline>
</glyph>
<glyph name="uni0066" format="2">
  <advance width="338"/>
  <unicode hex="0066"/>
  <outline>
    <contour>
      <point x="200" y="0" type="line"/>
      <point x="200" y="471" type="line"/>
      <point x="317" y="471" type="line"/>
      <point x="317" y="541" type="line"/>
      <point x="200" y="541" type="line"/>
      <point x="200" y="707" type="line"/>
      <point x="317" y="707" type="line"/>
      <point x="317" y="777" type="line"/>
      <point x="233" y="777" type="line" smooth="yes"/>
      <point x="157" y="777"/>
      <point x="120" y="728"/>
      <point x="120" y="656" type="curve" smooth="yes"/>
      <point x="120" y="541" type="line"/>
      <point x="30" y="541" type="line"/>
      <point x="30" y="471" type="line"/>
      <point x="120" y="471" type="line"/>
      <point x="120" y="0" type="line"/>
    </contour>
  </outline>
</glyph>
<glyph name="uni0068" format="2">
  <advance width="595"/>
  <unicode hex="0068"/>
  <outline>
    <contour>
      <point x="171" y="0" type="line"/>
      <point x="171" y="375" type="line" smooth="yes"/>
      <point x="171" y="447"/>
      <point x="237" y="481"/>
      <point x="306" y="481" type="curve" smooth="yes"/>
      <point x="387" y="481"/>
      <point x="430" y="431"/>
      <point x="430" y="332" type="curve" smooth="yes"/>
      <point x="430" y="0" type="line"/>
      <point x="510" y="0" type="line"/>
      <point x="510" y="348" type="line" smooth="yes"/>
      <point x="510" y="479"/>
      <point x="440" y="553"/>
      <point x="329" y="553" type="curve" smooth="yes"/>
      <point x="248" y="553"/>
      <point x="201" y="514"/>
      <point x="175" y="454" type="curve"/>
      <point x="171" y="454" type="line"/>
      <point x="171" y="777" type="line"/>
      <point x="91" y="777" type="line"/>
      <point x="91" y="0" type="line"/>
    </contour>
  </outline>
</glyph>
<glyph name="uni006B" format="2">
  <advance width="550"/>
  <unicode hex="006B"/>
  <outline>
    <contour>
      <point x="171" y="0" type="line"/>
      <point x="171" y="193" type="line"/>
      <point x="252" y="277" type="line"/>
      <point x="436" y="0" type="line"/>
      <point x="533" y="0" type="line"/>
      <point x="310" y="327" type="line"/>
      <point x="513" y="541" type="line"/>
      <point x="416" y="541" type="line"/>
      <point x="175" y="281" type="line"/>
      <point x="175" y="281" type="line"/>
      <point x="171" y="281" type="line"/>
      <point x="171" y="777" type="line"/>
      <point x="91" y="777" type="line"/>
      <point x="91" y="0" type="line"/>
    </contour>
  </outline>
</glyph>
<glyph name="uni006C" format="2">
  <advance width="285"/>
  <unicode hex="006C"/>
  <outline>
    <contour>
      <point x="251" y="70" type="line"/>
      <point x="171" y="70" type="line"/>
      <point x="171" y="777" type="line"/>
      <point x="91" y="777" type="line"/>
      <point x="91" y="84" type="line" smooth="yes"/>
      <point x="91" y="36"/>
      <point x="122" y="0"/>
      <point x="178" y="0" type="curve" smooth="yes"/>
      <point x="251" y="0" type="line"/>
    </contour>
  </outline>
</glyph>
<glyph name="uni0073" format="2">
  <advance width="510"/>
  <unicode hex="0073"/>
  <outline>
    <contour>
      <point x="252" y="-13" type="curve" smooth="yes"/>
      <point x="375" y="-13"/>
      <point x="452" y="50"/>
      <point x="452" y="155" type="curve" smooth="yes"/>
      <point x="452" y="237"/>
      <point x="404" y="290"/>
      <point x="286" y="307" type="curve" smooth="yes"/>
      <point x="244" y="313" type="line"/>
      <point x="174" y="325"/>
      <point x="137" y="346"/>
      <point x="137" y="400" type="curve" smooth="yes"/>
      <point x="137" y="453"/>
      <point x="175" y="486"/>
      <point x="247" y="486" type="curve" smooth="yes"/>
      <point x="316" y="486"/>
      <point x="362" y="453"/>
      <point x="387" y="419" type="curve"/>
      <point x="440" y="467" type="line"/>
      <point x="397" y="521"/>
      <point x="339" y="554"/>
      <point x="252" y="554" type="curve" smooth="yes"/>
      <point x="143" y="554"/>
      <point x="60" y="502"/>
      <point x="60" y="396" type="curve" smooth="yes"/>
      <point x="60" y="296"/>
      <point x="134" y="254"/>
      <point x="233" y="240" type="curve" smooth="yes"/>
      <point x="276" y="234" type="line" smooth="yes"/>
      <point x="350" y="224"/>
      <point x="375" y="191"/>
      <point x="375" y="146" type="curve" smooth="yes"/>
      <point x="375" y="88"/>
      <point x="332" y="55"/>
      <point x="257" y="55" type="curve" smooth="yes"/>
      <point x="189" y="55"/>
      <point x="139" y="85"/>
      <point x="97" y="140" type="curve"/>
      <point x="39" y="93" type="line"/>
      <point x="87" y="28"/>
      <point x="153" y="-13"/>
    </contour>
  </outline>
</glyph>
<glyph name="uni0074" format="2">
  <advance width="367"/>
  <unicode hex="0074"/>
  <outline>
    <contour>
      <point x="312" y="0" type="line"/>
      <point x="312" y="70" type="line"/>
      <point x="201" y="70" type="line"/>
      <point x="201" y="471" type="line"/>
      <point x="320" y="471" type="line"/>
      <point x="320" y="541" type="line"/>
      <point x="201" y="541" type="line"/>
      <point x="201" y="692" type="line"/>
      <point x="128" y="692" type="line"/>
      <point x="128" y="589" type="line" smooth="yes"/>
      <point x="128" y="553"/>
      <point x="117" y="541"/>
      <point x="82" y="541" type="curve" smooth="yes"/>
      <point x="30" y="541" type="line"/>
      <point x="30" y="471" type="line"/>
      <point x="121" y="471" type="line"/>
      <point x="121" y="86" type="line" smooth="yes"/>
      <point x="121" y="36"/>
      <point x="150" y="0"/>
      <point x="206" y="0" type="curve" smooth="yes"/>
    </contour>
  </outline>
</glyph>
<glyph name="uni0075" format="2">
  <advance width="595"/>
  <unicode hex="0075"/>
  <outline>
    <contour>
      <point x="266" y="-12" type="curve" smooth="yes"/>
      <point x="347" y="-12"/>
      <point x="394" y="27"/>
      <point x="420" y="87" type="curve"/>
      <point x="424" y="87" type="line"/>
      <point x="424" y="0" type="line"/>
      <point x="504" y="0" type="line"/>
      <point x="504" y="541" type="line"/>
      <point x="424" y="541" type="line"/>
      <point x="424" y="166" type="line" smooth="yes"/>
      <point x="424" y="94"/>
      <point x="358" y="60"/>
      <point x="289" y="60" type="curve" smooth="yes"/>
      <point x="208" y="60"/>
      <point x="165" y="110"/>
      <point x="165" y="209" type="curve" smooth="yes"/>
      <point x="165" y="541" type="line"/>
      <point x="85" y="541" type="line"/>
      <point x="85" y="193" type="line" smooth="yes"/>
      <point x="85" y="62"/>
      <point x="155" y="-12"/>
    </contour>
  </outline>
</glyph>
<glyph name="uni0077" format="2">
  <advance width="804"/>
  <unicode hex="0077"/>
  <outline>
    <contour>
      <point x="276" y="0" type="line"/>
      <point x="400" y="429" type="line"/>
      <point x="400" y="429" type="line"/>
      <point x="402" y="429" type="line"/>
      <point x="402" y="429" type="line"/>
      <point x="527" y="0" type="line"/>
      <point x="626" y="0" type="line"/>
      <point x="771" y="541" type="line"/>
      <point x="696" y="541" type="line"/>
      <point x="579" y="68" type="line"/>
      <point x="579" y="68" type="line"/>
      <point x="577" y="68" type="line"/>
      <point x="577" y="68" type="line"/>
      <point x="437" y="541" type="line"/>
      <point x="366" y="541" type="line"/>
      <point x="231" y="68" type="line"/>
      <point x="231" y="68" type="line"/>
      <point x="229" y="68" type="line"/>
      <point x="229" y="68" type="line"/>
      <point x="111" y="541" type="line"/>
      <point x="33" y="541" type="line"/>
      <point x="179" y="0" type="line"/>
    </contour>
  </outline>
</glyph>
<glyph name="uni0078" format="2">
  <advance width="530"/>
  <unicode hex="0078"/>
  <outline>
    <contour>
      <point x="113" y="0" type="line"/>
      <point x="267" y="214" type="line"/>
      <point x="270" y="214" type="line"/>
      <point x="413" y="0" type="line"/>
      <point x="507" y="0" type="line"/>
      <point x="312" y="278" type="line"/>
      <point x="503" y="541" type="line"/>
      <point x="414" y="541" type="line"/>
      <point x="269" y="337" type="line"/>
      <point x="266" y="337" type="line"/>
      <point x="126" y="541" type="line"/>
      <point x="32" y="541" type="line"/>
      <point x="225" y="273" type="line"/>
      <point x="24" y="0" type="line"/>
    </contour>
  </outline>
</glyph>
<glyph name="uni007B" format="2">
  <advance width="360"/>
  <unicode hex="007B"/>
  <outline>
    <contour>
      <point x="296" y="-145" type="line"/>
      <point x="296" y="-82" type="line"/>
      <point x="196" y="-82" type="line"/>
      <point x="196" y="185" type="line" smooth="yes"/>
      <point x="196" y="251"/>
      <point x="155" y="308"/>
      <point x="97" y="318" type="curve"/>
      <point x="97" y="334" type="line"/>
      <point x="155" y="344"/>
      <point x="196" y="402"/>
      <point x="196" y="468" type="curve" smooth="yes"/>
      <point x="196" y="735" type="line"/>
      <point x="296" y="735" type="line"/>
      <point x="296" y="798" type="line"/>
      <point x="208" y="798" type="line" smooth="yes"/>
      <point x="154" y="798"/>
      <point x="127" y="762"/>
      <point x="127" y="715" type="curve" smooth="yes"/>
      <point x="127" y="459" type="line" smooth="yes"/>
      <point x="127" y="397"/>
      <point x="84" y="364"/>
      <point x="26" y="364" type="curve"/>
      <point x="26" y="288" type="line"/>
      <point x="84" y="288"/>
      <point x="127" y="255"/>
      <point x="127" y="194" type="curve" smooth="yes"/>
      <point x="127" y="-62" type="line" smooth="yes"/>
      <point x="127" y="-109"/>
      <point x="154" y="-145"/>
      <point x="208" y="-145" type="curve" smooth="yes"/>
    </contour>
  </outline>
</glyph>
<glyph name="uni007E" format="2">
  <advance width="630"/>
  <unicode hex="007E"/>
  <unicode hex="223C"/>
  <outline>
    <contour>
      <point x="440" y="249" type="curve" smooth="yes"/>
      <point x="502" y="249"/>
      <point x="537" y="272"/>
      <point x="566" y="307" type="curve"/>
      <point x="532" y="351" type="line"/>
      <point x="501" y="328"/>
      <point x="479" y="317"/>
      <point x="444" y="317" type="curve" smooth="yes"/>
      <point x="401" y="317"/>
      <point x="365" y="334"/>
      <point x="326" y="353" type="curve" smooth="yes"/>
      <point x="277" y="377"/>
      <point x="240" y="392"/>
      <point x="190" y="392" type="curve" smooth="yes"/>
      <point x="128" y="392"/>
      <point x="93" y="369"/>
      <point x="64" y="334" type="curve"/>
      <point x="98" y="290" type="line"/>
      <point x="129" y="313"/>
      <point x="151" y="324"/>
      <point x="186" y="324" type="curve" smooth="yes"/>
      <point x="229" y="324"/>
      <point x="265" y="307"/>
      <point x="304" y="288" type="curve" smooth="yes"/>
      <point x="353" y="264"/>
      <point x="390" y="249"/>
    </contour>
  </outline>
</glyph>
<glyph name="uni00A5" format="2">
  <advance width="635"/>
  <unicode hex="00A5"/>
  <outline>
    <contour>
      <point x="359" y="0" type="line"/>
      <point x="359" y="154" type="line"/>
      <point x="543" y="154" type="line"/>
      <point x="543" y="221" type="line"/>
      <point x="359" y="221" type="line"/>
      <point x="359" y="325" type="line"/>
      <point x="543" y="325" type="line"/>
      <point x="543" y="392" type="line"/>
      <point x="399" y="392" type="line"/>
      <point x="598" y="733" type="line"/>
      <point x="505" y="733" type="line"/>
      <point x="323" y="400" type="line"/>
      <point x="318" y="400" type="line"/>
      <point x="131" y="733" type="line"/>
      <point x="37" y="733" type="line"/>
      <point x="236" y="392" type="line"/>
      <point x="92" y="392" type="line"/>
      <point x="92" y="325" type="line"/>
      <point x="276" y="325" type="line"/>
      <point x="276" y="221" type="line"/>
      <point x="92" y="221" type="line"/>
      <point x="92" y="154" type="line"/>
      <point x="276" y="154" type="line"/>
      <point x="276" y="0" type="line"/>
    </contour>
  </outline>
</glyph>
<glyph name="uni00A9" format="2">
  <advance width="811"/>
  <unicode hex="00A9"/>
  <outline>
    <contour>
      <point x="405" y="-12" type="curve" smooth="yes"/>
      <point x="602" y="-12"/>
      <point x="755" y="133"/>
      <point x="755" y="366" type="curve" smooth="yes"/>
      <point x="755" y="599"/>
      <point x="602" y="744"/>
      <point x="405" y="744" type="curve" smooth="yes"/>
      <point x="209" y="744"/>
      <point x="56" y="599"/>
      <point x="56" y="366" type="curve" smooth="yes"/>
      <point x="56" y="133"/>
      <point x="209" y="-12"/>
    </contour>
    <contour>
      <point x="413" y="163" type="curve" smooth="yes"/>
      <point x="486" y="163"/>
      <point x="535" y="202"/>
      <point x="559" y="254" type="curve"/>
      <point x="504" y="289" type="line"/>
      <point x="483" y="250"/>
      <point x="458" y="225"/>
      <point x="414" y="225" type="curve" smooth="yes"/>
      <point x="351" y="225"/>
      <point x="317" y="269"/>
      <point x="317" y="333" type="curve" smooth="yes"/>
      <point x="317" y="399" type="line" smooth="yes"/>
      <point x="317" y="463"/>
      <point x="351" y="507"/>
      <point x="414" y="507" type="curve" smooth="yes"/>
      <point x="455" y="507"/>
      <point x="479" y="484"/>
      <point x="495" y="447" type="curve"/>
      <point x="552" y="479" type="line"/>
      <point x="528" y="533"/>
      <point x="483" y="569"/>
      <point x="414" y="569" type="curve" smooth="yes"/>
      <point x="305" y="569"/>
      <point x="241" y="490"/>
      <point x="241" y="366" type="curve" smooth="yes"/>
      <point x="241" y="242"/>
      <point x="305" y="163"/>
    </contour>
    <contour>
      <point x="405" y="48" type="curve" smooth="yes"/>
      <point x="241" y="48"/>
      <point x="124" y="170"/>
      <point x="124" y="335" type="curve" smooth="yes"/>
      <point x="124" y="398" type="line" smooth="yes"/>
      <point x="124" y="562"/>
      <point x="241" y="684"/>
      <point x="405" y="684" type="curve" smooth="yes"/>
      <point x="570" y="684"/>
      <point x="687" y="562"/>
      <point x="687" y="398" type="curve" smooth="yes"/>
      <point x="687" y="335" type="line" smooth="yes"/>
      <point x="687" y="170"/>
      <point x="570" y="48"/>
    </contour>
  </outline>
</glyph>
<glyph name="uni00AE" format="2">
  <advance width="500"/>
  <unicode hex="00AE"/>
  <outline>
    <contour>
      <point x="250" y="313" type="curve" smooth="yes"/>
      <point x="364" y="313"/>
      <point x="458" y="406"/>
      <point x="458" y="529" type="curve" smooth="yes"/>
      <point x="458" y="653"/>
      <point x="364" y="746"/>
      <point x="250" y="746" type="curve" smooth="yes"/>
      <point x="136" y="746"/>
      <point x="42" y="653"/>
      <point x="42" y="529" type="curve" smooth="yes"/>
      <point x="42" y="406"/>
      <point x="136" y="313"/>
    </contour>
    <contour>
      <point x="250" y="353" type="curve" smooth="yes"/>
      <point x="153" y="353"/>
      <point x="85" y="432"/>
      <point x="85" y="518" type="curve" smooth="yes"/>
      <point x="85" y="541" type="line" smooth="yes"/>
      <point x="85" y="627"/>
      <point x="153" y="706"/>
      <point x="250" y="706" type="curve" smooth="yes"/>
      <point x="347" y="706"/>
      <point x="415" y="627"/>
      <point x="415" y="541" type="curve" smooth="yes"/>
      <point x="415" y="518" type="line" smooth="yes"/>
      <point x="415" y="432"/>
      <point x="347" y="353"/>
    </contour>
    <contour>
      <point x="212" y="416" type="line"/>
      <point x="212" y="501" type="line"/>
      <point x="251" y="501" type="line"/>
      <point x="298" y="416" type="line"/>
      <point x="343" y="416" type="line"/>
      <point x="291" y="505" type="line"/>
      <point x="314" y="515"/>
      <point x="332" y="536"/>
      <point x="332" y="569" type="curve" smooth="yes"/>
      <point x="332" y="609"/>
      <point x="307" y="635"/>
      <point x="266" y="635" type="curve" smooth="yes"/>
      <point x="172" y="635" type="line"/>
      <point x="172" y="416" type="line"/>
    </contour>
    <contour>
      <point x="212" y="533" type="line"/>
      <point x="212" y="602" type="line"/>
      <point x="264" y="602" type="line" smooth="yes"/>
      <point x="280" y="602"/>
      <point x="289" y="593"/>
      <point x="289" y="579" type="curve" smooth="yes"/>
      <point x="289" y="556" type="line" smooth="yes"/>
      <point x="289" y="541"/>
      <point x="280" y="533"/>
      <point x="264" y="533" type="curve" smooth="yes"/>
    </contour>
  </outline>
</glyph>
<glyph name="uni00B1" format="2">
  <advance width="630"/>
  <unicode hex="00B1"/>
  <outline>
    <contour>
      <point x="353" y="158" type="line"/>
      <point x="353" y="369" type="line"/>
      <point x="560" y="369" type="line"/>
      <point x="560" y="437" type="line"/>
      <point x="353" y="437" type="line"/>
      <point x="353" y="648" type="line"/>
      <point x="277" y="648" type="line"/>
      <point x="277" y="437" type="line"/>
      <point x="70" y="437" type="line"/>
      <point x="70" y="369" type="line"/>
      <point x="277" y="369" type="line"/>
      <point x="277" y="158" type="line"/>
    </contour>
    <contour>
      <point x="560" y="0" type="line"/>
      <point x="560" y="68" type="line"/>
      <point x="70" y="68" type="line"/>
      <point x="70" y="0" type="line"/>
    </contour>
  </outline>
</glyph>
<glyph name="uni00B7.hwid" format="2">
  <advance width="500"/>
  <unicode hex="00B7"/>
  <anchor x="500" y="61" name="BSB"/>
  <anchor x="500" y="581" name="TSB"/>
  <outline>
    <contour>
      <point x="250" y="255" type="curve" smooth="yes"/>
      <point x="292" y="255"/>
      <point x="311" y="279"/>
      <point x="311" y="313" type="curve" smooth="yes"/>
      <point x="311" y="326" type="line" smooth="yes"/>
      <point x="311" y="360"/>
      <point x="292" y="384"/>
      <point x="250" y="384" type="curve" smooth="yes"/>
      <point x="208" y="384"/>
      <point x="189" y="360"/>
      <point x="189" y="326" type="curve" smooth="yes"/>
      <point x="189" y="313" type="line" smooth="yes"/>
      <point x="189" y="279"/>
      <point x="208" y="255"/>
    </contour>
  </outline>
</glyph>
<glyph name="uni00D7" format="2">
  <advance width="630"/>
  <unicode hex="00D7"/>
  <outline>
    <contour>
      <point x="315" y="273" type="line"/>
      <point x="483" y="100" type="line"/>
      <point x="532" y="149" type="line"/>
      <point x="363" y="321" type="line"/>
      <point x="532" y="493" type="line"/>
      <point x="483" y="542" type="line"/>
      <point x="315" y="369" type="line"/>
      <point x="147" y="542" type="line"/>
      <point x="98" y="493" type="line"/>
      <point x="267" y="321" type="line"/>
      <point x="98" y="149" type="line"/>
      <point x="147" y="100" type="line"/>
    </contour>
  </outline>
</glyph>
<glyph name="uni00EA" format="2">
  <advance width="576"/>
  <unicode hex="00EA"/>
  <outline>
    <contour>
      <point x="294" y="-13" type="curve" smooth="yes"/>
      <point x="396" y="-13"/>
      <point x="473" y="38"/>
      <point x="507" y="112" type="curve"/>
      <point x="450" y="153" type="line"/>
      <point x="422" y="92"/>
      <point x="367" y="57"/>
      <point x="298" y="57" type="curve" smooth="yes"/>
      <point x="196" y="57"/>
      <point x="136" y="128"/>
      <point x="136" y="226" type="curve" smooth="yes"/>
      <point x="136" y="252" type="line"/>
      <point x="525" y="252" type="line"/>
      <point x="525" y="289" type="line" smooth="yes"/>
      <point x="525" y="443"/>
      <point x="437" y="553"/>
      <point x="293" y="553" type="curve" smooth="yes"/>
      <point x="148" y="553"/>
      <point x="52" y="443"/>
      <point x="52" y="271" type="curve" smooth="yes"/>
      <point x="52" y="98"/>
      <point x="148" y="-13"/>
    </contour>
    <contour>
      <point x="136" y="318" type="line" smooth="yes"/>
      <point x="136" y="416"/>
      <point x="201" y="486"/>
      <point x="293" y="486" type="curve" smooth="yes"/>
      <point x="380" y="486"/>
      <point x="439" y="421"/>
      <point x="439" y="322" type="curve" smooth="yes"/>
      <point x="439" y="312" type="line"/>
      <point x="136" y="312" type="line"/>
    </contour>
    <contour>
      <point x="244" y="802" type="line"/>
      <point x="126" y="652" type="line"/>
      <point x="171" y="621" type="line"/>
      <point x="294" y="744" type="line"/>
      <point x="417" y="621" type="line"/>
      <point x="462" y="652" type="line"/>
      <point x="344" y="802" type="line"/>
    </contour>
  </outline>
</glyph>
<glyph name="uni00ED" format="2">
  <advance width="261"/>
  <unicode hex="00ED"/>
  <outline>
    <contour>
      <point x="171" y="0" type="line"/>
      <point x="171" y="541" type="line"/>
      <point x="90" y="541" type="line"/>
      <point x="90" y="0" type="line"/>
    </contour>
    <contour>
      <point x="248" y="783" type="line"/>
      <point x="175" y="818" type="line"/>
      <point x="86" y="639" type="line"/>
      <point x="136" y="615" type="line"/>
    </contour>
  </outline>
</glyph>
<glyph name="uni00F9" format="2">
  <advance width="595"/>
  <unicode hex="00F9"/>
  <outline>
    <contour>
      <point x="266" y="-12" type="curve" smooth="yes"/>
      <point x="347" y="-12"/>
      <point x="394" y="27"/>
      <point x="420" y="87" type="curve"/>
      <point x="424" y="87" type="line"/>
      <point x="424" y="0" type="line"/>
      <point x="504" y="0" type="line"/>
      <point x="504" y="541" type="line"/>
      <point x="424" y="541" type="line"/>
      <point x="424" y="166" type="line" smooth="yes"/>
      <point x="424" y="94"/>
      <point x="358" y="60"/>
      <point x="289" y="60" type="curve" smooth="yes"/>
      <point x="208" y="60"/>
      <point x="165" y="110"/>
      <point x="165" y="209" type="curve" smooth="yes"/>
      <point x="165" y="541" type="line"/>
      <point x="85" y="541" type="line"/>
      <point x="85" y="193" type="line" smooth="yes"/>
      <point x="85" y="62"/>
      <point x="155" y="-12"/>
    </contour>
    <contour>
      <point x="341" y="638" type="line"/>
      <point x="252" y="816" type="line"/>
      <point x="179" y="781" type="line"/>
      <point x="290" y="614" type="line"/>
    </contour>
  </outline>
</glyph>
<glyph name="uni011B" format="2">
  <advance width="576"/>
  <unicode hex="011B"/>
  <outline>
    <contour>
      <point x="294" y="-13" type="curve" smooth="yes"/>
      <point x="396" y="-13"/>
      <point x="473" y="38"/>
      <point x="507" y="112" type="curve"/>
      <point x="450" y="153" type="line"/>
      <point x="422" y="92"/>
      <point x="367" y="57"/>
      <point x="298" y="57" type="curve" smooth="yes"/>
      <point x="196" y="57"/>
      <point x="136" y="128"/>
      <point x="136" y="226" type="curve" smooth="yes"/>
      <point x="136" y="252" type="line"/>
      <point x="525" y="252" type="line"/>
      <point x="525" y="289" type="line" smooth="yes"/>
      <point x="525" y="443"/>
      <point x="437" y="553"/>
      <point x="293" y="553" type="curve" smooth="yes"/>
      <point x="148" y="553"/>
      <point x="52" y="443"/>
      <point x="52" y="271" type="curve" smooth="yes"/>
      <point x="52" y="98"/>
      <point x="148" y="-13"/>
    </contour>
    <contour>
      <point x="136" y="318" type="line" smooth="yes"/>
      <point x="136" y="416"/>
      <point x="201" y="486"/>
      <point x="293" y="486" type="curve" smooth="yes"/>
      <point x="380" y="486"/>
      <point x="439" y="421"/>
      <point x="439" y="322" type="curve" smooth="yes"/>
      <point x="439" y="312" type="line"/>
      <point x="136" y="312" type="line"/>
    </contour>
    <contour>
      <point x="345" y="632" type="line"/>
      <point x="461" y="780" type="line"/>
      <point x="416" y="810" type="line"/>
      <point x="294" y="687" type="line"/>
      <point x="171" y="810" type="line"/>
      <point x="127" y="780" type="line"/>
      <point x="241" y="632" type="line"/>
    </contour>
  </outline>
</glyph>
<glyph name="uni0148" format="2">
  <advance width="595"/>
  <unicode hex="0148"/>
  <outline>
    <contour>
      <point x="171" y="0" type="line"/>
      <point x="171" y="375" type="line" smooth="yes"/>
      <point x="171" y="447"/>
      <point x="237" y="481"/>
      <point x="306" y="481" type="curve" smooth="yes"/>
      <point x="387" y="481"/>
      <point x="430" y="431"/>
      <point x="430" y="332" type="curve" smooth="yes"/>
      <point x="430" y="0" type="line"/>
      <point x="510" y="0" type="line"/>
      <point x="510" y="348" type="line" smooth="yes"/>
      <point x="510" y="479"/>
      <point x="440" y="553"/>
      <point x="329" y="553" type="curve" smooth="yes"/>
      <point x="248" y="553"/>
      <point x="201" y="514"/>
      <point x="175" y="454" type="curve"/>
      <point x="171" y="454" type="line"/>
      <point x="171" y="541" type="line"/>
      <point x="91" y="541" type="line"/>
      <point x="91" y="0" type="line"/>
    </contour>
    <contour>
      <point x="337" y="625" type="line"/>
      <point x="473" y="777" type="line"/>
      <point x="432" y="809" type="line"/>
      <point x="302" y="681" type="line"/>
      <point x="171" y="809" type="line"/>
      <point x="130" y="777" type="line"/>
      <point x="267" y="625" type="line"/>
    </contour>
  </outline>
</glyph>
<glyph name="uni01CE" format="2">
  <advance width="561"/>
  <unicode hex="01CE"/>
  <outline>
    <contour>
      <point x="229" y="-13" type="curve" smooth="yes"/>
      <point x="305" y="-13"/>
      <point x="364" y="22"/>
      <point x="388" y="90" type="curve"/>
      <point x="393" y="90" type="line"/>
      <point x="393" y="88" type="line"/>
      <point x="393" y="36"/>
      <point x="423" y="0"/>
      <point x="486" y="0" type="curve" smooth="yes"/>
      <point x="529" y="0" type="line"/>
      <point x="529" y="70" type="line"/>
      <point x="467" y="70" type="line"/>
      <point x="467" y="372" type="line" smooth="yes"/>
      <point x="467" y="486"/>
      <point x="391" y="554"/>
      <point x="261" y="554" type="curve" smooth="yes"/>
      <point x="164" y="554"/>
      <point x="99" y="506"/>
      <point x="69" y="448" type="curve"/>
      <point x="117" y="403" type="line"/>
      <point x="147" y="453"/>
      <point x="191" y="485"/>
      <point x="257" y="485" type="curve" smooth="yes"/>
      <point x="344" y="485"/>
      <point x="387" y="442"/>
      <point x="387" y="363" type="curve" smooth="yes"/>
      <point x="387" y="309" type="line"/>
      <point x="278" y="309" type="line" smooth="yes"/>
      <point x="122" y="309"/>
      <point x="49" y="252"/>
      <point x="49" y="151" type="curve" smooth="yes"/>
      <point x="49" y="50"/>
      <point x="115" y="-13"/>
    </contour>
    <contour>
      <point x="243" y="55" type="curve" smooth="yes"/>
      <point x="176" y="55"/>
      <point x="133" y="86"/>
      <point x="133" y="143" type="curve" smooth="yes"/>
      <point x="133" y="165" type="line" smooth="yes"/>
      <point x="133" y="218"/>
      <point x="177" y="249"/>
      <point x="274" y="249" type="curve" smooth="yes"/>
      <point x="387" y="249" type="line"/>
      <point x="387" y="158" type="line" smooth="yes"/>
      <point x="387" y="100"/>
      <point x="326" y="55"/>
    </contour>
    <contour>
      <point x="337" y="632" type="line"/>
      <point x="453" y="780" type="line"/>
      <point x="408" y="810" type="line"/>
      <point x="286" y="687" type="line"/>
      <point x="163" y="810" type="line"/>
      <point x="119" y="780" type="line"/>
      <point x="233" y="632" type="line"/>
    </contour>
  </outline>
</glyph>
<glyph name="uni01D0" format="2">
  <advance width="262"/>
  <unicode hex="01D0"/>
  <outline>
    <contour>
      <point x="171" y="0" type="line"/>
      <point x="171" y="541" type="line"/>
      <point x="91" y="541" type="line"/>
      <point x="91" y="0" type="line"/>
    </contour>
    <contour>
      <point x="183" y="632" type="line"/>
      <point x="299" y="780" type="line"/>
      <point x="254" y="810" type="line"/>
      <point x="132" y="687" type="line"/>
      <point x="9" y="810" type="line"/>
      <point x="-35" y="780" type="line"/>
      <point x="79" y="632" type="line"/>
    </contour>
  </outline>
</glyph>
<glyph name="uni01D2" format="2">
  <advance width="588"/>
  <unicode hex="01D2"/>
  <outline>
    <contour>
      <point x="346" y="632" type="line"/>
      <point x="462" y="780" type="line"/>
      <point x="417" y="810" type="line"/>
      <point x="295" y="687" type="line"/>
      <point x="172" y="810" type="line"/>
      <point x="128" y="780" type="line"/>
      <point x="242" y="632" type="line"/>
    </contour>
    <contour>
      <point x="294" y="-13" type="curve" smooth="yes"/>
      <point x="439" y="-13"/>
      <point x="538" y="98"/>
      <point x="538" y="271" type="curve" smooth="yes"/>
      <point x="538" y="443"/>
      <point x="439" y="554"/>
      <point x="294" y="554" type="curve" smooth="yes"/>
      <point x="150" y="554"/>
      <point x="51" y="443"/>
      <point x="51" y="271" type="curve" smooth="yes"/>
      <point x="51" y="98"/>
      <point x="150" y="-13"/>
    </contour>
    <contour>
      <point x="294" y="58" type="curve" smooth="yes"/>
      <point x="202" y="58"/>
      <point x="137" y="116"/>
      <point x="137" y="232" type="curve" smooth="yes"/>
      <point x="137" y="309" type="line" smooth="yes"/>
      <point x="137" y="425"/>
      <point x="202" y="483"/>
      <point x="294" y="483" type="curve" smooth="yes"/>
      <point x="387" y="483"/>
      <point x="452" y="425"/>
      <point x="452" y="309" type="curve" smooth="yes"/>
      <point x="452" y="232" type="line" smooth="yes"/>
      <point x="452" y="116"/>
      <point x="387" y="58"/>
    </contour>
  </outline>
</glyph>
<glyph name="uni0251" format="2">
  <advance width="609"/>
  <unicode hex="0251"/>
  <outline>
    <contour>
      <point x="437" y="0" type="line"/>
      <point x="517" y="0" type="line"/>
      <point x="517" y="541" type="line"/>
      <point x="437" y="541" type="line"/>
      <point x="437" y="454" type="line"/>
      <point x="433" y="454" type="line"/>
      <point x="405" y="521"/>
      <point x="350" y="554"/>
      <point x="274" y="554" type="curve" smooth="yes"/>
      <point x="138" y="554"/>
      <point x="54" y="444"/>
      <point x="54" y="271" type="curve" smooth="yes"/>
      <point x="54" y="97"/>
      <point x="138" y="-13"/>
      <point x="274" y="-13" type="curve" smooth="yes"/>
      <point x="350" y="-13"/>
      <point x="401" y="21"/>
      <point x="433" y="88" type="curve"/>
      <point x="437" y="88" type="line"/>
    </contour>
    <contour>
      <point x="295" y="59" type="curve" smooth="yes"/>
      <point x="200" y="59"/>
      <point x="140" y="126"/>
      <point x="140" y="226" type="curve" smooth="yes"/>
      <point x="140" y="316" type="line" smooth="yes"/>
      <point x="140" y="415"/>
      <point x="200" y="482"/>
      <point x="295" y="482" type="curve" smooth="yes"/>
      <point x="373" y="482"/>
      <point x="437" y="437"/>
      <point x="437" y="375" type="curve" smooth="yes"/>
      <point x="437" y="172" type="line" smooth="yes"/>
      <point x="437" y="101"/>
      <point x="373" y="59"/>
    </contour>
  </outline>
</glyph>
<glyph name="uni02C6" format="2">
  <advance width="630"/>
  <unicode hex="02C6"/>
  <unicode hex="0302"/>
  <outline>
    <contour>
      <point x="265" y="802" type="line"/>
      <point x="147" y="652" type="line"/>
      <point x="192" y="621" type="line"/>
      <point x="315" y="744" type="line"/>
      <point x="438" y="621" type="line"/>
      <point x="483" y="652" type="line"/>
      <point x="365" y="802" type="line"/>
    </contour>
  </outline>
</glyph>
<glyph name="uni02C7" format="2">
  <advance width="630"/>
  <unicode hex="02C7"/>
  <outline>
    <contour>
      <point x="365" y="630" type="line"/>
      <point x="482" y="781" type="line"/>
      <point x="438" y="812" type="line"/>
      <point x="315" y="687" type="line"/>
      <point x="192" y="812" type="line"/>
      <point x="148" y="781" type="line"/>
      <point x="265" y="630" type="line"/>
    </contour>
  </outline>
</glyph>
<glyph name="uni02C9" format="2">
  <advance width="630"/>
  <unicode hex="02C9"/>
  <outline>
    <contour>
      <point x="169" y="670" type="line"/>
      <point x="461" y="670" type="line"/>
      <point x="461" y="738" type="line"/>
      <point x="169" y="738" type="line"/>
    </contour>
  </outline>
</glyph>
<glyph name="uni02DC" format="2">
  <advance width="630"/>
  <unicode hex="02DC"/>
  <unicode hex="0303"/>
  <outline>
    <contour>
      <point x="392" y="644" type="curve" smooth="yes"/>
      <point x="439" y="644"/>
      <point x="472" y="670"/>
      <point x="490" y="698" type="curve"/>
      <point x="457" y="739" type="line"/>
      <point x="436" y="720"/>
      <point x="419" y="710"/>
      <point x="396" y="710" type="curve" smooth="yes"/>
      <point x="378" y="710"/>
      <point x="356" y="717"/>
      <point x="322" y="735" type="curve" smooth="yes"/>
      <point x="299" y="747"/>
      <point x="274" y="763"/>
      <point x="238" y="763" type="curve" smooth="yes"/>
      <point x="191" y="763"/>
      <point x="158" y="737"/>
      <point x="140" y="709" type="curve"/>
      <point x="173" y="668" type="line"/>
      <point x="194" y="687"/>
      <point x="211" y="697"/>
      <point x="234" y="697" type="curve" smooth="yes"/>
      <point x="252" y="697"/>
      <point x="274" y="690"/>
      <point x="308" y="672" type="curve" smooth="yes"/>
      <point x="331" y="660"/>
      <point x="356" y="644"/>
    </contour>
  </outline>
</glyph>
<glyph name="uni0396" format="2">
  <advance width="608"/>
  <unicode hex="0396"/>
  <outline>
    <contour>
      <point x="128" y="74" type="line"/>
      <point x="556" y="657" type="line"/>
      <point x="556" y="733" type="line"/>
      <point x="60" y="733" type="line"/>
      <point x="60" y="659" type="line"/>
      <point x="465" y="659" type="line"/>
      <point x="38" y="76" type="line"/>
      <point x="38" y="0" type="line"/>
      <point x="570" y="0" type="line"/>
      <point x="570" y="74" type="line"/>
    </contour>
  </outline>
</glyph>
<glyph name="uni0398" format="2">
  <advance width="743"/>
  <unicode hex="0398"/>
  <outline>
    <contour>
      <point x="372" y="-13" type="curve" smooth="yes"/>
      <point x="559" y="-13"/>
      <point x="681" y="120"/>
      <point x="681" y="367" type="curve" smooth="yes"/>
      <point x="681" y="613"/>
      <point x="559" y="746"/>
      <point x="372" y="746" type="curve" smooth="yes"/>
      <point x="185" y="746"/>
      <point x="63" y="613"/>
      <point x="63" y="367" type="curve" smooth="yes"/>
      <point x="63" y="120"/>
      <point x="185" y="-13"/>
    </contour>
    <contour>
      <point x="372" y="62" type="curve" smooth="yes"/>
      <point x="243" y="62"/>
      <point x="153" y="156"/>
      <point x="153" y="306" type="curve" smooth="yes"/>
      <point x="153" y="428" type="line" smooth="yes"/>
      <point x="153" y="577"/>
      <point x="243" y="671"/>
      <point x="372" y="671" type="curve" smooth="yes"/>
      <point x="501" y="671"/>
      <point x="590" y="577"/>
      <point x="590" y="428" type="curve" smooth="yes"/>
      <point x="590" y="306" type="line" smooth="yes"/>
      <point x="590" y="156"/>
      <point x="501" y="62"/>
    </contour>
    <contour>
      <point x="530" y="334" type="line"/>
      <point x="530" y="408" type="line"/>
      <point x="213" y="408" type="line"/>
      <point x="213" y="334" type="line"/>
    </contour>
  </outline>
</glyph>
<glyph name="uni0399" format="2">
  <advance width="418"/>
  <unicode hex="0399"/>
  <outline>
    <contour>
      <point x="355" y="0" type="line"/>
      <point x="355" y="70" type="line"/>
      <point x="251" y="70" type="line"/>
      <point x="251" y="663" type="line"/>
      <point x="355" y="663" type="line"/>
      <point x="355" y="733" type="line"/>
      <point x="63" y="733" type="line"/>
      <point x="63" y="663" type="line"/>
      <point x="167" y="663" type="line"/>
      <point x="167" y="70" type="line"/>
      <point x="63" y="70" type="line"/>
      <point x="63" y="0" type="line"/>
    </contour>
  </outline>
</glyph>
<glyph name="uni039C" format="2">
  <advance width="852"/>
  <unicode hex="039C"/>
  <outline>
    <contour>
      <point x="181" y="0" type="line"/>
      <point x="181" y="622" type="line"/>
      <point x="186" y="622" type="line"/>
      <point x="186" y="622" type="line"/>
      <point x="426" y="181" type="line"/>
      <point x="666" y="622" type="line"/>
      <point x="666" y="622" type="line"/>
      <point x="671" y="622" type="line"/>
      <point x="671" y="0" type="line"/>
      <point x="753" y="0" type="line"/>
      <point x="753" y="733" type="line"/>
      <point x="645" y="733" type="line"/>
      <point x="430" y="336" type="line"/>
      <point x="425" y="336" type="line"/>
      <point x="211" y="733" type="line"/>
      <point x="99" y="733" type="line"/>
      <point x="99" y="0" type="line"/>
    </contour>
  </outline>
</glyph>
<glyph name="uni039E" format="2">
  <advance width="613"/>
  <unicode hex="039E"/>
  <outline>
    <contour>
      <point x="67" y="659" type="line"/>
      <point x="546" y="659" type="line"/>
      <point x="546" y="733" type="line"/>
      <point x="67" y="733" type="line"/>
    </contour>
    <contour>
      <point x="109" y="334" type="line"/>
      <point x="504" y="334" type="line"/>
      <point x="504" y="408" type="line"/>
      <point x="109" y="408" type="line"/>
    </contour>
    <contour>
      <point x="67" y="0" type="line"/>
      <point x="546" y="0" type="line"/>
      <point x="546" y="74" type="line"/>
      <point x="67" y="74" type="line"/>
    </contour>
  </outline>
</glyph>
<glyph name="uni03A3" format="2">
  <advance width="597"/>
  <unicode hex="03A3"/>
  <outline>
    <contour>
      <point x="532" y="0" type="line"/>
      <point x="532" y="74" type="line"/>
      <point x="139" y="74" type="line"/>
      <point x="403" y="372" type="line"/>
      <point x="151" y="659" type="line"/>
      <point x="532" y="659" type="line"/>
      <point x="532" y="733" type="line"/>
      <point x="51" y="733" type="line"/>
      <point x="51" y="657" type="line"/>
      <point x="303" y="370" type="line"/>
      <point x="43" y="76" type="line"/>
      <point x="43" y="0" type="line"/>
    </contour>
  </outline>
</glyph>
<glyph name="uni03A9" format="2">
  <advance width="752"/>
  <unicode hex="03A9"/>
  <outline>
    <contour>
      <point x="61" y="0" type="line"/>
      <point x="302" y="0" type="line"/>
      <point x="302" y="113" type="line"/>
      <point x="232" y="138"/>
      <point x="157" y="248"/>
      <point x="157" y="358" type="curve" smooth="yes"/>
      <point x="157" y="453" type="line" smooth="yes"/>
      <point x="157" y="557"/>
      <point x="236" y="671"/>
      <point x="376" y="671" type="curve" smooth="yes"/>
      <point x="515" y="671"/>
      <point x="595" y="557"/>
      <point x="595" y="453" type="curve" smooth="yes"/>
      <point x="595" y="358" type="line" smooth="yes"/>
      <point x="595" y="248"/>
      <point x="520" y="138"/>
      <point x="449" y="113" type="curve"/>
      <point x="449" y="0" type="line"/>
      <point x="691" y="0" type="line"/>
      <point x="691" y="74" type="line"/>
      <point x="522" y="74" type="line"/>
      <point x="522" y="84" type="line"/>
      <point x="608" y="131"/>
      <point x="685" y="241"/>
      <point x="685" y="397" type="curve" smooth="yes"/>
      <point x="685" y="569"/>
      <point x="590" y="746"/>
      <point x="376" y="746" type="curve" smooth="yes"/>
      <point x="162" y="746"/>
      <point x="67" y="569"/>
      <point x="67" y="397" type="curve" smooth="yes"/>
      <point x="67" y="241"/>
      <point x="144" y="131"/>
      <point x="230" y="84" type="curve"/>
      <point x="230" y="74" type="line"/>
      <point x="61" y="74" type="line"/>
    </contour>
  </outline>
</glyph>
<glyph name="uni03B4" format="2">
  <advance width="588"/>
  <unicode hex="03B4"/>
  <outline>
    <contour>
      <point x="483" y="706" type="line"/>
      <point x="483" y="776" type="line"/>
      <point x="123" y="776" type="line"/>
      <point x="123" y="683" type="line"/>
      <point x="218" y="598" type="line" smooth="yes"/>
      <point x="237" y="581"/>
      <point x="257" y="563"/>
      <point x="276" y="546" type="curve"/>
      <point x="276" y="540" type="line"/>
      <point x="158" y="540"/>
      <point x="52" y="444"/>
      <point x="52" y="261" type="curve" smooth="yes"/>
      <point x="52" y="97"/>
      <point x="152" y="-14"/>
      <point x="295" y="-14" type="curve" smooth="yes"/>
      <point x="438" y="-14"/>
      <point x="537" y="94"/>
      <point x="537" y="271" type="curve" smooth="yes"/>
      <point x="537" y="384"/>
      <point x="482" y="459"/>
      <point x="345" y="577" type="curve" smooth="yes"/>
      <point x="195" y="707" type="line"/>
      <point x="195" y="711" type="line"/>
      <point x="273" y="706" type="line"/>
    </contour>
    <contour>
      <point x="451" y="233" type="line" smooth="yes"/>
      <point x="451" y="112"/>
      <point x="385" y="57"/>
      <point x="295" y="57" type="curve" smooth="yes"/>
      <point x="202" y="57"/>
      <point x="138" y="112"/>
      <point x="138" y="233" type="curve" smooth="yes"/>
      <point x="138" y="289" type="line" smooth="yes"/>
      <point x="138" y="423"/>
      <point x="214" y="499"/>
      <point x="316" y="512" type="curve"/>
      <point x="421" y="417"/>
      <point x="451" y="357"/>
      <point x="451" y="252" type="curve" smooth="yes"/>
    </contour>
  </outline>
</glyph>
<glyph name="uni03B5" format="2">
  <advance width="544"/>
  <unicode hex="03B5"/>
  <outline>
    <contour>
      <point x="460" y="147" type="line"/>
      <point x="422" y="87"/>
      <point x="369" y="58"/>
      <point x="285" y="58" type="curve" smooth="yes"/>
      <point x="194" y="58"/>
      <point x="151" y="89"/>
      <point x="151" y="148" type="curve" smooth="yes"/>
      <point x="151" y="160" type="line" smooth="yes"/>
      <point x="151" y="217"/>
      <point x="189" y="246"/>
      <point x="268" y="246" type="curve" smooth="yes"/>
      <point x="396" y="246" type="line"/>
      <point x="396" y="313" type="line"/>
      <point x="268" y="313" type="line" smooth="yes"/>
      <point x="201" y="313"/>
      <point x="163" y="345"/>
      <point x="163" y="392" type="curve" smooth="yes"/>
      <point x="163" y="405" type="line" smooth="yes"/>
      <point x="163" y="446"/>
      <point x="196" y="483"/>
      <point x="288" y="483" type="curve" smooth="yes"/>
      <point x="365" y="483"/>
      <point x="418" y="455"/>
      <point x="450" y="403" type="curve"/>
      <point x="509" y="448" type="line"/>
      <point x="471" y="513"/>
      <point x="394" y="554"/>
      <point x="289" y="554" type="curve" smooth="yes"/>
      <point x="157" y="554"/>
      <point x="77" y="487"/>
      <point x="77" y="398" type="curve" smooth="yes"/>
      <point x="77" y="330"/>
      <point x="123" y="290"/>
      <point x="198" y="282" type="curve"/>
      <point x="198" y="278" type="line"/>
      <point x="111" y="262"/>
      <point x="65" y="219"/>
      <point x="65" y="143" type="curve" smooth="yes"/>
      <point x="65" y="50"/>
      <point x="135" y="-13"/>
      <point x="279" y="-13" type="curve" smooth="yes"/>
      <point x="394" y="-13"/>
      <point x="470" y="26"/>
      <point x="514" y="104" type="curve"/>
    </contour>
  </outline>
</glyph>
<glyph name="uni03B9" format="2">
  <advance width="310"/>
  <unicode hex="03B9"/>
  <outline>
    <contour>
      <point x="283" y="70" type="line"/>
      <point x="171" y="70" type="line"/>
      <point x="171" y="541" type="line"/>
      <point x="91" y="541" type="line"/>
      <point x="91" y="86" type="line" smooth="yes"/>
      <point x="91" y="34"/>
      <point x="120" y="0"/>
      <point x="176" y="0" type="curve" smooth="yes"/>
      <point x="283" y="0" type="line"/>
    </contour>
  </outline>
</glyph>
<glyph name="uni03BA" format="2">
  <advance width="553"/>
  <unicode hex="03BA"/>
  <outline>
    <contour>
      <point x="437" y="0" type="line"/>
      <point x="534" y="0" type="line"/>
      <point x="302" y="311" type="line"/>
      <point x="450" y="471" type="line"/>
      <point x="512" y="471" type="line"/>
      <point x="512" y="541" type="line"/>
      <point x="461" y="541" type="line" smooth="yes"/>
      <point x="431" y="541"/>
      <point x="412" y="531"/>
      <point x="391" y="508" type="curve" smooth="yes"/>
      <point x="231" y="336" type="line"/>
      <point x="176" y="274" type="line"/>
      <point x="172" y="274" type="line"/>
      <point x="172" y="541" type="line"/>
      <point x="92" y="541" type="line"/>
      <point x="92" y="0" type="line"/>
      <point x="172" y="0" type="line"/>
      <point x="172" y="183" type="line"/>
      <point x="245" y="260" type="line"/>
    </contour>
  </outline>
</glyph>
<glyph name="uni03BD" format="2">
  <advance width="537"/>
  <unicode hex="03BD"/>
  <outline>
    <contour>
      <point x="515" y="541" type="line"/>
      <point x="440" y="541" type="line"/>
      <point x="340" y="272" type="line"/>
      <point x="278" y="88" type="line"/>
      <point x="272" y="88" type="line"/>
      <point x="217" y="272" type="line"/>
      <point x="150" y="483" type="line" smooth="yes"/>
      <point x="135" y="530"/>
      <point x="105" y="541"/>
      <point x="59" y="541" type="curve" smooth="yes"/>
      <point x="12" y="541" type="line"/>
      <point x="12" y="471" type="line"/>
      <point x="74" y="471" type="line"/>
      <point x="228" y="0" type="line"/>
      <point x="321" y="0" type="line"/>
    </contour>
  </outline>
</glyph>
<glyph name="uni03C3" format="2">
  <advance width="612"/>
  <unicode hex="03C3"/>
  <outline>
    <contour>
      <point x="585" y="471" type="line"/>
      <point x="585" y="541" type="line"/>
      <point x="305" y="541" type="line" smooth="yes"/>
      <point x="141" y="541"/>
      <point x="50" y="430"/>
      <point x="50" y="264" type="curve" smooth="yes"/>
      <point x="50" y="98"/>
      <point x="150" y="-13"/>
      <point x="293" y="-13" type="curve" smooth="yes"/>
      <point x="436" y="-13"/>
      <point x="535" y="98"/>
      <point x="535" y="264" type="curve" smooth="yes"/>
      <point x="535" y="366"/>
      <point x="507" y="431"/>
      <point x="438" y="464" type="curve"/>
      <point x="438" y="471" type="line"/>
    </contour>
    <contour>
      <point x="381" y="471" type="line"/>
      <point x="427" y="424"/>
      <point x="449" y="373"/>
      <point x="449" y="297" type="curve" smooth="yes"/>
      <point x="449" y="232" type="line" smooth="yes"/>
      <point x="449" y="113"/>
      <point x="385" y="58"/>
      <point x="293" y="58" type="curve" smooth="yes"/>
      <point x="200" y="58"/>
      <point x="136" y="113"/>
      <point x="136" y="232" type="curve" smooth="yes"/>
      <point x="136" y="297" type="line" smooth="yes"/>
      <point x="136" y="411"/>
      <point x="200" y="471"/>
      <point x="305" y="471" type="curve" smooth="yes"/>
    </contour>
  </outline>
</glyph>
<glyph name="uni03C7" format="2">
  <advance width="521"/>
  <unicode hex="03C7"/>
  <outline>
    <contour>
      <point x="13" y="541" type="line"/>
      <point x="13" y="471" type="line"/>
      <point x="87" y="471" type="line"/>
      <point x="214" y="175" type="line"/>
      <point x="19" y="-210" type="line"/>
      <point x="107" y="-210" type="line"/>
      <point x="258" y="110" type="line"/>
      <point x="261" y="110" type="line"/>
      <point x="368" y="-150" type="line" smooth="yes"/>
      <point x="386" y="-194"/>
      <point x="406" y="-210"/>
      <point x="456" y="-210" type="curve" smooth="yes"/>
      <point x="519" y="-210" type="line"/>
      <point x="519" y="-140" type="line"/>
      <point x="447" y="-140" type="line"/>
      <point x="311" y="181" type="line"/>
      <point x="498" y="541" type="line"/>
      <point x="410" y="541" type="line"/>
      <point x="267" y="247" type="line"/>
      <point x="264" y="247" type="line"/>
      <point x="165" y="481" type="line" smooth="yes"/>
      <point x="146" y="526"/>
      <point x="126" y="541"/>
      <point x="76" y="541" type="curve" smooth="yes"/>
    </contour>
  </outline>
</glyph>
<glyph name="uni03C8" format="2">
  <advance width="762"/>
  <unicode hex="03C8"/>
  <outline>
    <contour>
      <point x="421" y="-210" type="line"/>
      <point x="421" y="-13" type="line"/>
      <point x="583" y="-13"/>
      <point x="676" y="92"/>
      <point x="676" y="271" type="curve" smooth="yes"/>
      <point x="676" y="541" type="line"/>
      <point x="596" y="541" type="line"/>
      <point x="596" y="246" type="line" smooth="yes"/>
      <point x="596" y="122"/>
      <point x="539" y="58"/>
      <point x="421" y="58" type="curve"/>
      <point x="421" y="744" type="line"/>
      <point x="341" y="744" type="line"/>
      <point x="341" y="58" type="line"/>
      <point x="224" y="58"/>
      <point x="166" y="122"/>
      <point x="166" y="246" type="curve" smooth="yes"/>
      <point x="166" y="541" type="line"/>
      <point x="86" y="541" type="line"/>
      <point x="86" y="271" type="line" smooth="yes"/>
      <point x="86" y="92"/>
      <point x="179" y="-13"/>
      <point x="341" y="-13" type="curve"/>
      <point x="341" y="-210" type="line"/>
    </contour>
  </outline>
</glyph>
<glyph name="uni03C9" format="2">
  <advance width="773"/>
  <unicode hex="03C9"/>
  <outline>
    <contour>
      <point x="427" y="366" type="line"/>
      <point x="347" y="366" type="line"/>
      <point x="347" y="225" type="line" smooth="yes"/>
      <point x="347" y="100"/>
      <point x="309" y="58"/>
      <point x="245" y="58" type="curve" smooth="yes"/>
      <point x="181" y="58"/>
      <point x="143" y="98"/>
      <point x="143" y="227" type="curve" smooth="yes"/>
      <point x="143" y="282" type="line" smooth="yes"/>
      <point x="143" y="395"/>
      <point x="175" y="460"/>
      <point x="250" y="498" type="curve"/>
      <point x="209" y="554" type="line"/>
      <point x="113" y="508"/>
      <point x="57" y="411"/>
      <point x="57" y="254" type="curve" smooth="yes"/>
      <point x="57" y="66"/>
      <point x="128" y="-13"/>
      <point x="235" y="-13" type="curve" smooth="yes"/>
      <point x="321" y="-13"/>
      <point x="368" y="42"/>
      <point x="385" y="120" type="curve"/>
      <point x="389" y="120" type="line"/>
      <point x="406" y="42"/>
      <point x="453" y="-13"/>
      <point x="539" y="-13" type="curve" smooth="yes"/>
      <point x="644" y="-13"/>
      <point x="716" y="66"/>
      <point x="716" y="254" type="curve" smooth="yes"/>
      <point x="716" y="417"/>
      <point x="661" y="509"/>
      <point x="563" y="554" type="curve"/>
      <point x="521" y="499" type="line"/>
      <point x="595" y="463"/>
      <point x="630" y="388"/>
      <point x="630" y="282" type="curve" smooth="yes"/>
      <point x="630" y="227" type="line" smooth="yes"/>
      <point x="630" y="98"/>
      <point x="592" y="58"/>
      <point x="529" y="58" type="curve" smooth="yes"/>
      <point x="465" y="58"/>
      <point x="427" y="100"/>
      <point x="427" y="225" type="curve" smooth="yes"/>
    </contour>
  </outline>
</glyph>
<glyph name="uni0411" format="2">
  <advance width="668"/>
  <unicode hex="0411"/>
  <outline>
    <contour>
      <point x="100" y="0" type="line"/>
      <point x="405" y="0" type="line" smooth="yes"/>
      <point x="534" y="0"/>
      <point x="607" y="81"/>
      <point x="607" y="219" type="curve" smooth="yes"/>
      <point x="607" y="356"/>
      <point x="534" y="437"/>
      <point x="405" y="437" type="curve" smooth="yes"/>
      <point x="184" y="437" type="line"/>
      <point x="184" y="659" type="line"/>
      <point x="546" y="659" type="line"/>
      <point x="546" y="733" type="line"/>
      <point x="100" y="733" type="line"/>
    </contour>
    <contour>
      <point x="184" y="74" type="line"/>
      <point x="184" y="363" type="line"/>
      <point x="405" y="363" type="line" smooth="yes"/>
      <point x="476" y="363"/>
      <point x="517" y="325"/>
      <point x="517" y="249" type="curve" smooth="yes"/>
      <point x="517" y="190" type="line" smooth="yes"/>
      <point x="517" y="111"/>
      <point x="476" y="74"/>
      <point x="405" y="74" type="curve" smooth="yes"/>
    </contour>
  </outline>
</glyph>
<glyph name="uni0412" format="2">
  <advance width="686"/>
  <unicode hex="0412"/>
  <outline>
    <contour>
      <point x="430" y="0" type="line" smooth="yes"/>
      <point x="539" y="0"/>
      <point x="618" y="90"/>
      <point x="618" y="211" type="curve" smooth="yes"/>
      <point x="618" y="332"/>
      <point x="529" y="379"/>
      <point x="475" y="382" type="curve"/>
      <point x="475" y="389" type="line"/>
      <point x="524" y="397"/>
      <point x="593" y="436"/>
      <point x="593" y="545" type="curve" smooth="yes"/>
      <point x="593" y="659"/>
      <point x="519" y="733"/>
      <point x="399" y="733" type="curve" smooth="yes"/>
      <point x="100" y="733" type="line"/>
      <point x="100" y="0" type="line"/>
    </contour>
    <contour>
      <point x="184" y="342" type="line"/>
      <point x="404" y="342" type="line" smooth="yes"/>
      <point x="482" y="342"/>
      <point x="528" y="300"/>
      <point x="528" y="227" type="curve" smooth="yes"/>
      <point x="528" y="190" type="line" smooth="yes"/>
      <point x="528" y="116"/>
      <point x="482" y="74"/>
      <point x="404" y="74" type="curve" smooth="yes"/>
      <point x="184" y="74" type="line"/>
    </contour>
    <contour>
      <point x="184" y="659" type="line"/>
      <point x="389" y="659" type="line" smooth="yes"/>
      <point x="461" y="659"/>
      <point x="503" y="621"/>
      <point x="503" y="554" type="curve" smooth="yes"/>
      <point x="503" y="519" type="line" smooth="yes"/>
      <point x="503" y="452"/>
      <point x="461" y="414"/>
      <point x="389" y="414" type="curve" smooth="yes"/>
      <point x="184" y="414" type="line"/>
    </contour>
  </outline>
</glyph>
<glyph name="uni0414" format="2">
  <advance width="762"/>
  <unicode hex="0414"/>
  <outline>
    <contour>
      <point x="11" y="-157" type="line"/>
      <point x="88" y="-157" type="line"/>
      <point x="88" y="0" type="line"/>
      <point x="648" y="0" type="line"/>
      <point x="648" y="-157" type="line"/>
      <point x="725" y="-157" type="line"/>
      <point x="725" y="74" type="line"/>
      <point x="622" y="74" type="line"/>
      <point x="622" y="733" type="line"/>
      <point x="185" y="733" type="line"/>
      <point x="185" y="518" type="line" smooth="yes"/>
      <point x="185" y="301"/>
      <point x="151" y="164"/>
      <point x="88" y="74" type="curve"/>
      <point x="11" y="74" type="line"/>
    </contour>
    <contour>
      <point x="187" y="74" type="line"/>
      <point x="187" y="79" type="line"/>
      <point x="235" y="155"/>
      <point x="265" y="289"/>
      <point x="265" y="512" type="curve" smooth="yes"/>
      <point x="265" y="659" type="line"/>
      <point x="538" y="659" type="line"/>
      <point x="538" y="74" type="line"/>
    </contour>
  </outline>
</glyph>
<glyph name="uni0417" format="2">
  <advance width="623"/>
  <unicode hex="0417"/>
  <outline>
    <contour>
      <point x="296" y="-13" type="curve" smooth="yes"/>
      <point x="457" y="-13"/>
      <point x="555" y="73"/>
      <point x="555" y="202" type="curve" smooth="yes"/>
      <point x="555" y="312"/>
      <point x="484" y="365"/>
      <point x="401" y="375" type="curve"/>
      <point x="401" y="380" type="line"/>
      <point x="484" y="398"/>
      <point x="538" y="453"/>
      <point x="538" y="553" type="curve" smooth="yes"/>
      <point x="538" y="668"/>
      <point x="459" y="746"/>
      <point x="304" y="746" type="curve" smooth="yes"/>
      <point x="184" y="746"/>
      <point x="115" y="702"/>
      <point x="62" y="626" type="curve"/>
      <point x="125" y="582" type="line"/>
      <point x="159" y="634"/>
      <point x="215" y="671"/>
      <point x="304" y="671" type="curve" smooth="yes"/>
      <point x="402" y="671"/>
      <point x="448" y="628"/>
      <point x="448" y="554" type="curve" smooth="yes"/>
      <point x="448" y="539" type="line" smooth="yes"/>
      <point x="448" y="455"/>
      <point x="404" y="411"/>
      <point x="299" y="411" type="curve" smooth="yes"/>
      <point x="195" y="411" type="line"/>
      <point x="195" y="337" type="line"/>
      <point x="306" y="337" type="line" smooth="yes"/>
      <point x="417" y="337"/>
      <point x="465" y="286"/>
      <point x="465" y="211" type="curve" smooth="yes"/>
      <point x="465" y="197" type="line" smooth="yes"/>
      <point x="465" y="104"/>
      <point x="403" y="62"/>
      <point x="296" y="62" type="curve" smooth="yes"/>
      <point x="207" y="62"/>
      <point x="145" y="96"/>
      <point x="101" y="165" type="curve"/>
      <point x="40" y="117" type="line"/>
      <point x="95" y="37"/>
      <point x="178" y="-13"/>
    </contour>
  </outline>
</glyph>
<glyph name="uni0419" format="2">
  <advance width="742"/>
  <unicode hex="0419"/>
  <outline>
    <contour>
      <point x="100" y="0" type="line"/>
      <point x="176" y="0" type="line"/>
      <point x="489" y="478" type="line"/>
      <point x="566" y="610" type="line"/>
      <point x="569" y="610" type="line"/>
      <point x="561" y="460" type="line"/>
      <point x="561" y="0" type="line"/>
      <point x="643" y="0" type="line"/>
      <point x="643" y="733" type="line"/>
      <point x="567" y="733" type="line"/>
      <point x="254" y="255" type="line"/>
      <point x="177" y="123" type="line"/>
      <point x="174" y="123" type="line"/>
      <point x="182" y="273" type="line"/>
      <point x="182" y="733" type="line"/>
      <point x="100" y="733" type="line"/>
    </contour>
    <contour>
      <point x="371" y="805" type="curve" smooth="yes"/>
      <point x="446" y="805"/>
      <point x="487" y="837"/>
      <point x="513" y="886" type="curve" smooth="yes"/>
      <point x="534" y="926" type="line"/>
      <point x="464" y="959" type="line"/>
      <point x="425" y="871" type="line"/>
      <point x="409" y="866"/>
      <point x="388" y="864"/>
      <point x="371" y="864" type="curve" smooth="yes"/>
      <point x="354" y="864"/>
      <point x="333" y="866"/>
      <point x="316" y="871" type="curve"/>
      <point x="278" y="959" type="line"/>
      <point x="208" y="926" type="line"/>
      <point x="229" y="886" type="line" smooth="yes"/>
      <point x="254" y="838"/>
      <point x="295" y="805"/>
    </contour>
  </outline>
</glyph>
<glyph name="uni041A" format="2">
  <advance width="695"/>
  <unicode hex="041A"/>
  <outline>
    <contour>
      <point x="99" y="0" type="line"/>
      <point x="183" y="0" type="line"/>
      <point x="183" y="335" type="line"/>
      <point x="329" y="335" type="line"/>
      <point x="491" y="68" type="line" smooth="yes"/>
      <point x="523" y="15"/>
      <point x="552" y="0"/>
      <point x="585" y="0" type="curve" smooth="yes"/>
      <point x="650" y="0" type="line"/>
      <point x="650" y="74" type="line"/>
      <point x="584" y="74" type="line"/>
      <point x="448" y="301" type="line" smooth="yes"/>
      <point x="419" y="349"/>
      <point x="400" y="362"/>
      <point x="369" y="369" type="curve"/>
      <point x="369" y="374" type="line"/>
      <point x="394" y="382"/>
      <point x="404" y="390"/>
      <point x="429" y="433" type="curve" smooth="yes"/>
      <point x="560" y="659" type="line"/>
      <point x="627" y="659" type="line"/>
      <point x="627" y="733" type="line"/>
      <point x="579" y="733" type="line" smooth="yes"/>
      <point x="535" y="733"/>
      <point x="507" y="713"/>
      <point x="476" y="659" type="curve" smooth="yes"/>
      <point x="329" y="407" type="line"/>
      <point x="183" y="407" type="line"/>
      <point x="183" y="733" type="line"/>
      <point x="99" y="733" type="line"/>
    </contour>
  </outline>
</glyph>
<glyph name="uni041D" format="2">
  <advance width="742"/>
  <unicode hex="041D"/>
  <outline>
    <contour>
      <point x="643" y="0" type="line"/>
      <point x="643" y="733" type="line"/>
      <point x="559" y="733" type="line"/>
      <point x="559" y="408" type="line"/>
      <point x="183" y="408" type="line"/>
      <point x="183" y="733" type="line"/>
      <point x="99" y="733" type="line"/>
      <point x="99" y="0" type="line"/>
      <point x="183" y="0" type="line"/>
      <point x="183" y="334" type="line"/>
      <point x="559" y="334" type="line"/>
      <point x="559" y="0" type="line"/>
    </contour>
  </outline>
</glyph>
<glyph name="uni041E" format="2">
  <advance width="741"/>
  <unicode hex="041E"/>
  <outline>
    <contour>
      <point x="370" y="-13" type="curve" smooth="yes"/>
      <point x="559" y="-13"/>
      <point x="680" y="121"/>
      <point x="680" y="366" type="curve" smooth="yes"/>
      <point x="680" y="612"/>
      <point x="559" y="746"/>
      <point x="370" y="746" type="curve" smooth="yes"/>
      <point x="182" y="746"/>
      <point x="61" y="612"/>
      <point x="61" y="366" type="curve" smooth="yes"/>
      <point x="61" y="121"/>
      <point x="182" y="-13"/>
    </contour>
    <contour>
      <point x="371" y="62" type="curve" smooth="yes"/>
      <point x="241" y="62"/>
      <point x="151" y="158"/>
      <point x="151" y="308" type="curve" smooth="yes"/>
      <point x="151" y="425" type="line" smooth="yes"/>
      <point x="151" y="575"/>
      <point x="241" y="671"/>
      <point x="371" y="671" type="curve" smooth="yes"/>
      <point x="501" y="671"/>
      <point x="590" y="575"/>
      <point x="590" y="425" type="curve" smooth="yes"/>
      <point x="590" y="308" type="line" smooth="yes"/>
      <point x="590" y="158"/>
      <point x="501" y="62"/>
    </contour>
  </outline>
</glyph>
<glyph name="uni041F" format="2">
  <advance width="728"/>
  <unicode hex="041F"/>
  <outline>
    <contour>
      <point x="100" y="0" type="line"/>
      <point x="184" y="0" type="line"/>
      <point x="184" y="659" type="line"/>
      <point x="544" y="659" type="line"/>
      <point x="544" y="0" type="line"/>
      <point x="628" y="0" type="line"/>
      <point x="628" y="733" type="line"/>
      <point x="100" y="733" type="line"/>
    </contour>
  </outline>
</glyph>
<glyph name="uni0421" format="2">
  <advance width="652"/>
  <unicode hex="0421"/>
  <outline>
    <contour>
      <point x="356" y="-13" type="curve" smooth="yes"/>
      <point x="478" y="-13"/>
      <point x="567" y="51"/>
      <point x="612" y="154" type="curve"/>
      <point x="545" y="196" type="line"/>
      <point x="514" y="115"/>
      <point x="450" y="62"/>
      <point x="356" y="62" type="curve" smooth="yes"/>
      <point x="228" y="62"/>
      <point x="153" y="155"/>
      <point x="153" y="310" type="curve" smooth="yes"/>
      <point x="153" y="416" type="line" smooth="yes"/>
      <point x="153" y="571"/>
      <point x="228" y="671"/>
      <point x="356" y="671" type="curve" smooth="yes"/>
      <point x="447" y="671"/>
      <point x="508" y="621"/>
      <point x="539" y="545" type="curve"/>
      <point x="607" y="586" type="line"/>
      <point x="561" y="687"/>
      <point x="478" y="746"/>
      <point x="356" y="746" type="curve" smooth="yes"/>
      <point x="172" y="746"/>
      <point x="63" y="608"/>
      <point x="63" y="362" type="curve" smooth="yes"/>
      <point x="63" y="118"/>
      <point x="172" y="-13"/>
    </contour>
  </outline>
</glyph>
<glyph name="uni0422" format="2">
  <advance width="600"/>
  <unicode hex="0422"/>
  <outline>
    <contour>
      <point x="578" y="733" type="line"/>
      <point x="22" y="733" type="line"/>
      <point x="22" y="659" type="line"/>
      <point x="258" y="659" type="line"/>
      <point x="258" y="0" type="line"/>
      <point x="342" y="0" type="line"/>
      <point x="342" y="659" type="line"/>
      <point x="578" y="659" type="line"/>
    </contour>
  </outline>
</glyph>
<glyph name="uni0425" format="2">
  <advance width="644"/>
  <unicode hex="0425"/>
  <outline>
    <contour>
      <point x="318" y="312" type="line"/>
      <point x="322" y="312" type="line"/>
      <point x="521" y="0" type="line"/>
      <point x="622" y="0" type="line"/>
      <point x="376" y="377" type="line"/>
      <point x="611" y="733" type="line"/>
      <point x="515" y="733" type="line"/>
      <point x="326" y="439" type="line"/>
      <point x="323" y="439" type="line"/>
      <point x="134" y="733" type="line"/>
      <point x="33" y="733" type="line"/>
      <point x="269" y="374" type="line"/>
      <point x="23" y="0" type="line"/>
      <point x="119" y="0" type="line"/>
    </contour>
  </outline>
</glyph>
<glyph name="uni0426" format="2">
  <advance width="766"/>
  <unicode hex="0426"/>
  <outline>
    <contour>
      <point x="654" y="-157" type="line"/>
      <point x="731" y="-157" type="line"/>
      <point x="731" y="74" type="line"/>
      <point x="628" y="74" type="line"/>
      <point x="628" y="733" type="line"/>
      <point x="544" y="733" type="line"/>
      <point x="544" y="74" type="line"/>
      <point x="184" y="74" type="line"/>
      <point x="184" y="733" type="line"/>
      <point x="100" y="733" type="line"/>
      <point x="100" y="0" type="line"/>
      <point x="654" y="0" type="line"/>
    </contour>
  </outline>
</glyph>
<glyph name="uni0427" format="2">
  <advance width="677"/>
  <unicode hex="0427"/>
  <outline>
    <contour>
      <point x="493" y="0" type="line"/>
      <point x="577" y="0" type="line"/>
      <point x="577" y="733" type="line"/>
      <point x="493" y="733" type="line"/>
      <point x="493" y="364" type="line"/>
      <point x="458" y="350"/>
      <point x="396" y="340"/>
      <point x="327" y="340" type="curve" smooth="yes"/>
      <point x="206" y="340"/>
      <point x="146" y="395"/>
      <point x="146" y="523" type="curve" smooth="yes"/>
      <point x="146" y="733" type="line"/>
      <point x="62" y="733" type="line"/>
      <point x="62" y="525" type="line" smooth="yes"/>
      <point x="62" y="349"/>
      <point x="145" y="266"/>
      <point x="324" y="266" type="curve" smooth="yes"/>
      <point x="389" y="266"/>
      <point x="450" y="275"/>
      <point x="488" y="290" type="curve"/>
      <point x="493" y="290" type="line"/>
    </contour>
  </outline>
</glyph>
<glyph name="uni0428" format="2">
  <advance width="1004"/>
  <unicode hex="0428"/>
  <outline>
    <contour>
      <point x="100" y="0" type="line"/>
      <point x="904" y="0" type="line"/>
      <point x="904" y="733" type="line"/>
      <point x="820" y="733" type="line"/>
      <point x="820" y="74" type="line"/>
      <point x="544" y="74" type="line"/>
      <point x="544" y="733" type="line"/>
      <point x="460" y="733" type="line"/>
      <point x="460" y="74" type="line"/>
      <point x="184" y="74" type="line"/>
      <point x="184" y="733" type="line"/>
      <point x="100" y="733" type="line"/>
    </contour>
  </outline>
</glyph>
<glyph name="uni042B" format="2">
  <advance width="919"/>
  <unicode hex="042B"/>
  <outline>
    <contour>
      <point x="100" y="0" type="line"/>
      <point x="405" y="0" type="line" smooth="yes"/>
      <point x="534" y="0"/>
      <point x="607" y="81"/>
      <point x="607" y="219" type="curve" smooth="yes"/>
      <point x="607" y="356"/>
      <point x="534" y="437"/>
      <point x="405" y="437" type="curve" smooth="yes"/>
      <point x="184" y="437" type="line"/>
      <point x="184" y="733" type="line"/>
      <point x="100" y="733" type="line"/>
    </contour>
    <contour>
      <point x="184" y="74" type="line"/>
      <point x="184" y="363" type="line"/>
      <point x="405" y="363" type="line" smooth="yes"/>
      <point x="476" y="363"/>
      <point x="517" y="325"/>
      <point x="517" y="247" type="curve" smooth="yes"/>
      <point x="517" y="190" type="line" smooth="yes"/>
      <point x="517" y="111"/>
      <point x="476" y="74"/>
      <point x="405" y="74" type="curve" smooth="yes"/>
    </contour>
    <contour>
      <point x="735" y="0" type="line"/>
      <point x="819" y="0" type="line"/>
      <point x="819" y="733" type="line"/>
      <point x="735" y="733" type="line"/>
    </contour>
  </outline>
</glyph>
<glyph name="uni042F" format="2">
  <advance width="672"/>
  <unicode hex="042F"/>
  <outline>
    <contour>
      <point x="44" y="0" type="line"/>
      <point x="107" y="0" type="line" smooth="yes"/>
      <point x="147" y="0"/>
      <point x="171" y="16"/>
      <point x="200" y="73" type="curve" smooth="yes"/>
      <point x="323" y="315" type="line"/>
      <point x="489" y="315" type="line"/>
      <point x="489" y="0" type="line"/>
      <point x="573" y="0" type="line"/>
      <point x="573" y="733" type="line"/>
      <point x="283" y="733" type="line" smooth="yes"/>
      <point x="157" y="733"/>
      <point x="81" y="658"/>
      <point x="81" y="525" type="curve" smooth="yes"/>
      <point x="81" y="411"/>
      <point x="138" y="332"/>
      <point x="269" y="328" type="curve"/>
      <point x="269" y="328" type="line"/>
      <point x="269" y="323" type="line"/>
      <point x="235" y="314"/>
      <point x="222" y="297"/>
      <point x="199" y="253" type="curve" smooth="yes"/>
      <point x="107" y="74" type="line"/>
      <point x="44" y="74" type="line"/>
    </contour>
    <contour>
      <point x="283" y="387" type="line" smooth="yes"/>
      <point x="212" y="387"/>
      <point x="171" y="424"/>
      <point x="171" y="496" type="curve" smooth="yes"/>
      <point x="171" y="550" type="line" smooth="yes"/>
      <point x="171" y="621"/>
      <point x="212" y="659"/>
      <point x="283" y="659" type="curve" smooth="yes"/>
      <point x="489" y="659" type="line"/>
      <point x="489" y="387" type="line"/>
    </contour>
  </outline>
</glyph>
<glyph name="uni0432" format="2">
  <advance width="586"/>
  <unicode hex="0432"/>
  <outline>
    <contour>
      <point x="91" y="0" type="line"/>
      <point x="374" y="0" type="line" smooth="yes"/>
      <point x="465" y="0"/>
      <point x="521" y="73"/>
      <point x="521" y="162" type="curve" smooth="yes"/>
      <point x="521" y="229"/>
      <point x="480" y="279"/>
      <point x="396" y="286" type="curve"/>
      <point x="396" y="290" type="line"/>
      <point x="465" y="298"/>
      <point x="502" y="336"/>
      <point x="502" y="403" type="curve" smooth="yes"/>
      <point x="502" y="486"/>
      <point x="448" y="541"/>
      <point x="360" y="541" type="curve" smooth="yes"/>
      <point x="91" y="541" type="line"/>
    </contour>
    <contour>
      <point x="171" y="66" type="line"/>
      <point x="171" y="249" type="line"/>
      <point x="353" y="249" type="line" smooth="yes"/>
      <point x="404" y="249"/>
      <point x="435" y="221"/>
      <point x="435" y="172" type="curve" smooth="yes"/>
      <point x="435" y="143" type="line" smooth="yes"/>
      <point x="435" y="94"/>
      <point x="404" y="66"/>
      <point x="353" y="66" type="curve" smooth="yes"/>
    </contour>
    <contour>
      <point x="171" y="314" type="line"/>
      <point x="171" y="475" type="line"/>
      <point x="341" y="475" type="line" smooth="yes"/>
      <point x="387" y="475"/>
      <point x="416" y="451"/>
      <point x="416" y="408" type="curve" smooth="yes"/>
      <point x="416" y="381" type="line" smooth="yes"/>
      <point x="416" y="338"/>
      <point x="389" y="314"/>
      <point x="343" y="314" type="curve" smooth="yes"/>
    </contour>
  </outline>
</glyph>
<glyph name="uni0434" format="2">
  <advance width="627"/>
  <unicode hex="0434"/>
  <outline>
    <contour>
      <point x="9" y="-148" type="line"/>
      <point x="82" y="-148" type="line"/>
      <point x="82" y="0" type="line"/>
      <point x="523" y="0" type="line"/>
      <point x="523" y="-148" type="line"/>
      <point x="596" y="-148" type="line"/>
      <point x="596" y="70" type="line"/>
      <point x="506" y="70" type="line"/>
      <point x="506" y="541" type="line"/>
      <point x="143" y="541" type="line"/>
      <point x="143" y="384" type="line" smooth="yes"/>
      <point x="143" y="249"/>
      <point x="114" y="140"/>
      <point x="71" y="70" type="curve"/>
      <point x="9" y="70" type="line"/>
    </contour>
    <contour>
      <point x="157" y="70" type="line"/>
      <point x="191" y="133"/>
      <point x="219" y="237"/>
      <point x="219" y="380" type="curve" smooth="yes"/>
      <point x="219" y="471" type="line"/>
      <point x="426" y="471" type="line"/>
      <point x="426" y="70" type="line"/>
    </contour>
  </outline>
</glyph>
<glyph name="uni0435" format="2">
  <advance width="575"/>
  <unicode hex="0435"/>
  <outline>
    <contour>
      <point x="293" y="-13" type="curve" smooth="yes"/>
      <point x="395" y="-13"/>
      <point x="472" y="38"/>
      <point x="506" y="112" type="curve"/>
      <point x="449" y="153" type="line"/>
      <point x="421" y="92"/>
      <point x="366" y="57"/>
      <point x="297" y="57" type="curve" smooth="yes"/>
      <point x="195" y="57"/>
      <point x="135" y="128"/>
      <point x="135" y="226" type="curve" smooth="yes"/>
      <point x="135" y="252" type="line"/>
      <point x="524" y="252" type="line"/>
      <point x="524" y="289" type="line" smooth="yes"/>
      <point x="524" y="443"/>
      <point x="436" y="553"/>
      <point x="292" y="553" type="curve" smooth="yes"/>
      <point x="147" y="553"/>
      <point x="51" y="443"/>
      <point x="51" y="271" type="curve" smooth="yes"/>
      <point x="51" y="98"/>
      <point x="147" y="-13"/>
    </contour>
    <contour>
      <point x="135" y="318" type="line" smooth="yes"/>
      <point x="135" y="416"/>
      <point x="200" y="486"/>
      <point x="292" y="486" type="curve" smooth="yes"/>
      <point x="379" y="486"/>
      <point x="438" y="421"/>
      <point x="438" y="322" type="curve" smooth="yes"/>
      <point x="438" y="312" type="line"/>
      <point x="135" y="312" type="line"/>
    </contour>
  </outline>
</glyph>
<glyph name="uni0436" format="2">
  <advance width="808"/>
  <unicode hex="0436"/>
  <outline>
    <contour>
      <point x="42" y="0" type="line"/>
      <point x="102" y="0" type="line" smooth="yes"/>
      <point x="140" y="0"/>
      <point x="169" y="17"/>
      <point x="192" y="73" type="curve" smooth="yes"/>
      <point x="264" y="246" type="line"/>
      <point x="364" y="246" type="line"/>
      <point x="364" y="0" type="line"/>
      <point x="444" y="0" type="line"/>
      <point x="444" y="246" type="line"/>
      <point x="545" y="246" type="line"/>
      <point x="616" y="73" type="line" smooth="yes"/>
      <point x="639" y="17"/>
      <point x="671" y="0"/>
      <point x="709" y="0" type="curve" smooth="yes"/>
      <point x="766" y="0" type="line"/>
      <point x="766" y="70" type="line"/>
      <point x="702" y="70" type="line"/>
      <point x="642" y="219" type="line" smooth="yes"/>
      <point x="627" y="255"/>
      <point x="601" y="273"/>
      <point x="573" y="277" type="curve"/>
      <point x="573" y="281" type="line"/>
      <point x="601" y="290"/>
      <point x="623" y="309"/>
      <point x="638" y="343" type="curve" smooth="yes"/>
      <point x="694" y="471" type="line"/>
      <point x="759" y="471" type="line"/>
      <point x="759" y="541" type="line"/>
      <point x="710" y="541" type="line" smooth="yes"/>
      <point x="668" y="541"/>
      <point x="638" y="521"/>
      <point x="617" y="475" type="curve" smooth="yes"/>
      <point x="545" y="314" type="line"/>
      <point x="444" y="314" type="line"/>
      <point x="444" y="541" type="line"/>
      <point x="364" y="541" type="line"/>
      <point x="364" y="314" type="line"/>
      <point x="264" y="314" type="line"/>
      <point x="191" y="475" type="line" smooth="yes"/>
      <point x="170" y="521"/>
      <point x="141" y="541"/>
      <point x="99" y="541" type="curve" smooth="yes"/>
      <point x="49" y="541" type="line"/>
      <point x="49" y="471" type="line"/>
      <point x="114" y="471" type="line"/>
      <point x="170" y="343" type="line" smooth="yes"/>
      <point x="185" y="309"/>
      <point x="207" y="290"/>
      <point x="234" y="281" type="curve"/>
      <point x="234" y="277" type="line"/>
      <point x="207" y="273"/>
      <point x="182" y="255"/>
      <point x="167" y="219" type="curve" smooth="yes"/>
      <point x="105" y="70" type="line"/>
      <point x="42" y="70" type="line"/>
    </contour>
  </outline>
</glyph>
<glyph name="uni0437" format="2">
  <advance width="526"/>
  <unicode hex="0437"/>
  <outline>
    <contour>
      <point x="243" y="-13" type="curve" smooth="yes"/>
      <point x="376" y="-13"/>
      <point x="462" y="53"/>
      <point x="462" y="158" type="curve" smooth="yes"/>
      <point x="462" y="226"/>
      <point x="423" y="274"/>
      <point x="348" y="284" type="curve"/>
      <point x="348" y="288" type="line"/>
      <point x="413" y="304"/>
      <point x="450" y="342"/>
      <point x="450" y="409" type="curve" smooth="yes"/>
      <point x="450" y="496"/>
      <point x="384" y="554"/>
      <point x="245" y="554" type="curve" smooth="yes"/>
      <point x="138" y="554"/>
      <point x="75" y="510"/>
      <point x="42" y="447" type="curve"/>
      <point x="97" y="404" type="line"/>
      <point x="124" y="452"/>
      <point x="171" y="483"/>
      <point x="241" y="483" type="curve" smooth="yes"/>
      <point x="329" y="483"/>
      <point x="364" y="452"/>
      <point x="364" y="407" type="curve" smooth="yes"/>
      <point x="364" y="394" type="line" smooth="yes"/>
      <point x="364" y="341"/>
      <point x="326" y="314"/>
      <point x="257" y="314" type="curve" smooth="yes"/>
      <point x="152" y="314" type="line"/>
      <point x="152" y="247" type="line"/>
      <point x="267" y="247" type="line" smooth="yes"/>
      <point x="336" y="247"/>
      <point x="376" y="218"/>
      <point x="376" y="159" type="curve" smooth="yes"/>
      <point x="376" y="146" type="line" smooth="yes"/>
      <point x="376" y="93"/>
      <point x="332" y="58"/>
      <point x="243" y="58" type="curve" smooth="yes"/>
      <point x="171" y="58"/>
      <point x="118" y="90"/>
      <point x="91" y="143" type="curve"/>
      <point x="30" y="96" type="line"/>
      <point x="72" y="27"/>
      <point x="133" y="-13"/>
    </contour>
  </outline>
</glyph>
<glyph name="uni0438" format="2">
  <advance width="617"/>
  <unicode hex="0438"/>
  <outline>
    <contour>
      <point x="91" y="0" type="line"/>
      <point x="165" y="0" type="line"/>
      <point x="381" y="315" type="line"/>
      <point x="452" y="436" type="line"/>
      <point x="456" y="436" type="line"/>
      <point x="448" y="300" type="line"/>
      <point x="448" y="0" type="line"/>
      <point x="526" y="0" type="line"/>
      <point x="526" y="541" type="line"/>
      <point x="452" y="541" type="line"/>
      <point x="236" y="227" type="line"/>
      <point x="165" y="106" type="line"/>
      <point x="160" y="106" type="line"/>
      <point x="169" y="241" type="line"/>
      <point x="169" y="541" type="line"/>
      <point x="91" y="541" type="line"/>
    </contour>
  </outline>
</glyph>
<glyph name="uni043B" format="2">
  <advance width="593"/>
  <unicode hex="043B"/>
  <outline>
    <contour>
      <point x="9" y="0" type="line"/>
      <point x="42" y="0" type="line" smooth="yes"/>
      <point x="86" y="0"/>
      <point x="117" y="9"/>
      <point x="143" y="36" type="curve" smooth="yes"/>
      <point x="185" y="78"/>
      <point x="216" y="174"/>
      <point x="216" y="385" type="curve" smooth="yes"/>
      <point x="216" y="471" type="line"/>
      <point x="423" y="471" type="line"/>
      <point x="423" y="0" type="line"/>
      <point x="503" y="0" type="line"/>
      <point x="503" y="541" type="line"/>
      <point x="140" y="541" type="line"/>
      <point x="140" y="387" type="line" smooth="yes"/>
      <point x="140" y="207"/>
      <point x="119" y="121"/>
      <point x="80" y="70" type="curve"/>
      <point x="9" y="70" type="line"/>
    </contour>
  </outline>
</glyph>
<glyph name="uni043C" format="2">
  <advance width="731"/>
  <unicode hex="043C"/>
  <outline>
    <contour>
      <point x="170" y="0" type="line"/>
      <point x="170" y="440" type="line"/>
      <point x="175" y="440" type="line"/>
      <point x="208" y="382" type="line"/>
      <point x="366" y="113" type="line"/>
      <point x="525" y="382" type="line"/>
      <point x="557" y="440" type="line"/>
      <point x="562" y="440" type="line"/>
      <point x="562" y="0" type="line"/>
      <point x="640" y="0" type="line"/>
      <point x="640" y="541" type="line"/>
      <point x="535" y="541" type="line"/>
      <point x="369" y="253" type="line"/>
      <point x="365" y="253" type="line"/>
      <point x="198" y="541" type="line"/>
      <point x="92" y="541" type="line"/>
      <point x="92" y="0" type="line"/>
    </contour>
  </outline>
</glyph>
<glyph name="uni043D" format="2">
  <advance width="617"/>
  <unicode hex="043D"/>
  <outline>
    <contour>
      <point x="91" y="0" type="line"/>
      <point x="171" y="0" type="line"/>
      <point x="171" y="246" type="line"/>
      <point x="446" y="246" type="line"/>
      <point x="446" y="0" type="line"/>
      <point x="526" y="0" type="line"/>
      <point x="526" y="541" type="line"/>
      <point x="446" y="541" type="line"/>
      <point x="446" y="315" type="line"/>
      <point x="171" y="315" type="line"/>
      <point x="171" y="541" type="line"/>
      <point x="91" y="541" type="line"/>
    </contour>
  </outline>
</glyph>
<glyph name="uni043E" format="2">
  <advance width="587"/>
  <unicode hex="043E"/>
  <outline>
    <contour>
      <point x="293" y="-13" type="curve" smooth="yes"/>
      <point x="438" y="-13"/>
      <point x="537" y="98"/>
      <point x="537" y="271" type="curve" smooth="yes"/>
      <point x="537" y="443"/>
      <point x="438" y="554"/>
      <point x="293" y="554" type="curve" smooth="yes"/>
      <point x="149" y="554"/>
      <point x="50" y="443"/>
      <point x="50" y="271" type="curve" smooth="yes"/>
      <point x="50" y="98"/>
      <point x="149" y="-13"/>
    </contour>
    <contour>
      <point x="293" y="58" type="curve" smooth="yes"/>
      <point x="201" y="58"/>
      <point x="136" y="116"/>
      <point x="136" y="232" type="curve" smooth="yes"/>
      <point x="136" y="309" type="line" smooth="yes"/>
      <point x="136" y="425"/>
      <point x="201" y="483"/>
      <point x="293" y="483" type="curve" smooth="yes"/>
      <point x="386" y="483"/>
      <point x="451" y="425"/>
      <point x="451" y="309" type="curve" smooth="yes"/>
      <point x="451" y="232" type="line" smooth="yes"/>
      <point x="451" y="116"/>
      <point x="386" y="58"/>
    </contour>
  </outline>
</glyph>
<glyph name="uni043F" format="2">
  <advance width="602"/>
  <unicode hex="043F"/>
  <outline>
    <contour>
      <point x="92" y="0" type="line"/>
      <point x="172" y="0" type="line"/>
      <point x="172" y="471" type="line"/>
      <point x="431" y="471" type="line"/>
      <point x="431" y="0" type="line"/>
      <point x="511" y="0" type="line"/>
      <point x="511" y="541" type="line"/>
      <point x="92" y="541" type="line"/>
    </contour>
  </outline>
</glyph>
<glyph name="uni0442" format="2">
  <advance width="496"/>
  <unicode hex="0442"/>
  <outline>
    <contour>
      <point x="208" y="0" type="line"/>
      <point x="288" y="0" type="line"/>
      <point x="288" y="471" type="line"/>
      <point x="475" y="471" type="line"/>
      <point x="475" y="541" type="line"/>
      <point x="21" y="541" type="line"/>
      <point x="21" y="471" type="line"/>
      <point x="208" y="471" type="line"/>
    </contour>
  </outline>
</glyph>
<glyph name="uni0445" format="2">
  <advance width="532"/>
  <unicode hex="0445"/>
  <outline>
    <contour>
      <point x="114" y="0" type="line"/>
      <point x="268" y="214" type="line"/>
      <point x="271" y="214" type="line"/>
      <point x="414" y="0" type="line"/>
      <point x="508" y="0" type="line"/>
      <point x="313" y="278" type="line"/>
      <point x="504" y="541" type="line"/>
      <point x="415" y="541" type="line"/>
      <point x="270" y="337" type="line"/>
      <point x="267" y="337" type="line"/>
      <point x="127" y="541" type="line"/>
      <point x="33" y="541" type="line"/>
      <point x="226" y="273" type="line"/>
      <point x="25" y="0" type="line"/>
    </contour>
  </outline>
</glyph>
<glyph name="uni0446" format="2">
  <advance width="630"/>
  <unicode hex="0446"/>
  <outline>
    <contour>
      <point x="529" y="-148" type="line"/>
      <point x="602" y="-148" type="line"/>
      <point x="602" y="70" type="line"/>
      <point x="511" y="70" type="line"/>
      <point x="511" y="541" type="line"/>
      <point x="431" y="541" type="line"/>
      <point x="431" y="70" type="line"/>
      <point x="172" y="70" type="line"/>
      <point x="172" y="541" type="line"/>
      <point x="92" y="541" type="line"/>
      <point x="92" y="0" type="line"/>
      <point x="529" y="0" type="line"/>
    </contour>
  </outline>
</glyph>
<glyph name="uni0449" format="2">
  <advance width="866"/>
  <unicode hex="0449"/>
  <outline>
    <contour>
      <point x="765" y="-148" type="line"/>
      <point x="838" y="-148" type="line"/>
      <point x="838" y="70" type="line"/>
      <point x="747" y="70" type="line"/>
      <point x="747" y="541" type="line"/>
      <point x="667" y="541" type="line"/>
      <point x="667" y="70" type="line"/>
      <point x="460" y="70" type="line"/>
      <point x="460" y="541" type="line"/>
      <point x="380" y="541" type="line"/>
      <point x="380" y="70" type="line"/>
      <point x="172" y="70" type="line"/>
      <point x="172" y="541" type="line"/>
      <point x="92" y="541" type="line"/>
      <point x="92" y="0" type="line"/>
      <point x="765" y="0" type="line"/>
    </contour>
  </outline>
</glyph>
<glyph name="uni044A" format="2">
  <advance width="620"/>
  <unicode hex="044A"/>
  <outline>
    <contour>
      <point x="166" y="0" type="line"/>
      <point x="403" y="0" type="line" smooth="yes"/>
      <point x="511" y="0"/>
      <point x="579" y="64"/>
      <point x="579" y="173" type="curve" smooth="yes"/>
      <point x="579" y="279"/>
      <point x="509" y="345"/>
      <point x="402" y="345" type="curve" smooth="yes"/>
      <point x="246" y="345" type="line"/>
      <point x="246" y="541" type="line"/>
      <point x="22" y="541" type="line"/>
      <point x="22" y="471" type="line"/>
      <point x="166" y="471" type="line"/>
    </contour>
    <contour>
      <point x="246" y="70" type="line"/>
      <point x="246" y="275" type="line"/>
      <point x="391" y="275" type="line" smooth="yes"/>
      <point x="457" y="275"/>
      <point x="493" y="250"/>
      <point x="493" y="196" type="curve" smooth="yes"/>
      <point x="493" y="150" type="line" smooth="yes"/>
      <point x="493" y="97"/>
      <point x="457" y="70"/>
      <point x="391" y="70" type="curve" smooth="yes"/>
    </contour>
  </outline>
</glyph>
<glyph name="uni044B" format="2">
  <advance width="760"/>
  <unicode hex="044B"/>
  <outline>
    <contour>
      <point x="91" y="0" type="line"/>
      <point x="318" y="0" type="line" smooth="yes"/>
      <point x="426" y="0"/>
      <point x="493" y="67"/>
      <point x="493" y="169" type="curve" smooth="yes"/>
      <point x="493" y="273"/>
      <point x="424" y="342"/>
      <point x="317" y="342" type="curve" smooth="yes"/>
      <point x="171" y="342" type="line"/>
      <point x="171" y="541" type="line"/>
      <point x="91" y="541" type="line"/>
    </contour>
    <contour>
      <point x="171" y="70" type="line"/>
      <point x="171" y="272" type="line"/>
      <point x="305" y="272" type="line" smooth="yes"/>
      <point x="370" y="272"/>
      <point x="407" y="251"/>
      <point x="407" y="195" type="curve" smooth="yes"/>
      <point x="407" y="151" type="line" smooth="yes"/>
      <point x="407" y="96"/>
      <point x="370" y="70"/>
      <point x="305" y="70" type="curve" smooth="yes"/>
    </contour>
    <contour>
      <point x="589" y="0" type="line"/>
      <point x="669" y="0" type="line"/>
      <point x="669" y="541" type="line"/>
      <point x="589" y="541" type="line"/>
    </contour>
  </outline>
</glyph>
<glyph name="uni044C" format="2">
  <advance width="546"/>
  <unicode hex="044C"/>
  <outline>
    <contour>
      <point x="92" y="0" type="line"/>
      <point x="329" y="0" type="line" smooth="yes"/>
      <point x="438" y="0"/>
      <point x="505" y="61"/>
      <point x="505" y="169" type="curve" smooth="yes"/>
      <point x="505" y="276"/>
      <point x="436" y="342"/>
      <point x="328" y="342" type="curve" smooth="yes"/>
      <point x="172" y="342" type="line"/>
      <point x="172" y="541" type="line"/>
      <point x="92" y="541" type="line"/>
    </contour>
    <contour>
      <point x="172" y="70" type="line"/>
      <point x="172" y="272" type="line"/>
      <point x="317" y="272" type="line" smooth="yes"/>
      <point x="382" y="272"/>
      <point x="419" y="251"/>
      <point x="419" y="195" type="curve" smooth="yes"/>
      <point x="419" y="148" type="line" smooth="yes"/>
      <point x="419" y="93"/>
      <point x="382" y="70"/>
      <point x="317" y="70" type="curve" smooth="yes"/>
    </contour>
  </outline>
</glyph>
<glyph name="uni2016" format="2">
  <advance width="1000"/>
  <unicode hex="2016"/>
  <outline>
    <contour>
      <point x="648" y="-120" type="line"/>
      <point x="648" y="880" type="line"/>
      <point x="602" y="880" type="line"/>
      <point x="602" y="-120" type="line"/>
    </contour>
    <contour>
      <point x="398" y="-120" type="line"/>
      <point x="398" y="880" type="line"/>
      <point x="352" y="880" type="line"/>
      <point x="352" y="-120" type="line"/>
    </contour>
  </outline>
</glyph>
<glyph name="uni2018" format="2">
  <advance width="1000"/>
  <unicode hex="2018"/>
  <anchor x="490" y="380" name="BSB"/>
  <anchor x="500" y="0" name="LSB"/>
  <anchor x="1000" y="0" name="RSB"/>
  <anchor x="510" y="880" name="TSB"/>
  <outline>
    <contour>
      <point x="852" y="587" type="curve" smooth="yes"/>
      <point x="894" y="587"/>
      <point x="913" y="611"/>
      <point x="913" y="646" type="curve" smooth="yes"/>
      <point x="913" y="660" type="line" smooth="yes"/>
      <point x="913" y="687"/>
      <point x="901" y="707"/>
      <point x="874" y="713" type="curve"/>
      <point x="885" y="760"/>
      <point x="909" y="795"/>
      <point x="949" y="837" type="curve"/>
      <point x="882" y="837" type="line"/>
      <point x="825" y="788"/>
      <point x="791" y="714"/>
      <point x="791" y="660" type="curve" smooth="yes"/>
      <point x="791" y="646" type="line" smooth="yes"/>
      <point x="791" y="611"/>
      <point x="810" y="587"/>
    </contour>
  </outline>
</glyph>
<glyph name="uni2019" format="2">
  <advance width="1000"/>
  <unicode hex="2019"/>
  <anchor x="490" y="380" name="BSB"/>
  <anchor x="0" y="0" name="LSB"/>
  <anchor x="500" y="0" name="RSB"/>
  <anchor x="510" y="880" name="TSB"/>
  <outline>
    <contour>
      <point x="148" y="847" type="curve" smooth="yes"/>
      <point x="106" y="847"/>
      <point x="87" y="823"/>
      <point x="87" y="788" type="curve" smooth="yes"/>
      <point x="87" y="774" type="line" smooth="yes"/>
      <point x="87" y="747"/>
      <point x="99" y="727"/>
      <point x="126" y="721" type="curve"/>
      <point x="115" y="674"/>
      <point x="91" y="639"/>
      <point x="51" y="597" type="curve"/>
      <point x="118" y="597" type="line"/>
      <point x="175" y="646"/>
      <point x="209" y="720"/>
      <point x="209" y="774" type="curve" smooth="yes"/>
      <point x="209" y="788" type="line" smooth="yes"/>
      <point x="209" y="823"/>
      <point x="190" y="847"/>
    </contour>
  </outline>
</glyph>
<glyph name="uni201C" format="2">
  <advance width="1000"/>
  <unicode hex="201C"/>
  <anchor x="490" y="380" name="BSB"/>
  <anchor x="500" y="0" name="LSB"/>
  <anchor x="1000" y="0" name="RSB"/>
  <anchor x="510" y="880" name="TSB"/>
  <outline>
    <contour>
      <point x="640" y="587" type="curve" smooth="yes"/>
      <point x="682" y="587"/>
      <point x="701" y="611"/>
      <point x="701" y="646" type="curve" smooth="yes"/>
      <point x="701" y="660" type="line" smooth="yes"/>
      <point x="701" y="687"/>
      <point x="689" y="707"/>
      <point x="662" y="713" type="curve"/>
      <point x="673" y="760"/>
      <point x="697" y="795"/>
      <point x="737" y="837" type="curve"/>
      <point x="670" y="837" type="line"/>
      <point x="613" y="788"/>
      <point x="579" y="714"/>
      <point x="579" y="660" type="curve" smooth="yes"/>
      <point x="579" y="646" type="line" smooth="yes"/>
      <point x="579" y="611"/>
      <point x="598" y="587"/>
    </contour>
    <contour>
      <point x="852" y="587" type="curve" smooth="yes"/>
      <point x="894" y="587"/>
      <point x="913" y="611"/>
      <point x="913" y="646" type="curve" smooth="yes"/>
      <point x="913" y="660" type="line" smooth="yes"/>
      <point x="913" y="687"/>
      <point x="901" y="707"/>
      <point x="874" y="713" type="curve"/>
      <point x="885" y="760"/>
      <point x="909" y="795"/>
      <point x="949" y="837" type="curve"/>
      <point x="882" y="837" type="line"/>
      <point x="825" y="788"/>
      <point x="791" y="714"/>
      <point x="791" y="660" type="curve" smooth="yes"/>
      <point x="791" y="646" type="line" smooth="yes"/>
      <point x="791" y="611"/>
      <point x="810" y="587"/>
    </contour>
  </outline>
</glyph>
<glyph name="uni00B7.latn" format="2">
  <advance width="341"/>
  <unicode hex="2022"/>
  <outline>
    <contour>
      <point x="170" y="266" type="curve" smooth="yes"/>
      <point x="206" y="266"/>
      <point x="224" y="285"/>
      <point x="224" y="314" type="curve" smooth="yes"/>
      <point x="224" y="328" type="line" smooth="yes"/>
      <point x="224" y="357"/>
      <point x="206" y="376"/>
      <point x="170" y="376" type="curve" smooth="yes"/>
      <point x="135" y="376"/>
      <point x="117" y="357"/>
      <point x="117" y="328" type="curve" smooth="yes"/>
      <point x="117" y="314" type="line" smooth="yes"/>
      <point x="117" y="285"/>
      <point x="135" y="266"/>
    </contour>
  </outline>
</glyph>
<glyph name="uni2025" format="2">
  <advance width="1000"/>
  <unicode hex="2025"/>
  <outline>
    <contour>
      <point x="749" y="313" type="curve" smooth="yes"/>
      <point x="791" y="313"/>
      <point x="810" y="337"/>
      <point x="810" y="371" type="curve" smooth="yes"/>
      <point x="810" y="384" type="line" smooth="yes"/>
      <point x="810" y="418"/>
      <point x="791" y="442"/>
      <point x="749" y="442" type="curve" smooth="yes"/>
      <point x="707" y="442"/>
      <point x="688" y="418"/>
      <point x="688" y="384" type="curve" smooth="yes"/>
      <point x="688" y="371" type="line" smooth="yes"/>
      <point x="688" y="337"/>
      <point x="707" y="313"/>
    </contour>
    <contour>
      <point x="251" y="313" type="curve" smooth="yes"/>
      <point x="293" y="313"/>
      <point x="312" y="337"/>
      <point x="312" y="371" type="curve" smooth="yes"/>
      <point x="312" y="384" type="line" smooth="yes"/>
      <point x="312" y="418"/>
      <point x="293" y="442"/>
      <point x="251" y="442" type="curve" smooth="yes"/>
      <point x="209" y="442"/>
      <point x="190" y="418"/>
      <point x="190" y="384" type="curve" smooth="yes"/>
      <point x="190" y="371" type="line" smooth="yes"/>
      <point x="190" y="337"/>
      <point x="209" y="313"/>
    </contour>
  </outline>
</glyph>
<glyph name="uni205D" format="2">
  <advance width="1000"/>
  <unicode hex="205D"/>
  <outline>
    <contour>
      <point x="435" y="713" type="curve" smooth="yes"/>
      <point x="435" y="671"/>
      <point x="459" y="652"/>
      <point x="493" y="652" type="curve" smooth="yes"/>
      <point x="506" y="652" type="line" smooth="yes"/>
      <point x="540" y="652"/>
      <point x="564" y="671"/>
      <point x="564" y="713" type="curve" smooth="yes"/>
      <point x="564" y="755"/>
      <point x="540" y="774"/>
      <point x="506" y="774" type="curve" smooth="yes"/>
      <point x="493" y="774" type="line" smooth="yes"/>
      <point x="459" y="774"/>
      <point x="435" y="755"/>
    </contour>
    <contour>
      <point x="435" y="380" type="curve" smooth="yes"/>
      <point x="435" y="338"/>
      <point x="459" y="319"/>
      <point x="493" y="319" type="curve" smooth="yes"/>
      <point x="506" y="319" type="line" smooth="yes"/>
      <point x="540" y="319"/>
      <point x="564" y="338"/>
      <point x="564" y="380" type="curve" smooth="yes"/>
      <point x="564" y="422"/>
      <point x="540" y="441"/>
      <point x="506" y="441" type="curve" smooth="yes"/>
      <point x="493" y="441" type="line" smooth="yes"/>
      <point x="459" y="441"/>
      <point x="435" y="422"/>
    </contour>
    <contour>
      <point x="435" y="47" type="curve" smooth="yes"/>
      <point x="435" y="5"/>
      <point x="459" y="-14"/>
      <point x="493" y="-14" type="curve" smooth="yes"/>
      <point x="506" y="-14" type="line" smooth="yes"/>
      <point x="540" y="-14"/>
      <point x="564" y="5"/>
      <point x="564" y="47" type="curve" smooth="yes"/>
      <point x="564" y="89"/>
      <point x="540" y="108"/>
      <point x="506" y="108" type="curve" smooth="yes"/>
      <point x="493" y="108" type="line" smooth="yes"/>
      <point x="459" y="108"/>
      <point x="435" y="89"/>
    </contour>
  </outline>
</glyph>
<glyph name="euro" format="2">
  <advance width="657"/>
  <unicode hex="20AC"/>
  <outline>
    <contour>
      <point x="367" y="-12" type="curve" smooth="yes"/>
      <point x="501" y="-12"/>
      <point x="577" y="58"/>
      <point x="622" y="154" type="curve"/>
      <point x="557" y="195" type="line"/>
      <point x="526" y="116"/>
      <point x="459" y="62"/>
      <point x="367" y="62" type="curve" smooth="yes"/>
      <point x="239" y="62"/>
      <point x="160" y="144"/>
      <point x="160" y="310" type="curve"/>
      <point x="160" y="424" type="line"/>
      <point x="160" y="590"/>
      <point x="237" y="672"/>
      <point x="367" y="672" type="curve" smooth="yes"/>
      <point x="456" y="672"/>
      <point x="522" y="622"/>
      <point x="552" y="547" type="curve"/>
      <point x="617" y="585" type="line"/>
      <point x="571" y="686"/>
      <point x="489" y="746"/>
      <point x="367" y="746" type="curve" smooth="yes"/>
      <point x="182" y="746"/>
      <point x="73" y="612"/>
      <point x="73" y="367" type="curve" smooth="yes"/>
      <point x="73" y="122"/>
      <point x="182" y="-12"/>
    </contour>
    <contour>
      <point x="438" y="248" type="line"/>
      <point x="438" y="315" type="line"/>
      <point x="134" y="315" type="line"/>
      <point x="134" y="248" type="line"/>
    </contour>
    <contour>
      <point x="438" y="419" type="line"/>
      <point x="438" y="486" type="line"/>
      <point x="134" y="486" type="line"/>
      <point x="134" y="419" type="line"/>
    </contour>
  </outline>
</glyph>
<glyph name="uni2103" format="2">
  <advance width="1000"/>
  <unicode hex="2103"/>
  <outline>
    <contour>
      <point x="181" y="461" type="curve" smooth="yes"/>
      <point x="260" y="461"/>
      <point x="321" y="523"/>
      <point x="321" y="604" type="curve" smooth="yes"/>
      <point x="321" y="685"/>
      <point x="260" y="747"/>
      <point x="181" y="747" type="curve" smooth="yes"/>
      <point x="102" y="747"/>
      <point x="41" y="685"/>
      <point x="41" y="604" type="curve" smooth="yes"/>
      <point x="41" y="523"/>
      <point x="102" y="461"/>
    </contour>
    <contour>
      <point x="181" y="510" type="curve" smooth="yes"/>
      <point x="128" y="510"/>
      <point x="94" y="552"/>
      <point x="94" y="604" type="curve" smooth="yes"/>
      <point x="94" y="656"/>
      <point x="128" y="698"/>
      <point x="181" y="698" type="curve" smooth="yes"/>
      <point x="234" y="698"/>
      <point x="268" y="656"/>
      <point x="268" y="604" type="curve" smooth="yes"/>
      <point x="268" y="552"/>
      <point x="234" y="510"/>
    </contour>
    <contour>
      <point x="699" y="-13" type="curve" smooth="yes"/>
      <point x="821" y="-13"/>
      <point x="910" y="51"/>
      <point x="955" y="154" type="curve"/>
      <point x="888" y="196" type="line"/>
      <point x="857" y="115"/>
      <point x="793" y="62"/>
      <point x="699" y="62" type="curve" smooth="yes"/>
      <point x="571" y="62"/>
      <point x="496" y="155"/>
      <point x="496" y="310" type="curve" smooth="yes"/>
      <point x="496" y="416" type="line" smooth="yes"/>
      <point x="496" y="571"/>
      <point x="571" y="671"/>
      <point x="699" y="671" type="curve" smooth="yes"/>
      <point x="790" y="671"/>
      <point x="851" y="621"/>
      <point x="882" y="545" type="curve"/>
      <point x="950" y="586" type="line"/>
      <point x="904" y="687"/>
      <point x="821" y="746"/>
      <point x="699" y="746" type="curve" smooth="yes"/>
      <point x="515" y="746"/>
      <point x="406" y="608"/>
      <point x="406" y="362" type="curve" smooth="yes"/>
      <point x="406" y="118"/>
      <point x="515" y="-13"/>
    </contour>
  </outline>
</glyph>
<glyph name="uni2116" format="2">
  <advance width="1000"/>
  <unicode hex="2116"/>
  <outline>
    <contour>
      <point x="174" y="0" type="line"/>
      <point x="174" y="595" type="line"/>
      <point x="177" y="595" type="line"/>
      <point x="244" y="447" type="line"/>
      <point x="472" y="0" type="line"/>
      <point x="574" y="0" type="line"/>
      <point x="574" y="733" type="line"/>
      <point x="488" y="733" type="line"/>
      <point x="488" y="139" type="line"/>
      <point x="484" y="139" type="line"/>
      <point x="415" y="286" type="line"/>
      <point x="190" y="733" type="line"/>
      <point x="88" y="733" type="line"/>
      <point x="88" y="0" type="line"/>
    </contour>
    <contour>
      <point x="949" y="256" type="line"/>
      <point x="949" y="324" type="line"/>
      <point x="666" y="324" type="line"/>
      <point x="666" y="256" type="line"/>
    </contour>
    <contour>
      <point x="807" y="382" type="curve" smooth="yes"/>
      <point x="898" y="382"/>
      <point x="965" y="448"/>
      <point x="965" y="564" type="curve" smooth="yes"/>
      <point x="965" y="679"/>
      <point x="898" y="745"/>
      <point x="807" y="745" type="curve" smooth="yes"/>
      <point x="717" y="745"/>
      <point x="649" y="679"/>
      <point x="649" y="564" type="curve" smooth="yes"/>
      <point x="649" y="448"/>
      <point x="717" y="382"/>
    </contour>
    <contour>
      <point x="807" y="438" type="curve" smooth="yes"/>
      <point x="753" y="438"/>
      <point x="723" y="481"/>
      <point x="723" y="534" type="curve" smooth="yes"/>
      <point x="723" y="593" type="line" smooth="yes"/>
      <point x="723" y="647"/>
      <point x="753" y="690"/>
      <point x="807" y="690" type="curve" smooth="yes"/>
      <point x="862" y="690"/>
      <point x="892" y="647"/>
      <point x="892" y="593" type="curve" smooth="yes"/>
      <point x="892" y="534" type="line" smooth="yes"/>
      <point x="892" y="481"/>
      <point x="862" y="438"/>
    </contour>
  </outline>
</glyph>
<glyph name="uni2121" format="2">
  <advance width="1000"/>
  <unicode hex="2121"/>
  <outline>
    <contour>
      <point x="380" y="659" type="line"/>
      <point x="380" y="733" type="line"/>
      <point x="53" y="733" type="line"/>
      <point x="53" y="659" type="line"/>
      <point x="175" y="659" type="line"/>
      <point x="175" y="0" type="line"/>
      <point x="258" y="0" type="line"/>
      <point x="258" y="659" type="line"/>
    </contour>
    <contour>
      <point x="657" y="0" type="line"/>
      <point x="657" y="74" type="line"/>
      <point x="472" y="74" type="line"/>
      <point x="472" y="242" type="line"/>
      <point x="636" y="242" type="line"/>
      <point x="636" y="316" type="line"/>
      <point x="472" y="316" type="line"/>
      <point x="472" y="465" type="line"/>
      <point x="657" y="465" type="line"/>
      <point x="657" y="539" type="line"/>
      <point x="388" y="539" type="line"/>
      <point x="388" y="0" type="line"/>
    </contour>
    <contour>
      <point x="947" y="0" type="line"/>
      <point x="947" y="74" type="line"/>
      <point x="784" y="74" type="line"/>
      <point x="784" y="539" type="line"/>
      <point x="700" y="539" type="line"/>
      <point x="700" y="0" type="line"/>
    </contour>
  </outline>
</glyph>
<glyph name="uni2162" format="2">
  <advance width="1000"/>
  <unicode hex="2162"/>
  <outline>
    <contour>
      <point x="28" y="0" type="line"/>
      <point x="317" y="0" type="line"/>
      <point x="317" y="70" type="line"/>
      <point x="215" y="70" type="line"/>
      <point x="215" y="663" type="line"/>
      <point x="317" y="663" type="line"/>
      <point x="317" y="733" type="line"/>
      <point x="28" y="733" type="line"/>
      <point x="28" y="663" type="line"/>
      <point x="131" y="663" type="line"/>
      <point x="131" y="70" type="line"/>
      <point x="28" y="70" type="line"/>
    </contour>
    <contour>
      <point x="355" y="0" type="line"/>
      <point x="645" y="0" type="line"/>
      <point x="645" y="70" type="line"/>
      <point x="542" y="70" type="line"/>
      <point x="542" y="663" type="line"/>
      <point x="645" y="663" type="line"/>
      <point x="645" y="733" type="line"/>
      <point x="355" y="733" type="line"/>
      <point x="355" y="663" type="line"/>
      <point x="458" y="663" type="line"/>
      <point x="458" y="70" type="line"/>
      <point x="355" y="70" type="line"/>
    </contour>
    <contour>
      <point x="683" y="0" type="line"/>
      <point x="972" y="0" type="line"/>
      <point x="972" y="70" type="line"/>
      <point x="869" y="70" type="line"/>
      <point x="869" y="663" type="line"/>
      <point x="972" y="663" type="line"/>
      <point x="972" y="733" type="line"/>
      <point x="683" y="733" type="line"/>
      <point x="683" y="663" type="line"/>
      <point x="785" y="663" type="line"/>
      <point x="785" y="70" type="line"/>
      <point x="683" y="70" type="line"/>
    </contour>
  </outline>
</glyph>
<glyph name="uni2165" format="2">
  <advance width="1000"/>
  <unicode hex="2165"/>
  <outline>
    <contour>
      <point x="367" y="0" type="line"/>
      <point x="614" y="733" type="line"/>
      <point x="523" y="733" type="line"/>
      <point x="401" y="363" type="line"/>
      <point x="318" y="88" type="line"/>
      <point x="313" y="88" type="line"/>
      <point x="232" y="363" type="line"/>
      <point x="111" y="733" type="line"/>
      <point x="17" y="733" type="line"/>
      <point x="260" y="0" type="line"/>
    </contour>
    <contour>
      <point x="952" y="0" type="line"/>
      <point x="952" y="69" type="line"/>
      <point x="847" y="69" type="line"/>
      <point x="847" y="663" type="line"/>
      <point x="952" y="663" type="line"/>
      <point x="952" y="733" type="line"/>
      <point x="658" y="733" type="line"/>
      <point x="658" y="663" type="line"/>
      <point x="763" y="663" type="line"/>
      <point x="763" y="69" type="line"/>
      <point x="658" y="69" type="line"/>
      <point x="658" y="0" type="line"/>
    </contour>
  </outline>
</glyph>
<glyph name="uni2168" format="2">
  <advance width="1000"/>
  <unicode hex="2168"/>
  <outline>
    <contour>
      <point x="490" y="0" type="line"/>
      <point x="682" y="308" type="line"/>
      <point x="684" y="308" type="line"/>
      <point x="876" y="0" type="line"/>
      <point x="977" y="0" type="line"/>
      <point x="736" y="376" type="line"/>
      <point x="971" y="733" type="line"/>
      <point x="875" y="733" type="line"/>
      <point x="687" y="441" type="line"/>
      <point x="685" y="441" type="line"/>
      <point x="502" y="733" type="line"/>
      <point x="401" y="733" type="line"/>
      <point x="634" y="373" type="line"/>
      <point x="394" y="0" type="line"/>
    </contour>
    <contour>
      <point x="342" y="0" type="line"/>
      <point x="342" y="70" type="line"/>
      <point x="237" y="70" type="line"/>
      <point x="237" y="663" type="line"/>
      <point x="342" y="663" type="line"/>
      <point x="342" y="733" type="line"/>
      <point x="48" y="733" type="line"/>
      <point x="48" y="663" type="line"/>
      <point x="153" y="663" type="line"/>
      <point x="153" y="70" type="line"/>
      <point x="48" y="70" type="line"/>
      <point x="48" y="0" type="line"/>
    </contour>
  </outline>
</glyph>
<glyph name="uni2171" format="2">
  <advance width="1000"/>
  <unicode hex="2171"/>
  <outline>
    <contour>
      <point x="702" y="0" type="line"/>
      <point x="702" y="542" type="line"/>
      <point x="622" y="542" type="line"/>
      <point x="622" y="0" type="line"/>
    </contour>
    <contour>
      <point x="376" y="0" type="line"/>
      <point x="376" y="542" type="line"/>
      <point x="296" y="542" type="line"/>
      <point x="296" y="0" type="line"/>
    </contour>
    <contour>
      <point x="336" y="672" type="curve" smooth="yes"/>
      <point x="370" y="672"/>
      <point x="385" y="690"/>
      <point x="385" y="717" type="curve" smooth="yes"/>
      <point x="385" y="730" type="line" smooth="yes"/>
      <point x="385" y="757"/>
      <point x="370" y="775"/>
      <point x="336" y="775" type="curve" smooth="yes"/>
      <point x="302" y="775"/>
      <point x="287" y="757"/>
      <point x="287" y="730" type="curve" smooth="yes"/>
      <point x="287" y="717" type="line" smooth="yes"/>
      <point x="287" y="690"/>
      <point x="302" y="672"/>
    </contour>
    <contour>
      <point x="662" y="672" type="curve" smooth="yes"/>
      <point x="696" y="672"/>
      <point x="711" y="690"/>
      <point x="711" y="717" type="curve" smooth="yes"/>
      <point x="711" y="730" type="line" smooth="yes"/>
      <point x="711" y="757"/>
      <point x="696" y="775"/>
      <point x="662" y="775" type="curve" smooth="yes"/>
      <point x="628" y="775"/>
      <point x="613" y="757"/>
      <point x="613" y="730" type="curve" smooth="yes"/>
      <point x="613" y="717" type="line" smooth="yes"/>
      <point x="613" y="690"/>
      <point x="628" y="672"/>
    </contour>
  </outline>
</glyph>
<glyph name="uni2172" format="2">
  <advance width="1000"/>
  <unicode hex="2172"/>
  <outline>
    <contour>
      <point x="833" y="0" type="line"/>
      <point x="833" y="542" type="line"/>
      <point x="753" y="542" type="line"/>
      <point x="753" y="0" type="line"/>
    </contour>
    <contour>
      <point x="246" y="0" type="line"/>
      <point x="246" y="542" type="line"/>
      <point x="166" y="542" type="line"/>
      <point x="166" y="0" type="line"/>
    </contour>
    <contour>
      <point x="540" y="0" type="line"/>
      <point x="540" y="542" type="line"/>
      <point x="460" y="542" type="line"/>
      <point x="460" y="0" type="line"/>
    </contour>
    <contour>
      <point x="206" y="672" type="curve" smooth="yes"/>
      <point x="240" y="672"/>
      <point x="255" y="690"/>
      <point x="255" y="717" type="curve" smooth="yes"/>
      <point x="255" y="730" type="line" smooth="yes"/>
      <point x="255" y="757"/>
      <point x="240" y="775"/>
      <point x="206" y="775" type="curve" smooth="yes"/>
      <point x="172" y="775"/>
      <point x="157" y="757"/>
      <point x="157" y="730" type="curve" smooth="yes"/>
      <point x="157" y="717" type="line" smooth="yes"/>
      <point x="157" y="690"/>
      <point x="172" y="672"/>
    </contour>
    <contour>
      <point x="501" y="672" type="curve" smooth="yes"/>
      <point x="535" y="672"/>
      <point x="550" y="690"/>
      <point x="550" y="717" type="curve" smooth="yes"/>
      <point x="550" y="730" type="line" smooth="yes"/>
      <point x="550" y="757"/>
      <point x="535" y="775"/>
      <point x="501" y="775" type="curve" smooth="yes"/>
      <point x="467" y="775"/>
      <point x="452" y="757"/>
      <point x="452" y="730" type="curve" smooth="yes"/>
      <point x="452" y="717" type="line" smooth="yes"/>
      <point x="452" y="690"/>
      <point x="467" y="672"/>
    </contour>
    <contour>
      <point x="794" y="672" type="curve" smooth="yes"/>
      <point x="828" y="672"/>
      <point x="843" y="690"/>
      <point x="843" y="717" type="curve" smooth="yes"/>
      <point x="843" y="730" type="line" smooth="yes"/>
      <point x="843" y="757"/>
      <point x="828" y="775"/>
      <point x="794" y="775" type="curve" smooth="yes"/>
      <point x="760" y="775"/>
      <point x="745" y="757"/>
      <point x="745" y="730" type="curve" smooth="yes"/>
      <point x="745" y="717" type="line" smooth="yes"/>
      <point x="745" y="690"/>
      <point x="760" y="672"/>
    </contour>
  </outline>
</glyph>
<glyph name="uni2173" format="2">
  <advance width="1000"/>
  <unicode hex="2173"/>
  <outline>
    <contour>
      <point x="677" y="0" type="line"/>
      <point x="868" y="542" type="line"/>
      <point x="787" y="542" type="line"/>
      <point x="690" y="273" type="line"/>
      <point x="631" y="88" type="line"/>
      <point x="626" y="88" type="line"/>
      <point x="567" y="273" type="line"/>
      <point x="473" y="542" type="line"/>
      <point x="389" y="542" type="line"/>
      <point x="579" y="0" type="line"/>
    </contour>
    <contour>
      <point x="264" y="0" type="line"/>
      <point x="264" y="542" type="line"/>
      <point x="184" y="542" type="line"/>
      <point x="184" y="0" type="line"/>
    </contour>
    <contour>
      <point x="224" y="672" type="curve" smooth="yes"/>
      <point x="258" y="672"/>
      <point x="273" y="690"/>
      <point x="273" y="717" type="curve" smooth="yes"/>
      <point x="273" y="730" type="line" smooth="yes"/>
      <point x="273" y="757"/>
      <point x="258" y="775"/>
      <point x="224" y="775" type="curve" smooth="yes"/>
      <point x="190" y="775"/>
      <point x="175" y="757"/>
      <point x="175" y="730" type="curve" smooth="yes"/>
      <point x="175" y="717" type="line" smooth="yes"/>
      <point x="175" y="690"/>
      <point x="190" y="672"/>
    </contour>
  </outline>
</glyph>
<glyph name="uni2177" format="2">
  <advance width="1000"/>
  <unicode hex="2177"/>
  <outline>
    <contour>
      <point x="275" y="0" type="line"/>
      <point x="428" y="542" type="line"/>
      <point x="349" y="542" type="line"/>
      <point x="272" y="273" type="line"/>
      <point x="225" y="88" type="line"/>
      <point x="220" y="88" type="line"/>
      <point x="173" y="273" type="line"/>
      <point x="98" y="542" type="line"/>
      <point x="17" y="542" type="line"/>
      <point x="169" y="0" type="line"/>
    </contour>
    <contour>
      <point x="559" y="0" type="line"/>
      <point x="559" y="542" type="line"/>
      <point x="481" y="542" type="line"/>
      <point x="481" y="0" type="line"/>
    </contour>
    <contour>
      <point x="748" y="0" type="line"/>
      <point x="748" y="542" type="line"/>
      <point x="670" y="542" type="line"/>
      <point x="670" y="0" type="line"/>
    </contour>
    <contour>
      <point x="939" y="0" type="line"/>
      <point x="939" y="542" type="line"/>
      <point x="861" y="542" type="line"/>
      <point x="861" y="0" type="line"/>
    </contour>
    <contour>
      <point x="520" y="669" type="curve" smooth="yes"/>
      <point x="553" y="669"/>
      <point x="569" y="688"/>
      <point x="569" y="716" type="curve" smooth="yes"/>
      <point x="569" y="730" type="line" smooth="yes"/>
      <point x="569" y="758"/>
      <point x="553" y="777"/>
      <point x="520" y="777" type="curve" smooth="yes"/>
      <point x="485" y="777"/>
      <point x="472" y="758"/>
      <point x="472" y="730" type="curve" smooth="yes"/>
      <point x="472" y="716" type="line" smooth="yes"/>
      <point x="472" y="688"/>
      <point x="485" y="669"/>
    </contour>
    <contour>
      <point x="710" y="669" type="curve" smooth="yes"/>
      <point x="743" y="669"/>
      <point x="759" y="688"/>
      <point x="759" y="716" type="curve" smooth="yes"/>
      <point x="759" y="730" type="line" smooth="yes"/>
      <point x="759" y="758"/>
      <point x="743" y="777"/>
      <point x="710" y="777" type="curve" smooth="yes"/>
      <point x="675" y="777"/>
      <point x="662" y="758"/>
      <point x="662" y="730" type="curve" smooth="yes"/>
      <point x="662" y="716" type="line" smooth="yes"/>
      <point x="662" y="688"/>
      <point x="675" y="669"/>
    </contour>
    <contour>
      <point x="900" y="669" type="curve" smooth="yes"/>
      <point x="933" y="669"/>
      <point x="949" y="688"/>
      <point x="949" y="716" type="curve" smooth="yes"/>
      <point x="949" y="730" type="line" smooth="yes"/>
      <point x="949" y="758"/>
      <point x="933" y="777"/>
      <point x="900" y="777" type="curve" smooth="yes"/>
      <point x="865" y="777"/>
      <point x="852" y="758"/>
      <point x="852" y="730" type="curve" smooth="yes"/>
      <point x="852" y="716" type="line" smooth="yes"/>
      <point x="852" y="688"/>
      <point x="865" y="669"/>
    </contour>
  </outline>
</glyph>
<glyph name="uni2190" format="2">
  <advance width="1000"/>
  <unicode hex="2190"/>
  <outline>
    <contour>
      <point x="394" y="210" type="line"/>
      <point x="297" y="306" type="line"/>
      <point x="247" y="348" type="line"/>
      <point x="248" y="351" type="line"/>
      <point x="345" y="345" type="line"/>
      <point x="873" y="345" type="line"/>
      <point x="873" y="413" type="line"/>
      <point x="345" y="413" type="line"/>
      <point x="248" y="407" type="line"/>
      <point x="247" y="410" type="line"/>
      <point x="297" y="452" type="line"/>
      <point x="394" y="548" type="line"/>
      <point x="345" y="596" type="line"/>
      <point x="128" y="379" type="line"/>
      <point x="345" y="162" type="line"/>
    </contour>
  </outline>
</glyph>
<glyph name="uni2192" format="2">
  <advance width="1000"/>
  <unicode hex="2192"/>
  <outline>
    <contour>
      <point x="872" y="379" type="line"/>
      <point x="655" y="596" type="line"/>
      <point x="606" y="548" type="line"/>
      <point x="703" y="452" type="line"/>
      <point x="753" y="410" type="line"/>
      <point x="752" y="407" type="line"/>
      <point x="655" y="413" type="line"/>
      <point x="127" y="413" type="line"/>
      <point x="127" y="345" type="line"/>
      <point x="655" y="345" type="line"/>
      <point x="752" y="351" type="line"/>
      <point x="753" y="348" type="line"/>
      <point x="703" y="306" type="line"/>
      <point x="606" y="210" type="line"/>
      <point x="655" y="162" type="line"/>
    </contour>
  </outline>
</glyph>
<glyph name="uni2193" format="2">
  <advance width="1000"/>
  <unicode hex="2193"/>
  <outline>
    <contour>
      <point x="669" y="266" type="line"/>
      <point x="573" y="169" type="line"/>
      <point x="531" y="119" type="line"/>
      <point x="528" y="120" type="line"/>
      <point x="534" y="217" type="line"/>
      <point x="534" y="743" type="line"/>
      <point x="466" y="743" type="line"/>
      <point x="466" y="217" type="line"/>
      <point x="472" y="120" type="line"/>
      <point x="469" y="119" type="line"/>
      <point x="427" y="169" type="line"/>
      <point x="331" y="266" type="line"/>
      <point x="283" y="217" type="line"/>
      <point x="500" y="0" type="line"/>
      <point x="717" y="217" type="line"/>
    </contour>
  </outline>
</glyph>
<glyph name="uni2194" format="2">
  <advance width="1000"/>
  <unicode hex="2194"/>
  <outline>
    <contour>
      <point x="395" y="210" type="line"/>
      <point x="304" y="299" type="line"/>
      <point x="248" y="347" type="line"/>
      <point x="249" y="351" type="line"/>
      <point x="355" y="345" type="line"/>
      <point x="645" y="345" type="line"/>
      <point x="751" y="351" type="line"/>
      <point x="752" y="347" type="line"/>
      <point x="696" y="299" type="line"/>
      <point x="605" y="210" type="line"/>
      <point x="654" y="162" type="line"/>
      <point x="873" y="379" type="line"/>
      <point x="654" y="596" type="line"/>
      <point x="605" y="548" type="line"/>
      <point x="696" y="459" type="line"/>
      <point x="752" y="411" type="line"/>
      <point x="751" y="407" type="line"/>
      <point x="645" y="413" type="line"/>
      <point x="355" y="413" type="line"/>
      <point x="249" y="407" type="line"/>
      <point x="248" y="411" type="line"/>
      <point x="304" y="459" type="line"/>
      <point x="395" y="548" type="line"/>
      <point x="346" y="596" type="line"/>
      <point x="127" y="379" type="line"/>
      <point x="346" y="162" type="line"/>
    </contour>
  </outline>
</glyph>
<glyph name="uni2195" format="2">
  <advance width="1000"/>
  <unicode hex="2195"/>
  <outline>
    <contour>
      <point x="717" y="219" type="line"/>
      <point x="669" y="268" type="line"/>
      <point x="580" y="177" type="line"/>
      <point x="532" y="121" type="line"/>
      <point x="528" y="122" type="line"/>
      <point x="534" y="228" type="line"/>
      <point x="534" y="531" type="line"/>
      <point x="528" y="637" type="line"/>
      <point x="532" y="638" type="line"/>
      <point x="580" y="582" type="line"/>
      <point x="669" y="491" type="line"/>
      <point x="717" y="540" type="line"/>
      <point x="500" y="759" type="line"/>
      <point x="283" y="540" type="line"/>
      <point x="331" y="491" type="line"/>
      <point x="420" y="582" type="line"/>
      <point x="468" y="638" type="line"/>
      <point x="472" y="637" type="line"/>
      <point x="466" y="531" type="line"/>
      <point x="466" y="228" type="line"/>
      <point x="472" y="122" type="line"/>
      <point x="468" y="121" type="line"/>
      <point x="420" y="177" type="line"/>
      <point x="331" y="268" type="line"/>
      <point x="283" y="219" type="line"/>
      <point x="500" y="0" type="line"/>
    </contour>
  </outline>
</glyph>
<glyph name="uni2196" format="2">
  <advance width="1000"/>
  <unicode hex="2196"/>
  <outline>
    <contour>
      <point x="792" y="150" type="line"/>
      <point x="401" y="542" type="line"/>
      <point x="343" y="596" type="line"/>
      <point x="345" y="598" type="line"/>
      <point x="411" y="595" type="line"/>
      <point x="551" y="595" type="line"/>
      <point x="551" y="655" type="line"/>
      <point x="241" y="655" type="line"/>
      <point x="241" y="345" type="line"/>
      <point x="302" y="345" type="line"/>
      <point x="302" y="485" type="line"/>
      <point x="298" y="552" type="line"/>
      <point x="301" y="554" type="line"/>
      <point x="355" y="496" type="line"/>
      <point x="747" y="105" type="line"/>
    </contour>
  </outline>
</glyph>
<glyph name="uni21AA" format="2">
  <advance width="1000"/>
  <unicode hex="21AA"/>
  <outline>
    <contour>
      <point x="873" y="319" type="line"/>
      <point x="653" y="536" type="line"/>
      <point x="605" y="487" type="line"/>
      <point x="699" y="395" type="line"/>
      <point x="753" y="350" type="line"/>
      <point x="752" y="347" type="line"/>
      <point x="645" y="352" type="line"/>
      <point x="343" y="352" type="line" smooth="yes"/>
      <point x="268" y="352"/>
      <point x="201" y="390"/>
      <point x="201" y="478" type="curve" smooth="yes"/>
      <point x="201" y="567"/>
      <point x="268" y="605"/>
      <point x="343" y="605" type="curve"/>
      <point x="343" y="673" type="line"/>
      <point x="227" y="673"/>
      <point x="127" y="608"/>
      <point x="127" y="478" type="curve" smooth="yes"/>
      <point x="127" y="349"/>
      <point x="227" y="284"/>
      <point x="343" y="284" type="curve" smooth="yes"/>
      <point x="645" y="284" type="line"/>
      <point x="752" y="291" type="line"/>
      <point x="753" y="288" type="line"/>
      <point x="699" y="242" type="line"/>
      <point x="605" y="150" type="line"/>
      <point x="653" y="101" type="line"/>
    </contour>
  </outline>
</glyph>
<glyph name="uni21B1" format="2">
  <advance width="1000"/>
  <unicode hex="21B1"/>
  <outline>
    <contour>
      <point x="356" y="14" type="line"/>
      <point x="356" y="504" type="line"/>
      <point x="582" y="504" type="line"/>
      <point x="687" y="510" type="line"/>
      <point x="688" y="507" type="line"/>
      <point x="634" y="459" type="line"/>
      <point x="543" y="368" type="line"/>
      <point x="591" y="320" type="line"/>
      <point x="808" y="537" type="line"/>
      <point x="591" y="755" type="line"/>
      <point x="543" y="706" type="line"/>
      <point x="634" y="616" type="line"/>
      <point x="688" y="569" type="line"/>
      <point x="687" y="566" type="line"/>
      <point x="582" y="572" type="line"/>
      <point x="288" y="572" type="line"/>
      <point x="288" y="14" type="line"/>
    </contour>
  </outline>
</glyph>
<glyph name="uni21B6" format="2">
  <advance width="1000"/>
  <unicode hex="21B6"/>
  <outline>
    <contour>
      <point x="517" y="280" type="line"/>
      <point x="468" y="328" type="line"/>
      <point x="374" y="232" type="line"/>
      <point x="332" y="182" type="line"/>
      <point x="329" y="183" type="line"/>
      <point x="335" y="291" type="line"/>
      <point x="335" y="345" type="line" smooth="yes"/>
      <point x="335" y="499"/>
      <point x="412" y="641"/>
      <point x="591" y="641" type="curve" smooth="yes"/>
      <point x="772" y="641"/>
      <point x="848" y="499"/>
      <point x="848" y="345" type="curve"/>
      <point x="916" y="345" type="line"/>
      <point x="916" y="539"/>
      <point x="807" y="705"/>
      <point x="591" y="705" type="curve" smooth="yes"/>
      <point x="376" y="705"/>
      <point x="267" y="539"/>
      <point x="267" y="345" type="curve" smooth="yes"/>
      <point x="267" y="291" type="line"/>
      <point x="273" y="183" type="line"/>
      <point x="270" y="182" type="line"/>
      <point x="228" y="232" type="line"/>
      <point x="134" y="328" type="line"/>
      <point x="85" y="280" type="line"/>
      <point x="301" y="63" type="line"/>
    </contour>
  </outline>
</glyph>
<glyph name="uni21BB" format="2">
  <advance width="1000"/>
  <unicode hex="21BB"/>
  <outline>
    <contour>
      <point x="496" y="5" type="curve" smooth="yes"/>
      <point x="686" y="5"/>
      <point x="837" y="141"/>
      <point x="837" y="328" type="curve" smooth="yes"/>
      <point x="837" y="460"/>
      <point x="761" y="569"/>
      <point x="654" y="634" type="curve"/>
      <point x="619" y="583" type="line"/>
      <point x="713" y="522"/>
      <point x="769" y="446"/>
      <point x="769" y="328" type="curve" smooth="yes"/>
      <point x="769" y="170"/>
      <point x="646" y="69"/>
      <point x="496" y="69" type="curve" smooth="yes"/>
      <point x="348" y="69"/>
      <point x="232" y="179"/>
      <point x="232" y="319" type="curve" smooth="yes"/>
      <point x="232" y="448"/>
      <point x="299" y="505"/>
      <point x="392" y="583" type="curve" smooth="yes"/>
      <point x="449" y="631" type="line"/>
      <point x="453" y="630" type="line"/>
      <point x="448" y="555" type="line"/>
      <point x="448" y="435" type="line"/>
      <point x="516" y="435" type="line"/>
      <point x="516" y="743" type="line"/>
      <point x="208" y="743" type="line"/>
      <point x="208" y="675" type="line"/>
      <point x="328" y="675" type="line"/>
      <point x="406" y="680" type="line"/>
      <point x="407" y="676" type="line"/>
      <point x="353" y="631" type="line" smooth="yes"/>
      <point x="271" y="563"/>
      <point x="164" y="484"/>
      <point x="164" y="319" type="curve" smooth="yes"/>
      <point x="164" y="145"/>
      <point x="312" y="5"/>
    </contour>
  </outline>
</glyph>
<glyph name="uni21C4" format="2">
  <advance width="1000"/>
  <unicode hex="21C4"/>
  <outline>
    <contour>
      <point x="870" y="558" type="line"/>
      <point x="656" y="772" type="line"/>
      <point x="607" y="724" type="line"/>
      <point x="701" y="631" type="line"/>
      <point x="751" y="589" type="line"/>
      <point x="750" y="586" type="line"/>
      <point x="653" y="592" type="line"/>
      <point x="130" y="592" type="line"/>
      <point x="130" y="524" type="line"/>
      <point x="653" y="524" type="line"/>
      <point x="750" y="530" type="line"/>
      <point x="751" y="527" type="line"/>
      <point x="701" y="485" type="line"/>
      <point x="607" y="392" type="line"/>
      <point x="656" y="344" type="line"/>
    </contour>
    <contour>
      <point x="393" y="36" type="line"/>
      <point x="299" y="129" type="line"/>
      <point x="249" y="171" type="line"/>
      <point x="250" y="174" type="line"/>
      <point x="347" y="168" type="line"/>
      <point x="870" y="168" type="line"/>
      <point x="870" y="236" type="line"/>
      <point x="347" y="236" type="line"/>
      <point x="250" y="230" type="line"/>
      <point x="249" y="233" type="line"/>
      <point x="299" y="275" type="line"/>
      <point x="393" y="368" type="line"/>
      <point x="344" y="416" type="line"/>
      <point x="130" y="202" type="line"/>
      <point x="344" y="-12" type="line"/>
    </contour>
  </outline>
</glyph>
<glyph name="uni21C6" format="2">
  <advance width="1000"/>
  <unicode hex="21C6"/>
  <outline>
    <contour>
      <point x="393" y="392" type="line"/>
      <point x="299" y="485" type="line"/>
      <point x="249" y="527" type="line"/>
      <point x="250" y="530" type="line"/>
      <point x="347" y="524" type="line"/>
      <point x="870" y="524" type="line"/>
      <point x="870" y="592" type="line"/>
      <point x="347" y="592" type="line"/>
      <point x="250" y="586" type="line"/>
      <point x="249" y="589" type="line"/>
      <point x="299" y="631" type="line"/>
      <point x="393" y="724" type="line"/>
      <point x="344" y="772" type="line"/>
      <point x="130" y="558" type="line"/>
      <point x="344" y="344" type="line"/>
    </contour>
    <contour>
      <point x="870" y="202" type="line"/>
      <point x="656" y="416" type="line"/>
      <point x="607" y="368" type="line"/>
      <point x="701" y="275" type="line"/>
      <point x="751" y="233" type="line"/>
      <point x="750" y="230" type="line"/>
      <point x="653" y="236" type="line"/>
      <point x="130" y="236" type="line"/>
      <point x="130" y="168" type="line"/>
      <point x="653" y="168" type="line"/>
      <point x="750" y="174" type="line"/>
      <point x="751" y="171" type="line"/>
      <point x="701" y="129" type="line"/>
      <point x="607" y="36" type="line"/>
      <point x="656" y="-12" type="line"/>
    </contour>
  </outline>
</glyph>
<glyph name="uni2208" format="2">
  <advance width="1000"/>
  <unicode hex="2208"/>
  <outline>
    <contour>
      <point x="837" y="418" type="line"/>
      <point x="209" y="418" type="line"/>
      <point x="217" y="497"/>
      <point x="268" y="562"/>
      <point x="384" y="562" type="curve" smooth="yes"/>
      <point x="839" y="562" type="line"/>
      <point x="839" y="635" type="line"/>
      <point x="387" y="635" type="line" smooth="yes"/>
      <point x="204" y="635"/>
      <point x="130" y="521"/>
      <point x="130" y="383" type="curve" smooth="yes"/>
      <point x="130" y="240"/>
      <point x="205" y="124"/>
      <point x="389" y="124" type="curve" smooth="yes"/>
      <point x="839" y="124" type="line"/>
      <point x="839" y="197" type="line"/>
      <point x="384" y="197" type="line" smooth="yes"/>
      <point x="267" y="197"/>
      <point x="216" y="264"/>
      <point x="209" y="347" type="curve"/>
      <point x="837" y="347" type="line"/>
    </contour>
  </outline>
</glyph>
<glyph name="uni221A" format="2">
  <advance width="1000"/>
  <unicode hex="221A"/>
  <outline>
    <contour>
      <point x="355" y="-77" type="line"/>
      <point x="645" y="880" type="line"/>
      <point x="567" y="880" type="line"/>
      <point x="381" y="273" type="line"/>
      <point x="303" y="-10" type="line"/>
      <point x="298" y="-10" type="line"/>
      <point x="223" y="273" type="line"/>
      <point x="178" y="439" type="line"/>
      <point x="18" y="439" type="line"/>
      <point x="18" y="375" type="line"/>
      <point x="117" y="375" type="line"/>
      <point x="242" y="-77" type="line"/>
    </contour>
    <contour>
      <point x="581" y="879" type="line"/>
      <point x="581" y="811" type="line"/>
      <point x="999" y="811" type="line"/>
      <point x="999" y="879" type="line"/>
    </contour>
  </outline>
</glyph>
<glyph name="uni221E" format="2">
  <advance width="1000"/>
  <unicode hex="221E"/>
  <outline>
    <contour>
      <point x="326" y="191" type="curve" smooth="yes"/>
      <point x="399" y="191"/>
      <point x="471" y="249"/>
      <point x="487" y="338" type="curve"/>
      <point x="491" y="338" type="line"/>
      <point x="519" y="240"/>
      <point x="590" y="191"/>
      <point x="675" y="191" type="curve" smooth="yes"/>
      <point x="790" y="191"/>
      <point x="854" y="262"/>
      <point x="854" y="381" type="curve" smooth="yes"/>
      <point x="854" y="501"/>
      <point x="790" y="571"/>
      <point x="675" y="571" type="curve" smooth="yes"/>
      <point x="602" y="571"/>
      <point x="530" y="514"/>
      <point x="515" y="424" type="curve"/>
      <point x="510" y="424" type="line"/>
      <point x="483" y="522"/>
      <point x="411" y="571"/>
      <point x="326" y="571" type="curve" smooth="yes"/>
      <point x="212" y="571"/>
      <point x="147" y="501"/>
      <point x="147" y="381" type="curve" smooth="yes"/>
      <point x="147" y="262"/>
      <point x="212" y="191"/>
    </contour>
    <contour>
      <point x="325" y="251" type="curve" smooth="yes"/>
      <point x="260" y="251"/>
      <point x="215" y="292"/>
      <point x="215" y="367" type="curve" smooth="yes"/>
      <point x="215" y="395" type="line" smooth="yes"/>
      <point x="215" y="471"/>
      <point x="260" y="512"/>
      <point x="325" y="512" type="curve" smooth="yes"/>
      <point x="390" y="512"/>
      <point x="444" y="463"/>
      <point x="470" y="376" type="curve"/>
      <point x="447" y="298"/>
      <point x="390" y="251"/>
    </contour>
    <contour>
      <point x="676" y="251" type="curve" smooth="yes"/>
      <point x="611" y="251"/>
      <point x="557" y="299"/>
      <point x="531" y="386" type="curve"/>
      <point x="555" y="464"/>
      <point x="611" y="512"/>
      <point x="676" y="512" type="curve" smooth="yes"/>
      <point x="741" y="512"/>
      <point x="786" y="471"/>
      <point x="786" y="395" type="curve" smooth="yes"/>
      <point x="786" y="367" type="line" smooth="yes"/>
      <point x="786" y="292"/>
      <point x="741" y="251"/>
    </contour>
  </outline>
</glyph>
<glyph name="uni2220" format="2">
  <advance width="1000"/>
  <unicode hex="2220"/>
  <outline>
    <contour>
      <point x="805" y="44" type="line"/>
      <point x="805" y="112" type="line"/>
      <point x="294" y="112" type="line"/>
      <point x="293" y="116" type="line"/>
      <point x="712" y="613" type="line"/>
      <point x="658" y="658" type="line"/>
      <point x="195" y="106" type="line"/>
      <point x="195" y="44" type="line"/>
    </contour>
  </outline>
</glyph>
<glyph name="uni2225" format="2">
  <advance width="1000"/>
  <unicode hex="2225"/>
  <outline>
    <contour>
      <point x="850" y="682" type="line"/>
      <point x="787" y="714" type="line"/>
      <point x="436" y="41" type="line"/>
      <point x="500" y="9" type="line"/>
    </contour>
    <contour>
      <point x="562" y="682" type="line"/>
      <point x="499" y="714" type="line"/>
      <point x="149" y="41" type="line"/>
      <point x="212" y="9" type="line"/>
    </contour>
  </outline>
</glyph>
<glyph name="uni2227" format="2">
  <advance width="1000"/>
  <unicode hex="2227"/>
  <outline>
    <contour>
      <point x="174" y="30" type="line"/>
      <point x="254" y="30" type="line"/>
      <point x="496" y="650" type="line"/>
      <point x="500" y="650" type="line"/>
      <point x="745" y="30" type="line"/>
      <point x="826" y="30" type="line"/>
      <point x="544" y="725" type="line"/>
      <point x="452" y="725" type="line"/>
    </contour>
  </outline>
</glyph>
<glyph name="uni222A" format="2">
  <advance width="1000"/>
  <unicode hex="222A"/>
  <outline>
    <contour>
      <point x="251" y="737" type="line"/>
      <point x="251" y="317" type="line" smooth="yes"/>
      <point x="251" y="110"/>
      <point x="317" y="27"/>
      <point x="500" y="27" type="curve" smooth="yes"/>
      <point x="683" y="27"/>
      <point x="749" y="110"/>
      <point x="749" y="317" type="curve" smooth="yes"/>
      <point x="749" y="737" type="line"/>
      <point x="666" y="737" type="line"/>
      <point x="666" y="308" type="line" smooth="yes"/>
      <point x="666" y="162"/>
      <point x="624" y="103"/>
      <point x="500" y="103" type="curve" smooth="yes"/>
      <point x="376" y="103"/>
      <point x="334" y="162"/>
      <point x="334" y="308" type="curve" smooth="yes"/>
      <point x="334" y="737" type="line"/>
    </contour>
  </outline>
</glyph>
<glyph name="uni222E" format="2">
  <advance width="1000"/>
  <unicode hex="222E"/>
  <outline>
    <contour>
      <point x="346" y="-90" type="line"/>
      <point x="449" y="-90" type="line" smooth="yes"/>
      <point x="511" y="-90"/>
      <point x="537" y="-56"/>
      <point x="537" y="-6" type="curve" smooth="yes"/>
      <point x="537" y="185" type="line"/>
      <point x="629" y="201"/>
      <point x="695" y="280"/>
      <point x="695" y="380" type="curve" smooth="yes"/>
      <point x="695" y="480"/>
      <point x="629" y="559"/>
      <point x="537" y="575" type="curve"/>
      <point x="537" y="787" type="line"/>
      <point x="660" y="787" type="line"/>
      <point x="660" y="850" type="line"/>
      <point x="556" y="850" type="line" smooth="yes"/>
      <point x="494" y="850"/>
      <point x="468" y="818"/>
      <point x="468" y="766" type="curve" smooth="yes"/>
      <point x="468" y="575" type="line"/>
      <point x="375" y="560"/>
      <point x="308" y="481"/>
      <point x="308" y="380" type="curve" smooth="yes"/>
      <point x="308" y="279"/>
      <point x="375" y="200"/>
      <point x="468" y="185" type="curve"/>
      <point x="468" y="-27" type="line"/>
      <point x="346" y="-27" type="line"/>
    </contour>
    <contour>
      <point x="377" y="380" type="curve" smooth="yes"/>
      <point x="377" y="443"/>
      <point x="411" y="494"/>
      <point x="468" y="508" type="curve"/>
      <point x="468" y="252" type="line"/>
      <point x="411" y="266"/>
      <point x="377" y="317"/>
    </contour>
    <contour>
      <point x="537" y="507" type="line"/>
      <point x="592" y="492"/>
      <point x="626" y="441"/>
      <point x="626" y="380" type="curve" smooth="yes"/>
      <point x="626" y="319"/>
      <point x="592" y="268"/>
      <point x="537" y="253" type="curve"/>
    </contour>
  </outline>
</glyph>
<glyph name="uni2234" format="2">
  <advance width="1000"/>
  <unicode hex="2234"/>
  <outline>
    <contour>
      <point x="500" y="445" type="curve" smooth="yes"/>
      <point x="560" y="445"/>
      <point x="588" y="479"/>
      <point x="588" y="525" type="curve" smooth="yes"/>
      <point x="588" y="545" type="line" smooth="yes"/>
      <point x="588" y="591"/>
      <point x="560" y="625"/>
      <point x="500" y="625" type="curve" smooth="yes"/>
      <point x="440" y="625"/>
      <point x="412" y="591"/>
      <point x="412" y="545" type="curve" smooth="yes"/>
      <point x="412" y="525" type="line" smooth="yes"/>
      <point x="412" y="479"/>
      <point x="440" y="445"/>
    </contour>
    <contour>
      <point x="288" y="105" type="curve" smooth="yes"/>
      <point x="348" y="105"/>
      <point x="376" y="139"/>
      <point x="376" y="185" type="curve" smooth="yes"/>
      <point x="376" y="205" type="line" smooth="yes"/>
      <point x="376" y="251"/>
      <point x="348" y="285"/>
      <point x="288" y="285" type="curve" smooth="yes"/>
      <point x="228" y="285"/>
      <point x="200" y="251"/>
      <point x="200" y="205" type="curve" smooth="yes"/>
      <point x="200" y="185" type="line" smooth="yes"/>
      <point x="200" y="139"/>
      <point x="228" y="105"/>
    </contour>
    <contour>
      <point x="712" y="105" type="curve" smooth="yes"/>
      <point x="772" y="105"/>
      <point x="800" y="139"/>
      <point x="800" y="185" type="curve" smooth="yes"/>
      <point x="800" y="205" type="line" smooth="yes"/>
      <point x="800" y="251"/>
      <point x="772" y="285"/>
      <point x="712" y="285" type="curve" smooth="yes"/>
      <point x="652" y="285"/>
      <point x="624" y="251"/>
      <point x="624" y="205" type="curve" smooth="yes"/>
      <point x="624" y="185" type="line" smooth="yes"/>
      <point x="624" y="139"/>
      <point x="652" y="105"/>
    </contour>
  </outline>
</glyph>
<glyph name="uni224C" format="2">
  <advance width="1000"/>
  <unicode hex="224C"/>
  <outline>
    <contour>
      <point x="326" y="373" type="curve" smooth="yes"/>
      <point x="421" y="373"/>
      <point x="487" y="442"/>
      <point x="539" y="558" type="curve"/>
      <point x="574" y="630"/>
      <point x="606" y="677"/>
      <point x="676" y="677" type="curve" smooth="yes"/>
      <point x="745" y="677"/>
      <point x="788" y="642"/>
      <point x="788" y="570" type="curve" smooth="yes"/>
      <point x="788" y="542" type="line" smooth="yes"/>
      <point x="788" y="471"/>
      <point x="745" y="435"/>
      <point x="676" y="435" type="curve" smooth="yes"/>
      <point x="640" y="435"/>
      <point x="607" y="451"/>
      <point x="581" y="484" type="curve"/>
      <point x="543" y="444" type="line"/>
      <point x="573" y="399"/>
      <point x="625" y="373"/>
      <point x="675" y="373" type="curve" smooth="yes"/>
      <point x="797" y="373"/>
      <point x="858" y="443"/>
      <point x="858" y="556" type="curve" smooth="yes"/>
      <point x="858" y="674"/>
      <point x="791" y="739"/>
      <point x="675" y="739" type="curve" smooth="yes"/>
      <point x="587" y="739"/>
      <point x="526" y="689"/>
      <point x="472" y="572" type="curve" smooth="yes"/>
      <point x="437" y="498"/>
      <point x="396" y="436"/>
      <point x="325" y="436" type="curve" smooth="yes"/>
      <point x="256" y="436"/>
      <point x="212" y="471"/>
      <point x="212" y="542" type="curve" smooth="yes"/>
      <point x="212" y="570" type="line" smooth="yes"/>
      <point x="212" y="639"/>
      <point x="256" y="678"/>
      <point x="325" y="678" type="curve" smooth="yes"/>
      <point x="360" y="678"/>
      <point x="393" y="664"/>
      <point x="419" y="634" type="curve"/>
      <point x="455" y="674" type="line"/>
      <point x="423" y="715"/>
      <point x="374" y="739"/>
      <point x="326" y="739" type="curve" smooth="yes"/>
      <point x="211" y="739"/>
      <point x="142" y="674"/>
      <point x="142" y="556" type="curve" smooth="yes"/>
      <point x="142" y="443"/>
      <point x="206" y="373"/>
    </contour>
    <contour>
      <point x="844" y="43" type="line"/>
      <point x="844" y="106" type="line"/>
      <point x="158" y="106" type="line"/>
      <point x="158" y="43" type="line"/>
    </contour>
    <contour>
      <point x="844" y="219" type="line"/>
      <point x="844" y="282" type="line"/>
      <point x="158" y="282" type="line"/>
      <point x="158" y="219" type="line"/>
    </contour>
  </outline>
</glyph>
<glyph name="uni2252" format="2">
  <advance width="1000"/>
  <unicode hex="2252"/>
  <outline>
    <contour>
      <point x="870" y="462" type="line"/>
      <point x="870" y="526" type="line"/>
      <point x="130" y="526" type="line"/>
      <point x="130" y="462" type="line"/>
    </contour>
    <contour>
      <point x="870" y="234" type="line"/>
      <point x="870" y="298" type="line"/>
      <point x="130" y="298" type="line"/>
      <point x="130" y="234" type="line"/>
    </contour>
    <contour>
      <point x="375" y="645" type="curve" smooth="yes"/>
      <point x="410" y="645"/>
      <point x="427" y="664"/>
      <point x="427" y="693" type="curve" smooth="yes"/>
      <point x="427" y="705" type="line" smooth="yes"/>
      <point x="427" y="733"/>
      <point x="410" y="752"/>
      <point x="375" y="752" type="curve" smooth="yes"/>
      <point x="340" y="752"/>
      <point x="324" y="733"/>
      <point x="324" y="705" type="curve" smooth="yes"/>
      <point x="324" y="693" type="line" smooth="yes"/>
      <point x="324" y="664"/>
      <point x="340" y="645"/>
    </contour>
    <contour>
      <point x="625" y="8" type="curve" smooth="yes"/>
      <point x="660" y="8"/>
      <point x="676" y="27"/>
      <point x="676" y="56" type="curve" smooth="yes"/>
      <point x="676" y="68" type="line" smooth="yes"/>
      <point x="676" y="96"/>
      <point x="660" y="115"/>
      <point x="625" y="115" type="curve" smooth="yes"/>
      <point x="590" y="115"/>
      <point x="573" y="96"/>
      <point x="573" y="68" type="curve" smooth="yes"/>
      <point x="573" y="56" type="line" smooth="yes"/>
      <point x="573" y="27"/>
      <point x="590" y="8"/>
    </contour>
  </outline>
</glyph>
<glyph name="uni2261" format="2">
  <advance width="1000"/>
  <unicode hex="2261"/>
  <outline>
    <contour>
      <point x="864" y="562" type="line"/>
      <point x="864" y="623" type="line"/>
      <point x="136" y="623" type="line"/>
      <point x="136" y="562" type="line"/>
    </contour>
    <contour>
      <point x="864" y="350" type="line"/>
      <point x="864" y="411" type="line"/>
      <point x="136" y="411" type="line"/>
      <point x="136" y="350" type="line"/>
    </contour>
    <contour>
      <point x="864" y="137" type="line"/>
      <point x="864" y="198" type="line"/>
      <point x="136" y="198" type="line"/>
      <point x="136" y="137" type="line"/>
    </contour>
  </outline>
</glyph>
<glyph name="uni2265" format="2">
  <advance width="600"/>
  <unicode hex="2265"/>
  <outline>
    <contour>
      <point x="93" y="116" type="line"/>
      <point x="507" y="333" type="line"/>
      <point x="507" y="383" type="line"/>
      <point x="93" y="599" type="line"/>
      <point x="93" y="528" type="line"/>
      <point x="418" y="360" type="line"/>
      <point x="418" y="356" type="line"/>
      <point x="93" y="188" type="line"/>
    </contour>
    <contour>
      <point x="93" y="0" type="line"/>
      <point x="507" y="0" type="line"/>
      <point x="507" y="61" type="line"/>
      <point x="93" y="61" type="line"/>
    </contour>
  </outline>
</glyph>
<glyph name="uni2267" format="2">
  <advance width="1000"/>
  <unicode hex="2267"/>
  <outline>
    <contour>
      <point x="141" y="776" type="line"/>
      <point x="141" y="716" type="line"/>
      <point x="752" y="571" type="line"/>
      <point x="752" y="567" type="line"/>
      <point x="141" y="437" type="line"/>
      <point x="141" y="377" type="line"/>
      <point x="859" y="536" type="line"/>
      <point x="859" y="602" type="line"/>
    </contour>
    <contour>
      <point x="859" y="233" type="line"/>
      <point x="859" y="293" type="line"/>
      <point x="141" y="293" type="line"/>
      <point x="141" y="233" type="line"/>
    </contour>
    <contour>
      <point x="859" y="44" type="line"/>
      <point x="859" y="103" type="line"/>
      <point x="141" y="103" type="line"/>
      <point x="141" y="44" type="line"/>
    </contour>
  </outline>
</glyph>
<glyph name="uni226E" format="2">
  <advance width="1000"/>
  <unicode hex="226E"/>
  <outline>
    <contour>
      <point x="857" y="102" type="line"/>
      <point x="214" y="359" type="line"/>
      <point x="214" y="363" type="line"/>
      <point x="857" y="620" type="line"/>
      <point x="857" y="692" type="line"/>
      <point x="133" y="402" type="line"/>
      <point x="133" y="320" type="line"/>
      <point x="857" y="29" type="line"/>
    </contour>
    <contour>
      <point x="447" y="-17" type="line"/>
      <point x="679" y="747" type="line"/>
      <point x="606" y="747" type="line"/>
      <point x="375" y="-17" type="line"/>
    </contour>
  </outline>
</glyph>
<glyph name="uni22BF" format="2">
  <advance width="1000"/>
  <unicode hex="22BF"/>
  <outline>
    <contour>
      <point x="780" y="660" type="line"/>
      <point x="178" y="44" type="line"/>
      <point x="780" y="44" type="line"/>
    </contour>
    <contour>
      <point x="714" y="501" type="line"/>
      <point x="714" y="101" type="line"/>
      <point x="323" y="101" type="line"/>
    </contour>
  </outline>
</glyph>
<glyph name="uni3008" format="2">
  <advance width="1000"/>
  <unicode hex="2329"/>
  <unicode hex="3008"/>
  <anchor x="500" y="0" name="LSB"/>
  <anchor x="1000" y="0" name="RSB"/>
  <outline>
    <contour>
      <point x="935" y="-74" type="line"/>
      <point x="713" y="380" type="line"/>
      <point x="935" y="834" type="line"/>
      <point x="863" y="834" type="line"/>
      <point x="640" y="380" type="line"/>
      <point x="863" y="-74" type="line"/>
    </contour>
  </outline>
</glyph>
<glyph name="uni2461" format="2">
  <advance width="1000"/>
  <unicode hex="2461"/>
  <outline>
    <contour>
      <point x="500" y="-79" type="curve" smooth="yes"/>
      <point x="753" y="-79"/>
      <point x="959" y="127"/>
      <point x="959" y="380" type="curve" smooth="yes"/>
      <point x="959" y="633"/>
      <point x="753" y="839"/>
      <point x="500" y="839" type="curve" smooth="yes"/>
      <point x="247" y="839"/>
      <point x="41" y="633"/>
      <point x="41" y="380" type="curve" smooth="yes"/>
      <point x="41" y="127"/>
      <point x="247" y="-79"/>
    </contour>
    <contour>
      <point x="500" y="-48" type="curve" smooth="yes"/>
      <point x="265" y="-48"/>
      <point x="73" y="143"/>
      <point x="73" y="380" type="curve" smooth="yes"/>
      <point x="73" y="617"/>
      <point x="265" y="808"/>
      <point x="500" y="808" type="curve" smooth="yes"/>
      <point x="735" y="808"/>
      <point x="927" y="617"/>
      <point x="927" y="380" type="curve" smooth="yes"/>
      <point x="927" y="143"/>
      <point x="735" y="-48"/>
    </contour>
    <contour>
      <point x="642" y="213" type="line"/>
      <point x="404" y="213" type="line"/>
      <point x="408" y="202" type="line"/>
      <point x="536" y="321" type="line"/>
      <point x="583" y="361"/>
      <point x="627" y="406"/>
      <point x="627" y="473" type="curve" smooth="yes"/>
      <point x="627" y="546"/>
      <point x="581" y="595"/>
      <point x="498" y="595" type="curve" smooth="yes"/>
      <point x="420" y="595"/>
      <point x="375" y="552"/>
      <point x="359" y="495" type="curve"/>
      <point x="404" y="478" type="line"/>
      <point x="417" y="520"/>
      <point x="444" y="550"/>
      <point x="494" y="550" type="curve" smooth="yes"/>
      <point x="541" y="550"/>
      <point x="572" y="521"/>
      <point x="572" y="478" type="curve" smooth="yes"/>
      <point x="572" y="465" type="line" smooth="yes"/>
      <point x="572" y="425"/>
      <point x="551" y="393"/>
      <point x="509" y="354" type="curve" smooth="yes"/>
      <point x="364" y="217" type="line"/>
      <point x="364" y="169" type="line"/>
      <point x="642" y="169" type="line"/>
    </contour>
  </outline>
</glyph>
<glyph name="uni2462" format="2">
  <advance width="1000"/>
  <unicode hex="2462"/>
  <outline>
    <contour>
      <point x="500" y="-79" type="curve" smooth="yes"/>
      <point x="753" y="-79"/>
      <point x="959" y="127"/>
      <point x="959" y="380" type="curve" smooth="yes"/>
      <point x="959" y="633"/>
      <point x="753" y="839"/>
      <point x="500" y="839" type="curve" smooth="yes"/>
      <point x="247" y="839"/>
      <point x="41" y="633"/>
      <point x="41" y="380" type="curve" smooth="yes"/>
      <point x="41" y="127"/>
      <point x="247" y="-79"/>
    </contour>
    <contour>
      <point x="487" y="161" type="curve" smooth="yes"/>
      <point x="573" y="161"/>
      <point x="629" y="208"/>
      <point x="629" y="283" type="curve" smooth="yes"/>
      <point x="629" y="349"/>
      <point x="582" y="389"/>
      <point x="509" y="388" type="curve"/>
      <point x="540" y="369" type="line"/>
      <point x="540" y="403" type="line"/>
      <point x="512" y="386" type="line"/>
      <point x="572" y="389"/>
      <point x="620" y="418"/>
      <point x="620" y="486" type="curve" smooth="yes"/>
      <point x="620" y="552"/>
      <point x="569" y="594"/>
      <point x="490" y="594" type="curve" smooth="yes"/>
      <point x="425" y="594"/>
      <point x="385" y="566"/>
      <point x="360" y="526" type="curve"/>
      <point x="394" y="496" type="line"/>
      <point x="414" y="530"/>
      <point x="445" y="551"/>
      <point x="488" y="551" type="curve" smooth="yes"/>
      <point x="535" y="551"/>
      <point x="566" y="523"/>
      <point x="566" y="483" type="curve" smooth="yes"/>
      <point x="566" y="473" type="line" smooth="yes"/>
      <point x="566" y="435"/>
      <point x="535" y="408"/>
      <point x="483" y="408" type="curve" smooth="yes"/>
      <point x="435" y="408" type="line"/>
      <point x="435" y="364" type="line"/>
      <point x="482" y="364" type="line" smooth="yes"/>
      <point x="539" y="364"/>
      <point x="574" y="336"/>
      <point x="574" y="290" type="curve" smooth="yes"/>
      <point x="574" y="281" type="line" smooth="yes"/>
      <point x="574" y="234"/>
      <point x="540" y="203"/>
      <point x="487" y="203" type="curve" smooth="yes"/>
      <point x="438" y="203"/>
      <point x="408" y="224"/>
      <point x="384" y="262" type="curve"/>
      <point x="346" y="233" type="line"/>
      <point x="373" y="190"/>
      <point x="416" y="161"/>
    </contour>
    <contour>
      <point x="500" y="-48" type="curve" smooth="yes"/>
      <point x="265" y="-48"/>
      <point x="73" y="143"/>
      <point x="73" y="380" type="curve" smooth="yes"/>
      <point x="73" y="617"/>
      <point x="265" y="808"/>
      <point x="500" y="808" type="curve" smooth="yes"/>
      <point x="735" y="808"/>
      <point x="927" y="617"/>
      <point x="927" y="380" type="curve" smooth="yes"/>
      <point x="927" y="143"/>
      <point x="735" y="-48"/>
    </contour>
  </outline>
</glyph>
<glyph name="uni2463" format="2">
  <advance width="1000"/>
  <unicode hex="2463"/>
  <outline>
    <contour>
      <point x="500" y="-79" type="curve" smooth="yes"/>
      <point x="753" y="-79"/>
      <point x="959" y="127"/>
      <point x="959" y="380" type="curve" smooth="yes"/>
      <point x="959" y="633"/>
      <point x="753" y="839"/>
      <point x="500" y="839" type="curve" smooth="yes"/>
      <point x="247" y="839"/>
      <point x="41" y="633"/>
      <point x="41" y="380" type="curve" smooth="yes"/>
      <point x="41" y="127"/>
      <point x="247" y="-79"/>
    </contour>
    <contour>
      <point x="500" y="-48" type="curve" smooth="yes"/>
      <point x="265" y="-48"/>
      <point x="73" y="143"/>
      <point x="73" y="380" type="curve" smooth="yes"/>
      <point x="73" y="617"/>
      <point x="265" y="808"/>
      <point x="500" y="808" type="curve" smooth="yes"/>
      <point x="735" y="808"/>
      <point x="927" y="617"/>
      <point x="927" y="380" type="curve" smooth="yes"/>
      <point x="927" y="143"/>
      <point x="735" y="-48"/>
    </contour>
    <contour>
      <point x="593" y="168" type="line"/>
      <point x="593" y="256" type="line"/>
      <point x="655" y="256" type="line"/>
      <point x="655" y="297" type="line"/>
      <point x="593" y="297" type="line"/>
      <point x="593" y="587" type="line"/>
      <point x="532" y="587" type="line"/>
      <point x="343" y="301" type="line"/>
      <point x="343" y="256" type="line"/>
      <point x="544" y="256" type="line"/>
      <point x="544" y="168" type="line"/>
    </contour>
    <contour>
      <point x="551" y="549" type="line"/>
      <point x="523" y="532" type="line"/>
      <point x="561" y="532" type="line"/>
      <point x="544" y="548" type="line"/>
      <point x="544" y="297" type="line"/>
      <point x="366" y="297" type="line"/>
      <point x="378" y="283" type="line"/>
    </contour>
  </outline>
</glyph>
